<svg width="345" height="54" viewBox="0 0 345 54" fill="none" xmlns="http://www.w3.org/2000/svg">
<path d="M0.820312 46.2324C0.820312 43.9538 1.45833 41.7207 2.73438 39.5332C4.05599 37.3457 5.7194 35.4089 7.72461 33.7227C9.72982 32.0365 11.9401 30.6921 14.3555 29.6895C16.7708 28.6413 19.0723 28.1172 21.2598 28.1172C22.1257 28.1172 22.946 28.2767 23.7207 28.5957C24.4954 28.9147 25.3158 29.0742 26.1816 29.0742H26.5918C26.8197 28.5729 27.2526 27.6842 27.8906 26.4082C28.5742 25.1322 29.2806 23.7878 30.0098 22.375C30.7845 20.9622 31.5137 19.6406 32.1973 18.4102C32.8809 17.1341 33.3822 16.2454 33.7012 15.7441C34.2025 14.8783 34.8861 13.8073 35.752 12.5312C36.6178 11.2096 37.4609 9.93359 38.2812 8.70312C39.1471 7.47266 39.8991 6.42448 40.5371 5.55859C41.1751 4.69271 41.5397 4.25977 41.6309 4.25977L44.2969 6.92578C44.2969 7.01693 44.1146 7.42708 43.75 8.15625C43.431 8.88542 42.998 9.84245 42.4512 11.0273C41.9043 12.1667 41.2663 13.4427 40.5371 14.8555C39.8535 16.2682 39.1471 17.681 38.418 19.0938C37.6888 20.5065 36.9824 21.8737 36.2988 23.1953C35.6608 24.4714 35.0911 25.5423 34.5898 26.4082C33.1771 28.5501 31.7415 30.7376 30.2832 32.9707C28.8704 35.1582 27.7311 37.209 26.8652 39.123C26.0449 40.9915 25.6348 42.6322 25.6348 44.0449C25.6803 45.4577 26.4551 46.4375 27.959 46.9844C30.6934 46.4831 32.7441 46.278 34.1113 46.3691C35.4785 46.4603 36.3216 46.7109 36.6406 47.1211C37.0052 47.4857 36.9596 47.9414 36.5039 48.4883C36.0482 48.9896 35.319 49.4453 34.3164 49.8555C33.3594 50.2656 32.2428 50.5391 30.9668 50.6758C29.6908 50.8125 28.4147 50.6758 27.1387 50.2656C25.8626 49.8555 24.7005 49.1035 23.6523 48.0098C22.6042 46.916 21.8066 45.3438 21.2598 43.293L10.6641 52.1113C10.6641 52.1113 10.4818 52.1569 10.1172 52.248C9.79818 52.3392 9.38802 52.4303 8.88672 52.5215C8.43099 52.6126 7.95247 52.7038 7.45117 52.7949C6.94987 52.8861 6.53971 52.9544 6.2207 53H5.81055C4.76237 53 3.89648 52.8177 3.21289 52.4531C2.57487 52.043 2.07357 51.5417 1.70898 50.9492C1.3444 50.3112 1.09375 49.582 0.957031 48.7617C0.865885 47.9414 0.820312 47.0983 0.820312 46.2324ZM5.26367 45.4805C5.26367 45.7539 5.24089 46.0729 5.19531 46.4375C5.19531 46.8021 5.2181 47.1439 5.26367 47.4629C5.35482 47.7363 5.49154 47.987 5.67383 48.2148C5.90169 48.4427 6.2207 48.5566 6.63086 48.5566C7.22331 48.5566 7.92969 48.3516 8.75 47.9414C9.61589 47.4857 10.459 46.9616 11.2793 46.3691C12.0996 45.7767 12.8516 45.1842 13.5352 44.5918C14.2643 43.9993 14.7884 43.5664 15.1074 43.293C15.4264 42.974 16.0189 42.4043 16.8848 41.584C17.7507 40.7181 18.6393 39.8066 19.5508 38.8496C20.5078 37.8926 21.3965 37.0039 22.2168 36.1836C23.0371 35.3633 23.6068 34.7708 23.9258 34.4062V34.2012C23.9258 34.11 23.9258 34.0645 23.9258 34.0645C23.9714 34.0189 23.9941 33.9733 23.9941 33.9277C23.9941 33.5176 23.8574 33.2214 23.584 33.0391C23.3561 32.8112 23.0599 32.6745 22.6953 32.6289C22.3763 32.5378 22.0345 32.515 21.6699 32.5605C21.3053 32.5605 21.0091 32.5605 20.7812 32.5605C19.1406 32.5605 17.4089 32.9023 15.5859 33.5859C13.763 34.2695 12.0768 35.2038 10.5273 36.3887C9.02344 37.528 7.77018 38.8952 6.76758 40.4902C5.76497 42.0397 5.26367 43.7031 5.26367 45.4805ZM35.1887 48.5566C35.1887 47.9186 35.257 47.3717 35.3937 46.916C35.5305 46.4147 35.7811 45.7767 36.1457 45.002C36.4647 44.5462 37.0344 43.6803 37.8547 42.4043C38.7206 41.1283 39.6092 39.7839 40.5207 38.3711C41.4777 36.9583 42.3664 35.6367 43.1867 34.4062C44.0526 33.1302 44.6451 32.2415 44.9641 31.7402C45.3742 31.1478 45.6932 30.8288 45.9211 30.7832C46.149 30.7376 46.5819 30.7148 47.2199 30.7148C47.6301 30.7148 48.063 30.7376 48.5187 30.7832C49.0201 30.8288 49.3391 31.1478 49.4758 31.7402C48.8378 33.2897 47.9719 34.7708 46.8781 36.1836C45.8299 37.5508 44.7818 38.918 43.7336 40.2852C42.731 41.6523 41.8423 43.0651 41.0676 44.5234C40.2928 45.9362 39.9055 47.4629 39.9055 49.1035C40.0878 49.1035 40.3612 49.1263 40.7258 49.1719C41.1359 49.2174 41.5689 49.263 42.0246 49.3086C42.4803 49.3542 42.8905 49.3997 43.2551 49.4453C43.6652 49.4909 43.9615 49.4909 44.1437 49.4453C44.4172 49.3997 44.8729 49.3086 45.5109 49.1719C46.1945 48.9896 46.9009 48.8073 47.6301 48.625C48.4048 48.4427 49.134 48.2604 49.8176 48.0781C50.5012 47.8958 50.9797 47.7591 51.2531 47.668C51.2531 47.7591 51.2531 47.9186 51.2531 48.1465C51.2987 48.3288 51.3215 48.4655 51.3215 48.5566C51.3215 49.4681 50.8885 50.2201 50.0227 50.8125C49.2023 51.4049 48.2225 51.8835 47.0832 52.248C45.9895 52.5671 44.8501 52.7949 43.6652 52.9316C42.5259 53.0228 41.6372 53.0684 40.9992 53.0684C40.3156 53.0684 39.6092 53 38.8801 52.8633C38.1965 52.681 37.5812 52.4076 37.0344 52.043C36.4875 51.6784 36.0318 51.2227 35.6672 50.6758C35.3482 50.0833 35.1887 49.377 35.1887 48.5566ZM55.0812 8.49805C55.6737 8.49805 56.2206 8.52083 56.7219 8.56641C57.2232 8.61198 57.6561 8.72591 58.0207 8.9082C58.3853 9.09049 58.6815 9.36393 58.9094 9.72852C59.1372 10.0931 59.2512 10.5944 59.2512 11.2324C59.2512 11.5059 59.2512 11.8021 59.2512 12.1211C59.2512 12.4401 59.2056 12.7591 59.1145 13.0781C59.0689 13.3516 58.9549 13.6022 58.7727 13.8301C58.5904 14.0124 58.2941 14.1035 57.884 14.1035C57.246 14.1035 56.7219 13.8757 56.3117 13.4199C55.9471 12.9642 55.6737 12.4401 55.4914 11.8477C55.3091 11.2096 55.1952 10.5716 55.1496 9.93359C55.104 9.29557 55.0812 8.81706 55.0812 8.49805ZM52.057 49.9238C52.057 49.5137 52.057 49.1947 52.057 48.9668C52.057 48.7389 52.0798 48.5339 52.1254 48.3516C52.2165 48.1237 52.3305 47.8958 52.4672 47.668C52.6039 47.4401 52.7862 47.1439 53.0141 46.7793C53.3786 46.1413 54.0622 45.0247 55.0648 43.4297C56.0674 41.8346 57.1384 40.1484 58.2777 38.3711C59.4171 36.5938 60.488 34.9076 61.4906 33.3125C62.5388 31.7174 63.268 30.6009 63.6781 29.9629C63.7237 29.9173 63.8376 29.8945 64.0199 29.8945C64.2478 29.8945 64.4073 29.8945 64.4984 29.8945C64.5896 29.8945 64.7491 29.8945 64.977 29.8945C65.2048 29.8945 65.3415 29.9173 65.3871 29.9629C65.4327 30.0085 65.5238 30.1224 65.6605 30.3047C65.8428 30.487 66.0251 30.6921 66.2074 30.9199C66.4353 31.1022 66.6176 31.2845 66.7543 31.4668C66.9366 31.6491 67.0733 31.7402 67.1645 31.7402C67.5746 31.7402 68.0076 31.6035 68.4633 31.3301C68.919 31.0566 69.3747 30.7604 69.8305 30.4414C70.3318 30.0768 70.8331 29.7578 71.3344 29.4844C71.8357 29.2109 72.3598 29.0742 72.9066 29.0742C73.4991 29.0742 74.046 29.2109 74.5473 29.4844C75.0486 29.7578 75.4815 30.0996 75.8461 30.5098C76.2107 30.9199 76.4841 31.3757 76.6664 31.877C76.8943 32.3783 77.0082 32.8796 77.0082 33.3809C77.0082 34.429 76.8487 35.4316 76.5297 36.3887C76.2562 37.3457 75.9372 38.3027 75.5727 39.2598C75.2081 40.1712 74.8663 41.1055 74.5473 42.0625C74.2738 42.974 74.1371 43.931 74.1371 44.9336C74.1371 45.9362 74.251 46.6654 74.4789 47.1211C74.7068 47.5312 75.3448 47.7363 76.393 47.7363C77.6234 47.7363 78.7855 47.554 79.8793 47.1895C81.0186 46.8249 82.1807 46.6426 83.3656 46.6426C83.3656 47.7363 83.0238 48.6478 82.3402 49.377C81.7022 50.1061 80.8819 50.6986 79.8793 51.1543C78.9223 51.5645 77.8741 51.8607 76.7348 52.043C75.641 52.1797 74.6384 52.248 73.727 52.248C71.9952 52.248 70.7191 51.7695 69.8988 50.8125C69.1241 49.8099 68.7367 48.4883 68.7367 46.8477C68.7367 45.7539 68.919 44.7285 69.2836 43.7715C69.6937 42.8145 70.1267 41.8802 70.5824 40.9688C71.0837 40.0573 71.5395 39.1458 71.9496 38.2344C72.3598 37.3229 72.5648 36.3431 72.5648 35.2949C72.5648 35.0215 72.5193 34.6569 72.4281 34.2012C72.337 33.7454 72.0408 33.5176 71.5395 33.5176C70.0355 33.5176 68.6684 33.9961 67.4379 34.9531C66.253 35.9102 65.1592 37.1178 64.1566 38.5762C63.1996 40.0345 62.3109 41.6068 61.4906 43.293C60.7159 44.9792 59.9639 46.5514 59.2348 48.0098C58.5512 49.4681 57.8904 50.6758 57.2523 51.6328C56.6143 52.5898 55.9535 53.0684 55.2699 53.0684C54.3129 53.0684 53.5381 52.7721 52.9457 52.1797C52.3533 51.5872 52.057 50.8353 52.057 49.9238ZM81.1617 49.4453C80.387 47.7135 80.0452 46.0273 80.1363 44.3867C80.2275 42.7005 80.5921 41.1283 81.2301 39.6699C81.9137 38.166 82.7796 36.8216 83.8277 35.6367C84.9215 34.4062 86.0836 33.3581 87.3141 32.4922C88.5445 31.5807 89.775 30.8971 91.0055 30.4414C92.2815 29.9857 93.398 29.8034 94.3551 29.8945C95.3121 29.9401 96.0641 30.2819 96.6109 30.9199C97.1578 31.5579 97.3401 32.5378 97.1578 33.8594C97.1578 35.6367 96.5882 37.1862 95.4488 38.5078C94.3551 39.8294 93.1246 41.0143 91.7574 42.0625C90.4358 43.1107 89.2053 44.0677 88.066 44.9336C86.9723 45.7539 86.4254 46.5286 86.4254 47.2578C86.4254 47.668 86.6533 47.987 87.109 48.2148C87.6103 48.4427 88.1799 48.625 88.818 48.7617C89.456 48.8529 90.094 48.9212 90.732 48.9668C91.3701 49.0124 91.8258 49.0579 92.0992 49.1035C96.3831 48.1921 99.596 47.6452 101.738 47.4629C103.88 47.235 105.224 47.2578 105.771 47.5312C106.318 47.7591 106.204 48.1465 105.429 48.6934C104.7 49.1947 103.561 49.7415 102.011 50.334C100.462 50.8809 98.6617 51.3822 96.6109 51.8379C94.5602 52.2936 92.5322 52.5671 90.527 52.6582C88.5217 52.7038 86.6533 52.4987 84.9215 52.043C83.2353 51.5872 81.982 50.7214 81.1617 49.4453ZM93.1246 33.8594C92.2132 33.8594 91.3473 34.11 90.527 34.6113C89.7066 35.1126 88.9547 35.7507 88.2711 36.5254C87.6331 37.2546 87.0862 38.0749 86.6305 38.9863C86.1747 39.8522 85.8329 40.6725 85.6051 41.4473C85.6962 41.4928 85.7646 41.5156 85.8102 41.5156H86.0152C86.6533 41.5156 87.3824 41.2422 88.2027 40.6953C89.023 40.1484 89.7978 39.4876 90.527 38.7129C91.2561 37.8926 91.8714 37.0495 92.3727 36.1836C92.874 35.3177 93.1246 34.543 93.1246 33.8594ZM138.004 48.5566C138.186 46.6882 138.688 44.9792 139.508 43.4297C140.374 41.8346 141.376 40.3307 142.516 38.918C143.701 37.4596 144.908 36.0924 146.139 34.8164C147.415 33.4948 148.554 32.1732 149.557 30.8516C150.331 30.8516 150.833 31.0339 151.061 31.3984C151.334 31.7174 151.471 32.1276 151.471 32.6289C151.106 33.0391 150.536 33.791 149.762 34.8848C148.987 35.9329 148.189 37.0723 147.369 38.3027C146.594 39.5332 145.888 40.6953 145.25 41.7891C144.658 42.8828 144.316 43.6576 144.225 44.1133C143.86 45.4805 143.86 46.3464 144.225 46.7109C144.635 47.0299 145.273 47.0299 146.139 46.7109C147.05 46.3464 148.121 45.7311 149.352 44.8652C150.582 43.9538 151.835 42.9512 153.111 41.8574C154.433 40.7637 155.709 39.6243 156.939 38.4395C158.17 37.2546 159.241 36.2064 160.152 35.2949H163.16C163.16 36.0697 163.046 36.8216 162.818 37.5508C162.59 38.2344 162.34 38.918 162.066 39.6016C161.793 40.2852 161.542 40.9688 161.314 41.6523C161.087 42.3359 160.973 43.0423 160.973 43.7715C160.973 44.8197 161.292 45.4577 161.93 45.6855C162.613 45.9134 163.388 46.0273 164.254 46.0273C165.439 46.0273 166.669 45.7995 167.945 45.3438C169.267 44.8424 170.475 44.1816 171.568 43.3613C172.662 42.4954 173.551 41.5156 174.234 40.4219C174.964 39.2826 175.328 38.0521 175.328 36.7305C175.328 35.5456 175.146 34.4746 174.781 33.5176C174.462 32.515 174.303 31.4212 174.303 30.2363C174.303 28.8236 175.077 28.1172 176.627 28.1172C177.311 28.1172 177.903 28.4134 178.404 29.0059C178.906 29.5983 179.316 30.3047 179.635 31.125C179.999 31.9453 180.25 32.7884 180.387 33.6543C180.569 34.5202 180.66 35.2266 180.66 35.7734C180.66 38.1432 180.09 40.2396 178.951 42.0625C177.812 43.8854 176.354 45.4121 174.576 46.6426C172.799 47.873 170.816 48.8073 168.629 49.4453C166.487 50.0833 164.391 50.4023 162.34 50.4023C160.608 50.4023 159.241 49.7871 158.238 48.5566C157.236 47.2806 156.712 45.7995 156.666 44.1133C155.344 44.5234 154.137 45.2298 153.043 46.2324C151.949 47.1895 150.855 48.1921 149.762 49.2402C148.668 50.2428 147.529 51.1315 146.344 51.9062C145.159 52.681 143.86 53.0684 142.447 53.0684C142.083 53.0684 141.627 52.9089 141.08 52.5898C140.579 52.2708 140.077 51.8835 139.576 51.4277C139.12 50.972 138.733 50.4935 138.414 49.9922C138.095 49.4453 137.958 48.9668 138.004 48.5566ZM182.011 48.5566C182.011 47.9186 182.079 47.3717 182.216 46.916C182.353 46.4147 182.603 45.7767 182.968 45.002C183.287 44.5462 183.857 43.6803 184.677 42.4043C185.543 41.1283 186.432 39.7839 187.343 38.3711C188.3 36.9583 189.189 35.6367 190.009 34.4062C190.875 33.1302 191.467 32.2415 191.786 31.7402C192.196 31.1478 192.515 30.8288 192.743 30.7832C192.971 30.7376 193.404 30.7148 194.042 30.7148C194.452 30.7148 194.885 30.7376 195.341 30.7832C195.842 30.8288 196.161 31.1478 196.298 31.7402C195.66 33.2897 194.794 34.7708 193.7 36.1836C192.652 37.5508 191.604 38.918 190.556 40.2852C189.553 41.6523 188.665 43.0651 187.89 44.5234C187.115 45.9362 186.728 47.4629 186.728 49.1035C186.91 49.1035 187.183 49.1263 187.548 49.1719C187.958 49.2174 188.391 49.263 188.847 49.3086C189.303 49.3542 189.713 49.3997 190.077 49.4453C190.488 49.4909 190.784 49.4909 190.966 49.4453C191.239 49.3997 191.695 49.3086 192.333 49.1719C193.017 48.9896 193.723 48.8073 194.452 48.625C195.227 48.4427 195.956 48.2604 196.64 48.0781C197.323 47.8958 197.802 47.7591 198.075 47.668C198.075 47.7591 198.075 47.9186 198.075 48.1465C198.121 48.3288 198.144 48.4655 198.144 48.5566C198.144 49.4681 197.711 50.2201 196.845 50.8125C196.025 51.4049 195.045 51.8835 193.905 52.248C192.812 52.5671 191.672 52.7949 190.488 52.9316C189.348 53.0228 188.46 53.0684 187.821 53.0684C187.138 53.0684 186.432 53 185.702 52.8633C185.019 52.681 184.404 52.4076 183.857 52.043C183.31 51.6784 182.854 51.2227 182.489 50.6758C182.17 50.0833 182.011 49.377 182.011 48.5566ZM201.904 8.49805C202.496 8.49805 203.043 8.52083 203.544 8.56641C204.045 8.61198 204.478 8.72591 204.843 8.9082C205.208 9.09049 205.504 9.36393 205.732 9.72852C205.96 10.0931 206.073 10.5944 206.073 11.2324C206.073 11.5059 206.073 11.8021 206.073 12.1211C206.073 12.4401 206.028 12.7591 205.937 13.0781C205.891 13.3516 205.777 13.6022 205.595 13.8301C205.413 14.0124 205.116 14.1035 204.706 14.1035C204.068 14.1035 203.544 13.8757 203.134 13.4199C202.769 12.9642 202.496 12.4401 202.314 11.8477C202.131 11.2096 202.017 10.5716 201.972 9.93359C201.926 9.29557 201.904 8.81706 201.904 8.49805ZM197.58 46.3691C197.58 45.0475 197.831 43.7259 198.332 42.4043C198.834 41.0827 199.426 39.7839 200.11 38.5078C200.793 37.1862 201.477 35.8874 202.161 34.6113C202.89 33.3353 203.437 32.082 203.801 30.8516C202.935 31.3529 202.183 31.6491 201.545 31.7402C200.953 31.7858 200.224 31.8086 199.358 31.8086C199.267 31.8086 198.97 31.8086 198.469 31.8086C198.013 31.763 197.717 31.7402 197.58 31.7402C197.854 30.7376 198.355 29.849 199.084 29.0742C199.814 28.2539 200.634 27.5703 201.545 27.0234C202.502 26.431 203.482 25.9525 204.485 25.5879C205.533 25.1777 206.467 24.8587 207.288 24.6309C208.655 22.4889 209.771 20.347 210.637 18.2051C211.503 16.0176 212.369 13.8984 213.235 11.8477C214.146 9.7513 215.194 7.76888 216.379 5.90039C217.61 3.98633 219.25 2.23177 221.301 0.636719L221.643 3.23438L213.098 23.2637C213.599 23.127 214.215 22.9902 214.944 22.8535C215.673 22.7168 216.402 22.5801 217.131 22.4434C217.906 22.3066 218.635 22.1927 219.319 22.1016C220.048 21.9648 220.663 21.8281 221.164 21.6914C221.21 21.6914 221.347 21.6914 221.575 21.6914C221.802 21.6458 221.985 21.623 222.121 21.623C222.76 21.623 223.284 21.737 223.694 21.9648C224.104 22.1927 224.446 22.694 224.719 23.4688C221.62 24.3802 218.817 25.3372 216.311 26.3398C213.804 27.3424 211.617 28.6641 209.748 30.3047C207.926 31.8997 206.422 33.9505 205.237 36.457C204.097 38.918 203.3 42.0853 202.844 45.959C202.844 46.7793 202.89 47.5312 202.981 48.2148C203.072 48.8984 203.642 49.3086 204.69 49.4453C205.738 49.4453 206.718 49.2402 207.629 48.8301C208.541 48.4199 209.429 47.987 210.295 47.5312C211.161 47.0299 212.027 46.5742 212.893 46.1641C213.804 45.7539 214.784 45.5488 215.832 45.5488C215.832 46.6426 215.354 47.6452 214.397 48.5566C213.44 49.4681 212.278 50.2656 210.911 50.9492C209.589 51.6328 208.222 52.1569 206.809 52.5215C205.396 52.8861 204.234 53.0684 203.323 53.0684C202.411 53.0684 201.591 52.8861 200.862 52.5215C200.133 52.1569 199.517 51.6784 199.016 51.0859C198.56 50.4479 198.196 49.7188 197.922 48.8984C197.694 48.0781 197.58 47.235 197.58 46.3691ZM238.716 53.0684C237.577 53.2507 236.529 53.0684 235.572 52.5215C234.66 51.929 233.931 51.1771 233.384 50.2656C232.837 49.3086 232.518 48.2832 232.427 47.1895C232.336 46.0501 232.564 45.0247 233.111 44.1133C235.116 41.5156 236.483 39.4648 237.212 37.9609C237.942 36.4115 238.192 35.3405 237.964 34.748C237.782 34.11 237.212 33.8594 236.255 33.9961C235.344 34.0872 234.227 34.4974 232.906 35.2266C231.584 35.9102 230.149 36.8216 228.599 37.9609C227.095 39.1003 225.683 40.3535 224.361 41.7207C223.039 43.0879 221.877 44.5234 220.875 46.0273C219.918 47.4857 219.302 48.9212 219.029 50.334C218.573 50.6074 218.186 50.8353 217.867 51.0176C217.548 51.1543 217.183 51.2227 216.773 51.2227C216.089 51.2227 215.679 50.9948 215.543 50.5391C215.406 50.0833 215.337 49.6048 215.337 49.1035C215.337 47.9642 215.679 46.8021 216.363 45.6172C217.092 44.3867 217.912 43.2474 218.824 42.1992C219.781 41.1055 220.692 40.1257 221.558 39.2598C222.424 38.3483 223.039 37.6191 223.404 37.0723C224.543 35.2038 225.683 33.1986 226.822 31.0566C227.961 28.8691 229.101 26.6589 230.24 24.4258C231.379 22.1471 232.541 19.9141 233.726 17.7266C234.957 15.4935 236.233 13.3743 237.554 11.3691C237.782 11.0046 237.964 10.7539 238.101 10.6172C238.283 10.4805 238.534 10.4121 238.853 10.4121C239.218 10.4121 239.491 10.4805 239.673 10.6172C239.856 10.7539 240.038 11.0046 240.22 11.3691C240.22 11.5514 240.175 11.8477 240.084 12.2578C240.038 12.668 239.97 13.1237 239.879 13.625C239.833 14.0807 239.742 14.5137 239.605 14.9238C239.514 15.334 239.446 15.6074 239.4 15.7441C239.127 16.291 238.671 17.248 238.033 18.6152C237.395 19.9824 236.688 21.4408 235.914 22.9902C235.184 24.5397 234.478 26.0664 233.795 27.5703C233.111 29.0286 232.61 30.1224 232.291 30.8516C232.974 30.3958 233.589 30.054 234.136 29.8262C234.683 29.5527 235.207 29.3704 235.709 29.2793C236.255 29.1426 236.802 29.0742 237.349 29.0742C237.942 29.0286 238.58 29.0059 239.263 29.0059C240.904 29.416 241.975 30.0312 242.476 30.8516C243.023 31.6719 243.183 32.6289 242.955 33.7227C242.772 34.7708 242.339 35.9329 241.656 37.209C240.972 38.485 240.243 39.7839 239.468 41.1055C238.739 42.3815 238.078 43.6348 237.486 44.8652C236.893 46.0501 236.62 47.1439 236.666 48.1465C236.666 48.5566 236.757 48.8529 236.939 49.0352C237.121 49.2174 237.349 49.3542 237.623 49.4453C237.896 49.5365 238.192 49.582 238.511 49.582C238.83 49.582 239.127 49.582 239.4 49.582C240.357 49.582 241.268 49.4453 242.134 49.1719C243.046 48.8529 243.934 48.5111 244.8 48.1465C245.666 47.7819 246.532 47.4629 247.398 47.1895C248.309 46.8704 249.244 46.7109 250.201 46.7109C250.201 47.5768 249.768 48.3971 248.902 49.1719C248.036 49.9466 246.988 50.6302 245.757 51.2227C244.573 51.7695 243.319 52.2253 241.998 52.5898C240.676 52.9089 239.582 53.0684 238.716 53.0684ZM281.682 49.582C281.682 48.8984 281.887 47.9414 282.297 46.7109C282.707 45.4349 283.231 44.0677 283.869 42.6094C284.553 41.151 285.305 39.6699 286.125 38.166C286.991 36.6621 287.857 35.2949 288.723 34.0645C289.589 32.834 290.409 31.8314 291.184 31.0566C291.958 30.2819 292.642 29.8945 293.234 29.8945C294.51 29.8945 295.148 30.5098 295.148 31.7402C295.148 32.2871 295.035 32.7428 294.807 33.1074C294.624 33.472 294.396 33.8138 294.123 34.1328C293.85 34.4518 293.553 34.7708 293.234 35.0898C292.915 35.3633 292.642 35.7051 292.414 36.1152C292.004 36.7988 291.503 37.7331 290.91 38.918C290.318 40.1029 289.725 41.265 289.133 42.4043C288.586 43.498 288.107 44.4779 287.697 45.3438C287.287 46.2096 287.082 46.6882 287.082 46.7793V47.668C288.859 47.349 290.568 46.597 292.209 45.4121C293.85 44.1816 295.399 42.7461 296.857 41.1055C298.361 39.4648 299.774 37.7559 301.096 35.9785C302.463 34.1556 303.739 32.4922 304.924 30.9883C306.109 29.4388 307.225 28.1628 308.273 27.1602C309.322 26.1576 310.301 25.6562 311.213 25.6562C311.213 27.3424 310.871 28.8691 310.188 30.2363C309.504 31.6035 308.752 32.9479 307.932 34.2695C307.157 35.5911 306.428 36.9583 305.744 38.3711C305.061 39.7383 304.719 41.2878 304.719 43.0195C304.719 43.7487 305.152 44.4095 306.018 45.002C306.929 45.5488 307.954 46.0273 309.094 46.4375C310.279 46.8021 311.418 47.0983 312.512 47.3262C313.605 47.554 314.357 47.6908 314.768 47.7363V49.5137C313.719 49.5592 312.421 49.582 310.871 49.582C309.322 49.5365 307.772 49.3542 306.223 49.0352C304.673 48.7161 303.26 48.1921 301.984 47.4629C300.754 46.6882 299.934 45.5716 299.523 44.1133C298.339 44.888 297.199 45.7995 296.105 46.8477C295.012 47.8958 293.872 48.8757 292.688 49.7871C291.548 50.6986 290.34 51.4733 289.064 52.1113C287.788 52.7493 286.398 53.0684 284.895 53.0684C283.983 53.0684 283.208 52.681 282.57 51.9062C281.978 51.1315 281.682 50.3568 281.682 49.582ZM313.794 45.4121C313.794 44.5462 313.908 43.7943 314.136 43.1562C314.409 42.5182 315.07 42.1992 316.118 42.1992C316.209 42.1992 316.415 42.222 316.734 42.2676C317.098 42.2676 317.349 42.2904 317.486 42.3359C317.44 44.4779 317.782 46.0957 318.511 47.1895C319.24 48.2376 320.607 48.7617 322.612 48.7617C324.253 48.7617 325.871 48.5111 327.466 48.0098C329.061 47.5085 330.497 46.7793 331.773 45.8223C333.094 44.8197 334.142 43.612 334.917 42.1992C335.737 40.7865 336.148 39.1914 336.148 37.4141C336.148 36.3203 335.76 35.5456 334.986 35.0898C334.256 34.6341 333.436 34.2695 332.525 33.9961C331.613 33.7227 330.77 33.4264 329.995 33.1074C329.266 32.7428 328.902 32.1276 328.902 31.2617C328.902 30.2135 329.54 29.2109 330.816 28.2539C332.092 27.2969 333.596 26.4538 335.327 25.7246C337.059 24.9499 338.768 24.3574 340.454 23.9473C342.186 23.4915 343.508 23.2637 344.419 23.2637C344.419 24.5853 344.123 25.5195 343.53 26.0664C342.984 26.6133 342.3 27.0462 341.48 27.3652C340.659 27.6842 339.816 28.0033 338.95 28.3223C338.13 28.5957 337.446 29.1426 336.9 29.9629C337.629 30.5553 338.221 31.1022 338.677 31.6035C339.178 32.0592 339.566 32.5605 339.839 33.1074C340.112 33.6543 340.295 34.2695 340.386 34.9531C340.477 35.5911 340.523 36.3659 340.523 37.2773C340.523 39.6471 339.999 41.8118 338.95 43.7715C337.948 45.6855 336.626 47.349 334.986 48.7617C333.345 50.1289 331.476 51.1999 329.38 51.9746C327.284 52.7038 325.142 53.0684 322.954 53.0684C321.769 53.0684 320.607 52.9316 319.468 52.6582C318.374 52.3392 317.394 51.8607 316.529 51.2227C315.708 50.5846 315.047 49.7871 314.546 48.8301C314.045 47.873 313.794 46.7337 313.794 45.4121Z" fill="white"/>
</svg>
