<svg width="329" height="99" viewBox="0 0 329 99" fill="none" xmlns="http://www.w3.org/2000/svg">
<path d="M0.96875 89.2988C0.96875 86.7012 1.42448 84.377 2.33594 82.3262C3.20182 80.2754 4.36393 78.3613 5.82227 76.584C7.2806 74.8522 8.94401 73.2344 10.8125 71.7305C12.681 70.2721 14.5951 68.8366 16.5547 67.4238C18.5143 66.0566 20.4284 64.6667 22.2969 63.2539C24.1654 61.8411 25.8288 60.3372 27.2871 58.7422C28.7454 57.1471 29.9076 55.4154 30.7734 53.5469C31.6849 51.6784 32.1406 49.6048 32.1406 47.3262C32.1406 47.235 32.1406 47.0299 32.1406 46.7109C32.1406 46.3464 32.1178 46.1185 32.0723 46.0273C31.7533 46.3008 31.138 46.7109 30.2266 47.2578C29.3151 47.7591 28.3353 48.306 27.2871 48.8984C26.2845 49.4453 25.3047 49.9466 24.3477 50.4023C23.3906 50.8581 22.707 51.1543 22.2969 51.291C22.2513 51.291 22.069 51.3138 21.75 51.3594C21.4766 51.4049 21.1348 51.4505 20.7246 51.4961C20.36 51.5417 19.9954 51.5872 19.6309 51.6328C19.2663 51.6328 18.9701 51.6328 18.7422 51.6328C16.6914 51.2682 15.3242 50.5618 14.6406 49.5137C13.957 48.4199 13.7747 47.1439 14.0938 45.6855C14.4128 44.2272 15.1191 42.6777 16.2129 41.0371C17.3522 39.3509 18.6966 37.7559 20.2461 36.252C21.8411 34.7025 23.5501 33.3353 25.373 32.1504C27.2415 30.9199 29.0417 30.054 30.7734 29.5527C32.5508 29.0059 34.1686 28.8919 35.627 29.2109C37.1309 29.4844 38.293 30.373 39.1133 31.877C39.3867 33.791 39.3867 35.5911 39.1133 37.2773C38.8398 38.918 38.4753 40.5358 38.0195 42.1309C37.5638 43.7259 37.1081 45.3438 36.6523 46.9844C36.1966 48.5794 35.9232 50.334 35.832 52.248H36.4473C36.7207 51.9746 37.1764 51.4961 37.8145 50.8125C38.498 50.1289 39.2044 49.4225 39.9336 48.6934C40.7083 47.9186 41.4375 47.2122 42.1211 46.5742C42.8047 45.8906 43.2832 45.4121 43.5566 45.1387C43.6934 45.002 43.9668 44.8197 44.377 44.5918C44.8327 44.3639 45.1517 44.25 45.334 44.25V44.4551V44.5918C45.334 44.6374 45.3568 44.6602 45.4023 44.6602C45.4023 46.3008 44.9238 47.8047 43.9668 49.1719C43.0553 50.5391 41.9388 51.8151 40.6172 53C39.2956 54.1849 37.9284 55.2786 36.5156 56.2812C35.1029 57.3294 33.918 58.332 32.9609 59.2891C32.1862 60.8841 31.3431 62.8665 30.4316 65.2363C29.5202 67.6517 28.5176 70.2038 27.4238 72.8926C26.3301 75.627 25.0996 78.3841 23.7324 81.1641C22.4108 83.9896 20.9069 86.5872 19.2207 88.957C17.5801 91.3268 15.7572 93.3548 13.752 95.041C11.7467 96.7728 9.51367 97.8893 7.05273 98.3906C5.86784 98.3906 4.88802 98.0944 4.11328 97.502C3.29297 96.9095 2.65495 96.1576 2.19922 95.2461C1.74349 94.3802 1.42448 93.4004 1.24219 92.3066C1.0599 91.2585 0.96875 90.2559 0.96875 89.2988ZM4.5918 92.9902C4.95638 93.8561 5.38932 94.3802 5.89062 94.5625C6.39193 94.7448 6.96159 94.8359 7.59961 94.8359C8.78451 94.8359 10.0833 94.2207 11.4961 92.9902C12.9089 91.7598 14.3216 90.1647 15.7344 88.2051C17.1927 86.291 18.5827 84.1491 19.9043 81.7793C21.2259 79.4095 22.388 77.1081 23.3906 74.875C24.4388 72.6419 25.2591 70.5911 25.8516 68.7227C26.4896 66.8997 26.8086 65.5326 26.8086 64.6211C26.8086 64.5299 26.7858 64.3704 26.7402 64.1426C26.7402 63.9603 26.7402 63.8236 26.7402 63.7324C26.6035 63.8236 26.2845 63.9603 25.7832 64.1426C25.3275 64.3704 25.054 64.5299 24.9629 64.6211C23.0488 66.0339 20.8841 67.5833 18.4688 69.2695C16.099 71.0013 13.8887 72.8926 11.8379 74.9434C9.74154 76.9941 7.98698 79.2044 6.57422 81.5742C5.16146 83.9896 4.45508 86.5872 4.45508 89.3672C4.45508 89.5039 4.45508 89.7546 4.45508 90.1191C4.45508 90.4837 4.47786 90.8483 4.52344 91.2129C4.52344 91.5775 4.54622 91.9193 4.5918 92.2383C4.5918 92.6029 4.5918 92.8535 4.5918 92.9902ZM34.7383 32.6973C34.0091 32.6973 33.0521 32.9479 31.8672 33.4492C30.6823 33.9049 29.4062 34.543 28.0391 35.3633C26.7174 36.1836 25.373 37.1178 24.0059 38.166C22.6387 39.2142 21.3854 40.3079 20.2461 41.4473C19.1523 42.5866 18.2637 43.7259 17.5801 44.8652C16.8965 46.0046 16.5547 47.0527 16.5547 48.0098C17.5117 48.0098 18.6738 47.8275 20.041 47.4629C21.4082 47.0527 22.821 46.5286 24.2793 45.8906C25.7832 45.207 27.2643 44.4323 28.7227 43.5664C30.181 42.6549 31.4798 41.6979 32.6191 40.6953C33.804 39.6927 34.7611 38.6673 35.4902 37.6191C36.2194 36.571 36.584 35.5456 36.584 34.543C36.584 33.3125 35.9688 32.6973 34.7383 32.6973ZM44.2238 49.4453C43.4491 47.7135 43.1073 46.0273 43.1984 44.3867C43.2896 42.7005 43.6542 41.1283 44.2922 39.6699C44.9758 38.166 45.8417 36.8216 46.8898 35.6367C47.9836 34.4062 49.1457 33.3581 50.3762 32.4922C51.6066 31.5807 52.8371 30.8971 54.0676 30.4414C55.3436 29.9857 56.4602 29.8034 57.4172 29.8945C58.3742 29.9401 59.1262 30.2819 59.673 30.9199C60.2199 31.5579 60.4022 32.5378 60.2199 33.8594C60.2199 35.6367 59.6503 37.1862 58.5109 38.5078C57.4172 39.8294 56.1867 41.0143 54.8195 42.0625C53.4979 43.1107 52.2674 44.0677 51.1281 44.9336C50.0344 45.7539 49.4875 46.5286 49.4875 47.2578C49.4875 47.668 49.7154 47.987 50.1711 48.2148C50.6724 48.4427 51.2421 48.625 51.8801 48.7617C52.5181 48.8529 53.1561 48.9212 53.7941 48.9668C54.4322 49.0124 54.8879 49.0579 55.1613 49.1035C59.4452 48.1921 62.6581 47.6452 64.8 47.4629C66.9419 47.235 68.2863 47.2578 68.8332 47.5312C69.3801 47.7591 69.2661 48.1465 68.4914 48.6934C67.7622 49.1947 66.6229 49.7415 65.0734 50.334C63.524 50.8809 61.7238 51.3822 59.673 51.8379C57.6223 52.2936 55.5943 52.5671 53.5891 52.6582C51.5839 52.7038 49.7154 52.4987 47.9836 52.043C46.2974 51.5872 45.0441 50.7214 44.2238 49.4453ZM56.1867 33.8594C55.2753 33.8594 54.4094 34.11 53.5891 34.6113C52.7687 35.1126 52.0168 35.7507 51.3332 36.5254C50.6952 37.2546 50.1483 38.0749 49.6926 38.9863C49.2368 39.8522 48.8951 40.6725 48.6672 41.4473C48.7583 41.4928 48.8267 41.5156 48.8723 41.5156H49.0773C49.7154 41.5156 50.4445 41.2422 51.2648 40.6953C52.0852 40.1484 52.8599 39.4876 53.5891 38.7129C54.3182 37.8926 54.9335 37.0495 55.4348 36.1836C55.9361 35.3177 56.1867 34.543 56.1867 33.8594ZM66.2875 46.3691C66.2875 45.0475 66.5381 43.7259 67.0395 42.4043C67.5408 41.0827 68.1332 39.7839 68.8168 38.5078C69.5004 37.1862 70.184 35.8874 70.8676 34.6113C71.5967 33.3353 72.1436 32.082 72.5082 30.8516C71.6423 31.3529 70.8904 31.6491 70.2523 31.7402C69.6599 31.7858 68.9307 31.8086 68.0648 31.8086C67.9737 31.8086 67.6775 31.8086 67.1762 31.8086C66.7204 31.763 66.4242 31.7402 66.2875 31.7402C66.5609 30.7376 67.0622 29.849 67.7914 29.0742C68.5206 28.2539 69.3409 27.5703 70.2523 27.0234C71.2094 26.431 72.1892 25.9525 73.1918 25.5879C74.24 25.1777 75.1742 24.8587 75.9945 24.6309C77.3617 22.4889 78.4783 20.347 79.3441 18.2051C80.21 16.0176 81.0759 13.8984 81.9418 11.8477C82.8533 9.7513 83.9014 7.76888 85.0863 5.90039C86.3168 3.98633 87.9574 2.23177 90.0082 0.636719L90.35 3.23438L81.8051 23.2637C82.3064 23.127 82.9216 22.9902 83.6508 22.8535C84.3799 22.7168 85.1091 22.5801 85.8383 22.4434C86.613 22.3066 87.3422 22.1927 88.0258 22.1016C88.7549 21.9648 89.3702 21.8281 89.8715 21.6914C89.9171 21.6914 90.0538 21.6914 90.2816 21.6914C90.5095 21.6458 90.6918 21.623 90.8285 21.623C91.4665 21.623 91.9906 21.737 92.4008 21.9648C92.8109 22.1927 93.1527 22.694 93.4262 23.4688C90.3272 24.3802 87.5245 25.3372 85.018 26.3398C82.5115 27.3424 80.324 28.6641 78.4555 30.3047C76.6326 31.8997 75.1286 33.9505 73.9437 36.457C72.8044 38.918 72.0069 42.0853 71.5512 45.959C71.5512 46.7793 71.5967 47.5312 71.6879 48.2148C71.779 48.8984 72.3487 49.3086 73.3969 49.4453C74.4451 49.4453 75.4249 49.2402 76.3363 48.8301C77.2478 48.4199 78.1365 47.987 79.0023 47.5312C79.8682 47.0299 80.7341 46.5742 81.6 46.1641C82.5115 45.7539 83.4913 45.5488 84.5395 45.5488C84.5395 46.6426 84.0609 47.6452 83.1039 48.5566C82.1469 49.4681 80.9848 50.2656 79.6176 50.9492C78.296 51.6328 76.9288 52.1569 75.516 52.5215C74.1033 52.8861 72.9411 53.0684 72.0297 53.0684C71.1182 53.0684 70.2979 52.8861 69.5687 52.5215C68.8396 52.1569 68.2243 51.6784 67.723 51.0859C67.2673 50.4479 66.9027 49.7188 66.6293 48.8984C66.4014 48.0781 66.2875 47.235 66.2875 46.3691ZM117.866 48.5566C117.866 47.9186 117.934 47.3717 118.071 46.916C118.208 46.4147 118.458 45.7767 118.823 45.002C119.142 44.5462 119.712 43.6803 120.532 42.4043C121.398 41.1283 122.287 39.7839 123.198 38.3711C124.155 36.9583 125.044 35.6367 125.864 34.4062C126.73 33.1302 127.322 32.2415 127.641 31.7402C128.052 31.1478 128.371 30.8288 128.598 30.7832C128.826 30.7376 129.259 30.7148 129.897 30.7148C130.307 30.7148 130.74 30.7376 131.196 30.7832C131.697 30.8288 132.016 31.1478 132.153 31.7402C131.515 33.2897 130.649 34.7708 129.555 36.1836C128.507 37.5508 127.459 38.918 126.411 40.2852C125.408 41.6523 124.52 43.0651 123.745 44.5234C122.97 45.9362 122.583 47.4629 122.583 49.1035C122.765 49.1035 123.039 49.1263 123.403 49.1719C123.813 49.2174 124.246 49.263 124.702 49.3086C125.158 49.3542 125.568 49.3997 125.932 49.4453C126.343 49.4909 126.639 49.4909 126.821 49.4453C127.095 49.3997 127.55 49.3086 128.188 49.1719C128.872 48.9896 129.578 48.8073 130.307 48.625C131.082 48.4427 131.811 48.2604 132.495 48.0781C133.179 47.8958 133.657 47.7591 133.93 47.668C133.93 47.7591 133.93 47.9186 133.93 48.1465C133.976 48.3288 133.999 48.4655 133.999 48.5566C133.999 49.4681 133.566 50.2201 132.7 50.8125C131.88 51.4049 130.9 51.8835 129.761 52.248C128.667 52.5671 127.527 52.7949 126.343 52.9316C125.203 53.0228 124.315 53.0684 123.677 53.0684C122.993 53.0684 122.287 53 121.557 52.8633C120.874 52.681 120.259 52.4076 119.712 52.043C119.165 51.6784 118.709 51.2227 118.345 50.6758C118.026 50.0833 117.866 49.377 117.866 48.5566ZM137.759 8.49805C138.351 8.49805 138.898 8.52083 139.399 8.56641C139.901 8.61198 140.333 8.72591 140.698 8.9082C141.063 9.09049 141.359 9.36393 141.587 9.72852C141.815 10.0931 141.929 10.5944 141.929 11.2324C141.929 11.5059 141.929 11.8021 141.929 12.1211C141.929 12.4401 141.883 12.7591 141.792 13.0781C141.746 13.3516 141.632 13.6022 141.45 13.8301C141.268 14.0124 140.971 14.1035 140.561 14.1035C139.923 14.1035 139.399 13.8757 138.989 13.4199C138.624 12.9642 138.351 12.4401 138.169 11.8477C137.986 11.2096 137.873 10.5716 137.827 9.93359C137.781 9.29557 137.759 8.81706 137.759 8.49805ZM134.734 49.9238C134.734 49.5137 134.734 49.1947 134.734 48.9668C134.734 48.7389 134.757 48.5339 134.803 48.3516C134.894 48.1237 135.008 47.8958 135.145 47.668C135.281 47.4401 135.464 47.1439 135.691 46.7793C136.056 46.1413 136.74 45.0247 137.742 43.4297C138.745 41.8346 139.816 40.1484 140.955 38.3711C142.094 36.5938 143.165 34.9076 144.168 33.3125C145.216 31.7174 145.945 30.6009 146.355 29.9629C146.401 29.9173 146.515 29.8945 146.697 29.8945C146.925 29.8945 147.085 29.8945 147.176 29.8945C147.267 29.8945 147.426 29.8945 147.654 29.8945C147.882 29.8945 148.019 29.9173 148.064 29.9629C148.11 30.0085 148.201 30.1224 148.338 30.3047C148.52 30.487 148.702 30.6921 148.885 30.9199C149.113 31.1022 149.295 31.2845 149.432 31.4668C149.614 31.6491 149.751 31.7402 149.842 31.7402C150.252 31.7402 150.685 31.6035 151.141 31.3301C151.596 31.0566 152.052 30.7604 152.508 30.4414C153.009 30.0768 153.51 29.7578 154.012 29.4844C154.513 29.2109 155.037 29.0742 155.584 29.0742C156.176 29.0742 156.723 29.2109 157.225 29.4844C157.726 29.7578 158.159 30.0996 158.523 30.5098C158.888 30.9199 159.161 31.3757 159.344 31.877C159.572 32.3783 159.686 32.8796 159.686 33.3809C159.686 34.429 159.526 35.4316 159.207 36.3887C158.934 37.3457 158.615 38.3027 158.25 39.2598C157.885 40.1712 157.544 41.1055 157.225 42.0625C156.951 42.974 156.814 43.931 156.814 44.9336C156.814 45.9362 156.928 46.6654 157.156 47.1211C157.384 47.5312 158.022 47.7363 159.07 47.7363C160.301 47.7363 161.463 47.554 162.557 47.1895C163.696 46.8249 164.858 46.6426 166.043 46.6426C166.043 47.7363 165.701 48.6478 165.018 49.377C164.38 50.1061 163.559 50.6986 162.557 51.1543C161.6 51.5645 160.551 51.8607 159.412 52.043C158.318 52.1797 157.316 52.248 156.404 52.248C154.673 52.248 153.396 51.7695 152.576 50.8125C151.801 49.8099 151.414 48.4883 151.414 46.8477C151.414 45.7539 151.596 44.7285 151.961 43.7715C152.371 42.8145 152.804 41.8802 153.26 40.9688C153.761 40.0573 154.217 39.1458 154.627 38.2344C155.037 37.3229 155.242 36.3431 155.242 35.2949C155.242 35.0215 155.197 34.6569 155.105 34.2012C155.014 33.7454 154.718 33.5176 154.217 33.5176C152.713 33.5176 151.346 33.9961 150.115 34.9531C148.93 35.9102 147.837 37.1178 146.834 38.5762C145.877 40.0345 144.988 41.6068 144.168 43.293C143.393 44.9792 142.641 46.5514 141.912 48.0098C141.229 49.4681 140.568 50.6758 139.93 51.6328C139.292 52.5898 138.631 53.0684 137.947 53.0684C136.99 53.0684 136.215 52.7721 135.623 52.1797C135.031 51.5872 134.734 50.8353 134.734 49.9238ZM197.455 46.3691C197.455 45.0475 197.706 43.7259 198.207 42.4043C198.709 41.0827 199.301 39.7839 199.985 38.5078C200.668 37.1862 201.352 35.8874 202.036 34.6113C202.765 33.3353 203.312 32.082 203.676 30.8516C202.81 31.3529 202.058 31.6491 201.42 31.7402C200.828 31.7858 200.099 31.8086 199.233 31.8086C199.142 31.8086 198.845 31.8086 198.344 31.8086C197.888 31.763 197.592 31.7402 197.455 31.7402C197.729 30.7376 198.23 29.849 198.959 29.0742C199.689 28.2539 200.509 27.5703 201.42 27.0234C202.377 26.431 203.357 25.9525 204.36 25.5879C205.408 25.1777 206.342 24.8587 207.163 24.6309C208.53 22.4889 209.646 20.347 210.512 18.2051C211.378 16.0176 212.244 13.8984 213.11 11.8477C214.021 9.7513 215.069 7.76888 216.254 5.90039C217.485 3.98633 219.125 2.23177 221.176 0.636719L221.518 3.23438L212.973 23.2637C213.474 23.127 214.09 22.9902 214.819 22.8535C215.548 22.7168 216.277 22.5801 217.006 22.4434C217.781 22.3066 218.51 22.1927 219.194 22.1016C219.923 21.9648 220.538 21.8281 221.039 21.6914C221.085 21.6914 221.222 21.6914 221.45 21.6914C221.677 21.6458 221.86 21.623 221.996 21.623C222.635 21.623 223.159 21.737 223.569 21.9648C223.979 22.1927 224.321 22.694 224.594 23.4688C221.495 24.3802 218.692 25.3372 216.186 26.3398C213.679 27.3424 211.492 28.6641 209.623 30.3047C207.801 31.8997 206.297 33.9505 205.112 36.457C203.972 38.918 203.175 42.0853 202.719 45.959C202.719 46.7793 202.765 47.5312 202.856 48.2148C202.947 48.8984 203.517 49.3086 204.565 49.4453C205.613 49.4453 206.593 49.2402 207.504 48.8301C208.416 48.4199 209.304 47.987 210.17 47.5312C211.036 47.0299 211.902 46.5742 212.768 46.1641C213.679 45.7539 214.659 45.5488 215.707 45.5488C215.707 46.6426 215.229 47.6452 214.272 48.5566C213.315 49.4681 212.153 50.2656 210.786 50.9492C209.464 51.6328 208.097 52.1569 206.684 52.5215C205.271 52.8861 204.109 53.0684 203.198 53.0684C202.286 53.0684 201.466 52.8861 200.737 52.5215C200.008 52.1569 199.392 51.6784 198.891 51.0859C198.435 50.4479 198.071 49.7188 197.797 48.8984C197.569 48.0781 197.455 47.235 197.455 46.3691ZM215.623 47.2578C215.623 47.0755 215.623 46.7109 215.623 46.1641C215.668 45.5716 215.691 45.1842 215.691 45.002C217.149 41.6751 219.018 38.599 221.296 35.7734C223.575 32.9479 226.15 30.4414 229.021 28.2539C229.112 28.2539 229.249 28.2311 229.431 28.1855C229.659 28.0944 229.819 28.0488 229.91 28.0488C231.14 28.0488 232.143 28.3223 232.918 28.8691C233.738 29.3704 234.376 30.054 234.832 30.9199C235.333 31.7402 235.675 32.6745 235.857 33.7227C236.039 34.7253 236.13 35.7051 236.13 36.6621C236.13 38.4395 235.72 40.3079 234.9 42.2676C234.08 44.1816 232.963 45.959 231.55 47.5996C230.183 49.1947 228.611 50.5163 226.834 51.5645C225.056 52.5671 223.211 53.0684 221.296 53.0684C219.382 53.0684 217.947 52.5671 216.99 51.5645C216.078 50.5163 215.623 49.0807 215.623 47.2578ZM220.955 46.4375C220.955 46.9388 221.16 47.2806 221.57 47.4629C221.98 47.6452 222.39 47.7363 222.8 47.7363C223.94 47.7363 225.033 47.4401 226.082 46.8477C227.175 46.2096 228.132 45.4349 228.953 44.5234C229.819 43.5664 230.502 42.5182 231.004 41.3789C231.505 40.2396 231.755 39.1458 231.755 38.0977C231.755 37.5964 231.71 37.0495 231.619 36.457C231.573 35.819 231.436 35.2721 231.209 34.8164C230.981 34.3151 230.616 33.9277 230.115 33.6543C229.659 33.3809 228.998 33.3353 228.132 33.5176C227.494 33.6543 226.765 34.2467 225.945 35.2949C225.125 36.3431 224.327 37.5736 223.552 38.9863C222.823 40.3535 222.208 41.7435 221.707 43.1562C221.205 44.5234 220.955 45.6172 220.955 46.4375ZM238.37 49.582C238.37 48.8984 238.575 47.9414 238.985 46.7109C239.395 45.4349 239.919 44.0677 240.557 42.6094C241.241 41.151 241.993 39.6699 242.813 38.166C243.679 36.6621 244.545 35.2949 245.411 34.0645C246.277 32.834 247.097 31.8314 247.872 31.0566C248.647 30.2819 249.33 29.8945 249.923 29.8945C251.199 29.8945 251.837 30.5098 251.837 31.7402C251.837 32.2871 251.723 32.7428 251.495 33.1074C251.313 33.472 251.085 33.8138 250.811 34.1328C250.538 34.4518 250.242 34.7708 249.923 35.0898C249.604 35.3633 249.33 35.7051 249.102 36.1152C248.692 36.7988 248.191 37.7331 247.598 38.918C247.006 40.1029 246.414 41.265 245.821 42.4043C245.274 43.498 244.796 44.4779 244.386 45.3438C243.975 46.2096 243.77 46.6882 243.77 46.7793V47.668C245.548 47.349 247.257 46.597 248.897 45.4121C250.538 44.1816 252.087 42.7461 253.546 41.1055C255.05 39.4648 256.462 37.7559 257.784 35.9785C259.151 34.1556 260.427 32.4922 261.612 30.9883C262.797 29.4388 263.914 28.1628 264.962 27.1602C266.01 26.1576 266.99 25.6562 267.901 25.6562C267.901 27.3424 267.559 28.8691 266.876 30.2363C266.192 31.6035 265.44 32.9479 264.62 34.2695C263.845 35.5911 263.116 36.9583 262.432 38.3711C261.749 39.7383 261.407 41.2878 261.407 43.0195C261.407 43.7487 261.84 44.4095 262.706 45.002C263.617 45.5488 264.643 46.0273 265.782 46.4375C266.967 46.8021 268.106 47.0983 269.2 47.3262C270.294 47.554 271.046 47.6908 271.456 47.7363V49.5137C270.408 49.5592 269.109 49.582 267.559 49.582C266.01 49.5365 264.46 49.3542 262.911 49.0352C261.361 48.7161 259.949 48.1921 258.673 47.4629C257.442 46.6882 256.622 45.5716 256.212 44.1133C255.027 44.888 253.887 45.7995 252.794 46.8477C251.7 47.8958 250.561 48.8757 249.376 49.7871C248.236 50.6986 247.029 51.4733 245.753 52.1113C244.477 52.7493 243.087 53.0684 241.583 53.0684C240.671 53.0684 239.897 52.681 239.259 51.9062C238.666 51.1315 238.37 50.3568 238.37 49.582ZM286.957 28.2539C285.909 28.3906 284.701 29.0514 283.334 30.2363C281.967 31.3757 280.645 32.7884 279.369 34.4746C278.139 36.1152 277.09 37.9154 276.225 39.875C275.359 41.7891 274.926 43.5664 274.926 45.207C274.926 46.5286 275.268 47.4629 275.951 48.0098C276.635 48.5111 277.615 48.7617 278.891 48.7617C280.258 48.7617 281.579 48.6022 282.855 48.2832C284.177 47.9186 285.476 47.554 286.752 47.1895C288.074 46.7793 289.372 46.4147 290.648 46.0957C291.97 45.7311 293.314 45.5488 294.682 45.5488C294.682 46.1868 294.59 46.7337 294.408 47.1895C294.226 47.5996 293.952 48.0553 293.588 48.5566C291.218 49.696 288.78 50.7441 286.273 51.7012C283.767 52.6126 281.146 53.0684 278.412 53.0684C277.592 53.0684 276.726 52.9316 275.814 52.6582C274.903 52.3392 274.06 51.9062 273.285 51.3594C272.51 50.8125 271.85 50.1517 271.303 49.377C270.801 48.6022 270.551 47.7363 270.551 46.7793C270.551 44.7285 270.847 42.7461 271.439 40.832C272.032 38.8724 272.852 37.0267 273.9 35.2949C274.949 33.5632 276.202 31.9681 277.66 30.5098C279.164 29.0514 280.782 27.7754 282.514 26.6816V26.6133C283.197 26.2031 283.972 25.8158 284.838 25.4512C285.749 25.041 286.592 24.8132 287.367 24.7676C288.142 24.6764 288.78 24.8587 289.281 25.3145C289.828 25.7246 290.102 26.5221 290.102 27.707C290.102 28.2539 290.056 28.9831 289.965 29.8945C289.874 30.7604 289.623 31.3757 289.213 31.7402C288.848 31.9681 288.37 32.1732 287.777 32.3555C287.504 32.4466 287.23 32.515 286.957 32.5605V28.2539ZM316.95 53.0684C315.811 53.2507 314.763 53.0684 313.806 52.5215C312.894 51.929 312.165 51.1771 311.618 50.2656C311.071 49.3086 310.752 48.2832 310.661 47.1895C310.57 46.0501 310.798 45.0247 311.345 44.1133C313.35 41.5156 314.717 39.4648 315.446 37.9609C316.176 36.4115 316.426 35.3405 316.198 34.748C316.016 34.11 315.446 33.8594 314.489 33.9961C313.578 34.0872 312.461 34.4974 311.14 35.2266C309.818 35.9102 308.383 36.8216 306.833 37.9609C305.329 39.1003 303.917 40.3535 302.595 41.7207C301.273 43.0879 300.111 44.5234 299.109 46.0273C298.152 47.4857 297.536 48.9212 297.263 50.334C296.807 50.6074 296.42 50.8353 296.101 51.0176C295.782 51.1543 295.417 51.2227 295.007 51.2227C294.323 51.2227 293.913 50.9948 293.777 50.5391C293.64 50.0833 293.571 49.6048 293.571 49.1035C293.571 47.9642 293.913 46.8021 294.597 45.6172C295.326 44.3867 296.146 43.2474 297.058 42.1992C298.015 41.1055 298.926 40.1257 299.792 39.2598C300.658 38.3483 301.273 37.6191 301.638 37.0723C302.777 35.2038 303.917 33.1986 305.056 31.0566C306.195 28.8691 307.334 26.6589 308.474 24.4258C309.613 22.1471 310.775 19.9141 311.96 17.7266C313.191 15.4935 314.467 13.3743 315.788 11.3691C316.016 11.0046 316.198 10.7539 316.335 10.6172C316.517 10.4805 316.768 10.4121 317.087 10.4121C317.452 10.4121 317.725 10.4805 317.907 10.6172C318.09 10.7539 318.272 11.0046 318.454 11.3691C318.454 11.5514 318.409 11.8477 318.318 12.2578C318.272 12.668 318.204 13.1237 318.112 13.625C318.067 14.0807 317.976 14.5137 317.839 14.9238C317.748 15.334 317.68 15.6074 317.634 15.7441C317.361 16.291 316.905 17.248 316.267 18.6152C315.629 19.9824 314.922 21.4408 314.148 22.9902C313.418 24.5397 312.712 26.0664 312.029 27.5703C311.345 29.0286 310.844 30.1224 310.525 30.8516C311.208 30.3958 311.823 30.054 312.37 29.8262C312.917 29.5527 313.441 29.3704 313.943 29.2793C314.489 29.1426 315.036 29.0742 315.583 29.0742C316.176 29.0286 316.814 29.0059 317.497 29.0059C319.138 29.416 320.209 30.0312 320.71 30.8516C321.257 31.6719 321.417 32.6289 321.189 33.7227C321.006 34.7708 320.573 35.9329 319.89 37.209C319.206 38.485 318.477 39.7839 317.702 41.1055C316.973 42.3815 316.312 43.6348 315.72 44.8652C315.127 46.0501 314.854 47.1439 314.9 48.1465C314.9 48.5566 314.991 48.8529 315.173 49.0352C315.355 49.2174 315.583 49.3542 315.857 49.4453C316.13 49.5365 316.426 49.582 316.745 49.582C317.064 49.582 317.361 49.582 317.634 49.582C318.591 49.582 319.502 49.4453 320.368 49.1719C321.28 48.8529 322.168 48.5111 323.034 48.1465C323.9 47.7819 324.766 47.4629 325.632 47.1895C326.543 46.8704 327.478 46.7109 328.435 46.7109C328.435 47.5768 328.002 48.3971 327.136 49.1719C326.27 49.9466 325.222 50.6302 323.991 51.2227C322.806 51.7695 321.553 52.2253 320.232 52.5898C318.91 52.9089 317.816 53.0684 316.95 53.0684Z" fill="white"/>
</svg>
