<svg width="175" height="157" viewBox="0 0 175 157" fill="none" xmlns="http://www.w3.org/2000/svg">
<path d="M60.2871 21.8177C59.4553 22.1595 58.674 22.6255 57.9674 23.1655C55.6816 24.9114 54.4038 27.3109 55.1757 29.9247C55.6279 31.4533 56.0532 31.3377 57.2164 32.1788C57.2915 32.2313 57.1975 32.6627 57.4755 32.5022C57.6136 32.4203 57.1443 31.3086 57.1707 31.059C57.1924 30.8568 56.3529 30.0078 56.2478 29.7041C56.0468 29.1235 56.0994 28.5946 56.2714 28.0031C56.6822 26.5707 57.6337 25.5803 58.8537 24.6267C59.5374 24.0913 60.2475 23.5684 61.0552 23.2257C61.8636 22.8804 62.7878 22.7282 63.6093 22.9591C64.1397 23.1067 64.5992 23.4081 65.0017 23.751C66.1412 24.7208 66.8706 26.0617 67.2309 27.4792C67.7872 29.6678 67.7829 32.2547 66.2003 34.1889C64.1827 36.6577 62.7286 37.3054 59.8354 38.5454C57.7175 39.4529 55.9536 40.4201 53.9084 41.52C49.123 44.0954 43.6216 45.0985 38.8085 48.0392C36.0151 49.7436 31.5318 52.9456 29.5443 55.3927C27.71 57.6513 25.6794 60.4407 23.559 62.4362C23.422 62.5643 21.4222 63.7871 21.2925 63.8172C21.1426 63.8526 21.0236 63.8126 20.8895 63.7686C21.0651 63.1133 20.8013 62.4645 21.0475 61.7876C22.2752 58.4156 24.2688 54.2925 26.4944 51.35C27.5146 50.0025 28.9095 48.7284 29.8453 47.3935C30.9128 45.8695 31.8754 43.8097 33.0563 42.3864C33.986 41.2659 35.6214 40.1129 36.6048 38.9933C37.5767 37.8868 39.4896 35.5062 40.0916 34.2978C40.5961 33.2822 41.5427 30.0618 41.4141 28.9792C41.0909 26.2533 37.5373 28.0728 35.9792 28.6954C35.4319 28.9134 34.734 29.0479 34.2448 29.2707C32.7657 29.9414 30.6238 32.1986 29.4752 33.3901C23.612 39.4533 21.0796 46.4143 18.2875 53.8704C17.7162 55.3976 17.3826 57.0155 16.7097 58.4884C15.7956 60.4884 14.9297 62.5202 14.4309 64.6341C13.9212 66.7883 13.8211 69.0469 14.521 71.093C15.47 73.8623 18.5931 77.017 21.988 77.181C22.8254 77.2217 25.5859 75.8921 26.3921 75.4139C27.6503 74.6704 28.6811 73.5554 30.0392 73.0035C31.8919 72.2492 32.2408 72.0158 33.9307 71.0423C35.3969 70.1979 36.9847 69.7265 38.6287 68.773C38.9099 68.6107 39.2131 68.7595 39.2453 68.4277C38.5137 67.6698 37.7832 67.7144 36.7343 68.0196C34.7364 68.6 32.5321 70.0111 30.6517 70.9498C29.1235 71.7127 27.7479 72.3301 26.2459 73.1568C24.411 74.1672 22.3325 75.1392 20.1889 74.943C18.0211 74.7458 16.7106 72.7711 15.8858 71.121C15.5833 70.5159 15.3013 69.8946 15.1281 69.2404C14.384 66.4423 15.6274 63.3744 16.9928 60.8092C18.4361 58.0947 19.6089 55.0484 20.8312 52.2207C21.2231 51.3126 21.3483 50.3412 21.6925 49.4501C23.0825 45.8353 24.9631 42.5167 27.0469 39.2363C28.9123 36.2973 30.353 34.7113 33.0008 32.3303C33.9443 31.481 35.0389 30.9747 36.0974 30.2911C37.0188 29.6952 37.7206 29.143 38.887 29.0747C39.3837 29.0457 39.9379 29.1348 40.2019 29.5108C40.49 29.9175 40.3154 30.4786 40.1062 30.9466C39.3262 32.688 37.9388 33.8939 36.6136 35.3109C35.2 36.8259 33.6105 38.2315 32.3338 39.8506C31.1178 41.3942 30.1272 43.2061 28.9764 44.7888C27.63 46.6378 25.9454 48.2773 24.6798 50.1777C22.5662 53.3474 21.2864 56.8837 19.8107 60.2838C19.7938 61.3652 19.1948 63.4496 19.9796 64.2812C20.0909 64.4002 21.2583 65.2857 21.3753 65.3332C21.8267 65.5136 23.2534 65.361 23.6769 65.1314C24.2685 64.8091 27.0789 62.053 27.5481 61.4412C30.3228 57.8408 32.4387 54.723 36.3776 52.0505C39.9835 49.6021 42.9612 47.4419 47.2114 45.7956C49.3756 44.9573 52.0295 44.5095 54.0138 43.4959C55.3813 42.798 56.8592 41.7082 58.2587 40.9919C59.9142 40.1469 61.74 39.5231 63.3858 38.7242C64.7866 38.0432 67.5644 35.762 68.4414 34.5355C70.3647 31.8442 69.2623 28.1046 68.335 25.4356C67.9492 24.3246 67.47 23.1994 66.5643 22.4056C65.4597 21.437 63.8124 21.082 62.2518 21.2906C61.5819 21.3812 60.9275 21.5652 60.3022 21.8218L60.2871 21.8177Z" fill="#9F4837"/>
<path d="M72.3502 50.9105C72.8907 51.6658 73.2632 53.4918 73.2946 53.6974C73.5418 55.2549 73.577 56.8473 73.439 58.4312C73.167 61.5838 72.2283 64.7037 70.8736 67.6526C69.5884 70.4527 67.9436 73.1131 66.161 75.6827C63.9684 78.8448 61.7169 81.6318 58.4539 83.8992C54.8226 86.4218 49.514 89.0948 45.032 88.4206C39.2904 87.5575 33.7638 86.7493 28.173 85.2728C24.7847 84.3784 21.4321 83.391 17.8201 83.6739C16.9981 83.7373 16.5229 83.6559 16.2831 84.5506C15.9589 85.7605 16.647 86.1366 17.7488 86.4805C21.0911 87.5165 24.6538 88.5063 28.2028 88.9223C31.8117 89.3463 35.4581 89.7615 39.0858 90.1257C47.2689 90.9407 54.5561 89.8866 62.3368 87.1116C64.0364 86.5053 65.7733 85.5579 67.5069 84.7338C68.8411 84.0999 71.2242 83.231 72.3723 82.4851C72.9252 82.1254 72.6319 82.2521 73.3139 81.9351C74.8685 81.2144 76.7406 79.9844 78.0653 78.9724C78.3577 78.7482 79.0067 78.4332 79.2454 78.1675C79.4228 77.9692 79.2178 77.9981 79.1213 77.9452C78.3242 77.502 77.306 77.4507 76.3927 76.8872C74.7426 75.867 73.6624 74.424 74.1469 72.4846C74.6837 70.3403 77.3045 68.9273 79.4832 68.4684C81.4155 68.0622 82.8769 68.2944 84.1905 69.6729C85.0351 70.5638 85.1753 71.5225 85.5725 72.5907C85.005 73.6299 84.5458 74.7388 83.8389 75.7136C83.603 76.0394 82.1425 77.4472 82.302 77.7493C84.106 78.1544 85.7211 78.9221 87.3779 79.6145C87.8562 79.8156 88.3601 79.8507 88.8317 80.1473C88.9914 80.2468 89.0807 80.1356 88.9294 80.4382L86.3357 80.1268L81.3068 78.5902C79.4515 79.7977 77.8321 81.4358 75.9156 82.5593C73.8834 83.7518 71.0971 85.0664 68.9285 86.1629C58.8779 91.2391 49.9802 92.9098 38.8231 91.8221C32.3781 91.1946 25.9045 90.3515 19.7065 88.7421C17.7516 88.2344 15.1848 88.2463 14.5461 86.1032C14.4755 85.8627 14.2409 83.8548 14.2997 83.7463C14.786 82.8285 16.8157 82.5025 17.8048 82.4407C21.3593 82.2207 24.2119 82.6446 27.5571 83.5491C31.9147 84.7275 36.3251 85.8201 40.8626 86.3984C44.7961 86.9013 48.9506 87.4769 52.7871 85.8926C56.0944 84.5285 59.0506 82.368 61.2742 79.6951C62.0714 78.7363 62.7715 77.7163 63.4741 76.6971C66.6384 72.0962 69.8691 67.3483 71.0117 62.0761C71.3163 60.6773 71.2918 59.347 71.4252 57.9618C71.5606 56.5393 72.2097 55.4274 71.8445 53.9572C71.7152 53.4417 71.5102 52.9465 71.3981 52.4275C71.2859 51.9085 71.2758 51.3412 71.5272 50.8466C71.5574 50.7845 71.5951 50.7243 71.6503 50.6797C71.9062 50.4808 72.1445 50.6095 72.3591 50.9074L72.3502 50.9105ZM76.0377 71.9511C75.6235 72.8316 75.7918 73.887 76.3523 74.6585C76.9165 75.4364 77.7153 75.772 78.587 76.1785C79.1101 76.424 79.8768 77.0509 80.5211 76.9452C80.86 76.8902 82.3668 75.2489 82.6417 74.8985C82.9166 74.548 83.5445 73.687 83.7363 73.344C84.5469 71.8917 83.4752 70.2755 82.1662 69.5249C81.4914 69.6845 80.8125 69.4053 80.1394 69.4573C79.4663 69.5093 78.9184 69.7596 78.3485 70.0418C77.5022 70.4579 76.6306 70.9484 76.1593 71.719C76.1125 71.7929 76.0726 71.8713 76.0359 71.9479L76.0377 71.9511Z" fill="#9F4837"/>
<path d="M75.4489 15.0474C76.0745 15.939 76.4871 16.9599 76.5374 17.9216C76.5949 19.0175 76.3021 20.1304 75.8252 21.1643C75.0101 22.926 73.6281 24.5952 73.6358 26.4721C73.6386 27.0563 73.7784 27.6233 73.9464 28.1762C74.3182 29.3996 74.8367 30.6002 75.6449 31.6164C76.4979 32.6877 77.7331 33.2294 79.1204 33.6174C80.0553 33.8787 80.2294 33.5012 81.0319 34.4078C81.5425 34.9822 81.9404 35.7858 82.3574 36.3568C82.5727 36.6522 83.2009 37.0097 83.3821 37.3013C83.8307 38.0266 84.581 38.5735 84.0382 39.6113C83.6661 40.3247 82.9174 40.8102 82.1844 41.227C81.4513 41.6438 80.6755 42.0492 80.1634 42.69C79.749 43.2083 79.5447 43.8397 79.4234 44.4637C79.21 45.5627 79.2347 46.6904 79.4857 47.7599C79.6823 48.5987 79.7928 49.6684 80.2698 50.3986C81.3089 51.9953 83.5047 53.1158 85.162 54.0786C87.0199 55.1599 89.3425 55.5958 90.1008 57.817C90.5369 59.0927 90.1671 60.5335 89.5502 61.7972C88.9334 63.061 88.0732 64.2245 87.4582 65.4914C86.4327 67.6047 85.7814 70.5395 86.9048 72.5775C87.543 73.7345 88.8003 74.1336 89.9059 74.8971C90.1249 75.0477 90.9642 74.97 91.2393 74.9816C92.1224 75.0129 92.0833 74.5135 91.4277 74.0569C91.0748 73.811 90.6395 73.6917 90.2359 73.5241C89.0737 73.0425 88.14 72.1413 87.6731 71.041C87.2029 69.9425 87.2036 68.6595 87.6704 67.5122C88.3946 65.7369 90.1154 64.4367 91.0892 62.758C91.878 61.3971 92.146 59.8022 91.8275 58.3391C91.5467 57.0482 90.7949 55.7608 89.6927 54.9441C88.4755 54.0425 86.8564 53.7438 85.5335 52.9949C84.2225 52.2519 82.2986 51.4068 81.5099 50.1663C80.5159 48.6032 80.5649 46.5552 81.2013 44.805C81.4177 44.2092 81.7055 43.6191 82.1629 43.142C82.4734 42.82 82.8506 42.5617 83.2022 42.2777C84.1383 41.5264 85.5664 40.1288 85.5878 38.9297C85.6051 38.0888 84.6665 37.1457 84.1752 36.5089C83.199 35.2424 81.4909 32.9369 80.0061 32.2879C79.5656 32.0969 78.7969 32.153 78.4509 32.063C77.2006 31.7387 75.859 30.7471 75.5839 29.5253C75.3007 28.2635 74.944 27.0036 75.2878 25.6802C75.4421 25.084 75.7037 24.5112 75.9488 23.9393C76.7739 21.9992 77.4081 20.0054 78.0391 18.0133C78.4756 16.6364 77.5323 15.2166 76.674 14.1654C75.4399 12.6515 73.723 11.4675 71.7866 10.8001C70.9956 10.526 69.9254 10.1447 69.0679 10.1688C68.1618 10.1935 67.2206 10.7922 66.5265 11.3059C66.0176 11.6828 65.5422 12.0957 65.1018 12.5396C64.776 12.8683 64.463 13.2302 64.3513 13.6568C64.6957 13.8031 65.1123 13.7608 65.4797 13.6296C65.8471 13.4984 66.1723 13.283 66.5005 13.0765C67.1434 12.6733 68.0855 11.9398 68.8408 11.7828C69.2898 11.6898 69.8224 11.9 70.2552 12.0187C71.2382 12.282 72.302 12.5563 73.1943 13.0169C74.0509 13.4598 74.8437 14.1909 75.4421 15.0428L75.4489 15.0474Z" fill="#9F4837"/>
<path d="M65.0179 62.0315C67.9139 67.0919 62.6536 73.3653 59.4812 77.4723C56.6892 81.087 54.6881 84.1491 49.6639 85.1963C46.5909 85.8371 42.2092 85.0304 39.9886 83.1252C38.1785 81.5731 38.7387 80.4401 38.0421 78.5029C38.0076 78.4099 37.5225 77.7099 37.6596 77.6521C37.9157 77.664 37.9131 77.8551 38.0157 78.0068C39.3568 80.0086 40.51 82.6409 43.2186 83.6827C43.4488 83.7714 43.6835 83.8532 43.9235 83.9256C46.4088 84.6915 49.0586 84.3804 51.431 83.1683C53.8041 81.9537 55.7592 80.0814 57.4546 78.1395C58.311 77.1615 59.1104 76.1438 59.8824 75.108C60.2839 74.5673 61.8944 71.6923 62.3852 70.8081C62.9063 69.8617 63.3273 68.875 63.6796 67.8727C64.1483 66.5368 63.7819 64.1235 63.2723 62.8497C62.8046 61.6816 61.6515 60.8431 60.3567 60.4935C59.0619 60.1438 57.6399 60.2383 56.2984 60.5569C56.177 60.5865 56.0581 60.6168 55.9367 60.6464C53.9645 61.1715 52.115 62.0752 50.2765 62.9279C48.0954 63.94 45.9245 65.3574 43.6354 66.0569C43.4471 66.1145 43.2613 66.1727 43.0685 66.1967C42.9143 66.2175 42.753 66.2148 42.6206 66.1443C42.4882 66.0737 42.4008 65.926 42.4487 65.7875C42.5 65.6365 42.6804 65.5579 42.8404 65.4954C43.7321 65.1616 44.502 64.8492 45.2936 64.3347C45.8951 63.9448 46.4791 63.5096 47.1071 63.1619C47.6311 62.8701 48.1866 62.6921 48.6981 62.4266C53.2836 60.0327 61.817 56.4247 65.0217 62.0271L65.0179 62.0315Z" fill="#9F4837"/>
<path d="M89.6856 31.2888C89.5584 31.2899 89.428 31.2927 89.3007 31.2938C88.7069 31.3021 88.1137 31.308 87.5198 31.3163C87.4091 31.3164 87.2855 31.3238 87.2083 31.4003C87.0062 31.6001 87.3789 31.8324 87.66 31.8618C88.599 31.9567 89.6378 31.9514 90.5477 32.1547C91.1543 32.2902 91.7014 32.5773 92.3213 32.7137C93.0427 32.8745 93.7784 33.0933 94.2315 33.6604C94.8923 34.4912 94.6607 35.688 94.3509 36.7234C93.7896 38.5963 93.0663 40.4286 92.3513 42.2604C91.7295 43.8551 90.762 45.6813 90.4716 47.3297C89.9937 50.0409 92.997 52.8257 95.4973 53.4957C95.7166 53.5544 96.0304 53.5629 96.1123 53.3579C96.1764 53.1995 96.0416 53.0472 95.9072 52.9437C95.3398 52.5107 94.6267 52.2683 94.0302 51.8734C92.9197 51.1383 92.2841 49.9009 92.1189 48.6221C91.9131 47.0109 92.502 45.6397 92.9468 44.111C93.4372 42.4217 93.9207 40.7386 94.6343 39.1036C95.1596 37.8991 95.7578 36.6952 95.9286 35.4226C96.0994 34.1501 95.7638 32.7608 94.7024 32.0036C93.7662 31.3341 92.469 31.2755 91.2537 31.2741C90.7296 31.2741 90.2067 31.2799 89.6813 31.285L89.6856 31.2888Z" fill="#9F4837"/>
<path d="M98.7688 67.3984C99.7605 68.2747 103.358 69.5682 104.771 69.828C109.082 70.6183 113.3 71.3001 117.325 72.9242C118.607 73.4408 119.777 74.1054 121.024 74.6555C122.847 75.4603 124.51 75.8409 125.973 77.2137C129.874 80.8738 132.424 85.2094 128.823 90.3714C125.393 95.2899 121.065 99.0281 117.122 103.563C114.186 106.94 113.022 108.783 109.158 111.527C108.941 111.683 107.708 112.282 107.788 112.476C107.956 112.456 108.097 112.432 108.27 112.473C114.351 113.886 120.164 116.035 125.699 118.637C128.47 119.938 131.174 121.349 133.833 122.829C135.001 123.479 136.323 123.788 137.444 124.517C138.617 125.28 139.564 126.304 140.428 127.351C142.403 129.75 144.15 132.487 144.617 135.573C144.944 137.73 143.97 140.114 142.531 141.695C141.409 142.926 139.358 145.199 137.766 143.325C137.113 142.555 136.948 141.498 136.814 140.498C136.554 138.534 136.323 136.552 135.688 134.677C135.053 132.802 133.971 131.016 132.331 129.906C128.413 127.26 122.3 127.138 117.759 127.307C112.807 127.49 107.913 128.302 102.983 128.756C94.0815 129.574 83.3123 129.993 74.5538 128.956C64.4757 127.763 60.875 120.644 65.7672 112.136C67.1625 109.711 69.7358 105.743 71.6461 103.705C73.1975 102.048 75.3123 100.951 77.2219 99.6717C83.0923 95.7392 85.385 92.1933 92.8989 90.6462C93.4222 90.5379 94.1508 90.1982 94.571 90.354C94.2066 90.6049 93.8144 90.8186 93.4463 91.063C91.7409 92.2053 89.7826 93.0313 88.0571 94.2384C84.5664 96.6799 80.029 99.7512 76.457 102.063C73.0417 104.273 71.7991 104.697 69.4922 108.255C68.4389 109.877 67.1037 112.188 66.3293 113.899C61.8985 123.69 67.0997 127.064 77.1005 127.507C85.3102 127.87 95.2086 127.737 103.467 127.062C110.134 126.517 116.915 125.244 123.563 125.99C128.935 126.592 134.514 127.677 136.738 132.614C137.259 133.774 137.639 135.038 138.165 136.262C138.828 137.809 138.428 139.153 138.455 140.675C138.513 144.187 141.63 140.257 142.251 138.929C142.917 137.503 143.088 135.825 142.586 134.332C142.305 133.495 141.827 132.737 141.354 131.992C140.219 130.199 139.217 127.97 137.886 126.343C136.628 124.807 133.907 124.094 132.168 123.174C128.811 121.399 125.513 119.459 122.017 117.99C118.497 116.51 113.683 114.796 109.831 114.36C109.259 114.296 108.495 114.408 107.994 114.349C107.318 114.271 106.421 113.898 105.711 113.878C105.601 113.875 105.553 114.084 105.463 114.068C105.372 114.052 105.268 113.908 105.145 113.894C104.725 113.849 102.635 114.904 102.051 115.115C100.552 115.659 98.9957 116.104 97.4892 116.635C96.2725 117.062 95.5771 117.46 94.3014 117.704C92.2453 118.098 89.1859 118.416 87.8455 116.714C87.6521 116.468 87.7832 116.09 87.2895 115.976C87.3695 115.698 87.5792 115.46 87.8171 115.278C89.1093 114.276 92.0562 113.309 93.6637 112.946C97.5476 112.071 100.508 112.214 104.343 111.985C104.908 111.953 105.505 112.094 106.078 112.004C108.533 110.685 111.134 108.923 113.023 106.933C114.374 105.512 115.492 103.851 116.804 102.381C120.809 97.9086 125.65 93.8543 128.537 88.6468C129.515 86.8827 129.602 85.2961 128.566 83.5786C127.228 81.3616 125.264 79.1848 122.769 78.0516C119.236 76.4458 114.939 74.9621 111.118 74.0085C106.904 72.9578 99.344 71.9964 97.5773 67.9031C97.489 67.6984 97.1955 67.5739 97.203 67.3139C97.2172 66.8476 97.6942 66.4486 97.7986 65.9985C98.6348 66.1442 98.213 66.9118 98.7675 67.4035L98.7688 67.3984ZM94.495 113.987C93.7856 114.205 93.0833 114.446 92.3805 114.69C92.2582 114.733 90.0894 115.841 90.5715 116.078C92.6493 117.105 95.4108 116.659 97.4259 115.51C98.0509 115.154 98.9322 114.99 99.6115 114.753C100.684 114.379 101.574 113.934 102.696 113.667C101.011 113.018 99.0764 113 97.2312 113.313C96.3031 113.47 95.3959 113.71 94.4975 113.988L94.495 113.987Z" fill="#9F4837"/>
<path d="M71.9672 89.884C67.2716 92.0134 62.6235 94.6309 58.722 97.9402C54.2856 101.703 48.6897 108.17 46.6068 113.353C45.4395 116.257 45.1603 118.56 45.5747 121.54C46.0209 124.744 47.2856 127.333 49.812 129.499C55.8943 134.716 62.8757 133.966 70.6556 132.898C73.5416 132.502 76.2097 132.415 79.0976 131.981C79.3851 131.936 79.6637 132.116 79.9338 131.935C79.5697 131.57 78.9255 131.524 78.3909 131.473C72.7113 130.913 65.5753 132.874 59.7862 132.239C52.4701 131.435 47.301 127.135 47.0811 120.112C46.9774 116.799 49.9007 110.305 51.9541 107.44C53.2822 105.589 54.7928 103.873 56.1358 102.037C58.5989 98.6717 62.1954 96.2992 66.0619 94.3907C67.8113 93.5276 70.0261 92.6218 71.5923 91.4746C72.3082 90.9506 72.9984 90.3305 73.4168 89.5754C73.3287 89.4303 72.1586 89.7948 71.9679 89.8815L71.9672 89.884Z" fill="#9F4837"/>
<path d="M144.161 121.214C145.291 121.998 146.505 122.658 147.878 122.999C148.891 123.252 150.076 123.294 150.96 122.699C149.95 122.474 148.948 122.222 147.96 121.938C145.631 121.273 144.867 119.024 143.074 117.66C135.908 112.212 126.289 110.585 117.016 110.813C116.764 110.818 115.335 110.959 115.266 111.154C115.579 111.792 116.638 111.954 117.357 112.052C120.076 112.43 123.085 112.25 125.869 112.639C131.797 113.469 137.459 115.831 141.864 119.435C142.609 120.042 143.365 120.658 144.164 121.213L144.161 121.214Z" fill="#9F4837"/>
</svg>
