<svg width="151" height="16" viewBox="0 0 151 16" fill="none" xmlns="http://www.w3.org/2000/svg">
<path d="M9.79805 15.0195C9.55065 15.0195 9.32279 14.974 9.11446 14.8828C8.91914 14.7917 8.75638 14.6615 8.62617 14.4922C8.49597 14.3229 8.40482 14.1341 8.35274 13.9258C8.30065 13.7044 8.30716 13.4701 8.37227 13.2227C8.37227 12.806 8.44388 12.4219 8.58711 12.0703C8.74336 11.7057 8.91263 11.3607 9.09492 11.0352C9.29024 10.6966 9.45951 10.3646 9.60274 10.0391C9.75899 9.70052 9.83711 9.34245 9.83711 8.96484C9.55065 8.96484 9.24466 9.05599 8.91914 9.23828C8.59362 9.42057 8.26159 9.66146 7.92305 9.96094C7.59753 10.2604 7.27201 10.599 6.94649 10.9766C6.63399 11.3411 6.33451 11.7122 6.04805 12.0898C5.77461 12.4544 5.53373 12.806 5.32539 13.1445C5.13008 13.4831 4.98034 13.763 4.87617 13.9844C4.85013 13.9974 4.78503 14.0104 4.68086 14.0234C4.5767 14.0234 4.51159 14.0234 4.48555 14.0234C4.27722 14.1276 4.14701 14.1276 4.09492 14.0234C4.05586 13.9062 4.05586 13.7305 4.09492 13.4961C4.14701 13.2617 4.22513 13.0013 4.3293 12.7148C4.43347 12.4154 4.53112 12.1354 4.62227 11.875C4.72644 11.6016 4.80456 11.3802 4.85664 11.2109C4.90873 11.0286 4.91524 10.9375 4.87617 10.9375C4.91524 10.8854 4.96081 10.8008 5.01289 10.6836C5.06498 10.5664 5.11706 10.4427 5.16914 10.3125C5.22123 10.1823 5.2668 10.0651 5.30586 9.96094C5.34492 9.84375 5.36446 9.7526 5.36446 9.6875C5.36446 9.57031 5.31888 9.4987 5.22774 9.47266C5.14961 9.43359 5.07149 9.41406 4.99336 9.41406C4.75899 9.28385 4.50508 9.36198 4.23164 9.64844C3.97123 9.92188 3.68477 10.319 3.37227 10.8398C3.07279 11.3477 2.74076 11.9336 2.37617 12.5977C2.02461 13.2487 1.63399 13.8802 1.2043 14.4922C0.904821 14.4922 0.676956 14.4531 0.520706 14.375C0.364456 14.2969 0.286331 14.1016 0.286331 13.7891C0.390498 13.6458 0.546748 13.3789 0.755081 12.9883C0.963415 12.5846 1.19779 12.1419 1.45821 11.6602C1.71862 11.1784 1.99206 10.6901 2.27852 10.1953C2.578 9.70052 2.85795 9.28385 3.11836 8.94531C3.3918 8.59375 3.63269 8.35938 3.84102 8.24219C4.06237 8.11198 4.23815 8.17057 4.36836 8.41797C4.58972 8.27474 4.8306 8.15104 5.09102 8.04688C5.36446 7.94271 5.63789 7.89062 5.91133 7.89062C6.09362 7.89062 6.24336 7.94922 6.36055 8.06641C6.49076 8.17057 6.58841 8.30729 6.65352 8.47656C6.73164 8.63281 6.79024 8.80208 6.8293 8.98438C6.86836 9.15365 6.88789 9.30339 6.88789 9.43359C7.03112 9.34245 7.2655 9.1862 7.59102 8.96484C7.92956 8.73047 8.28763 8.49609 8.66524 8.26172C9.05586 8.02734 9.43347 7.82552 9.79805 7.65625C10.1757 7.47396 10.4816 7.38281 10.716 7.38281C10.9244 7.38281 11.1001 7.46094 11.2434 7.61719C11.3996 7.76042 11.4777 7.94271 11.4777 8.16406C11.009 9.3099 10.6379 10.2279 10.3645 10.918C10.104 11.6081 9.92826 12.1484 9.83711 12.5391C9.75899 12.9167 9.75899 13.1901 9.83711 13.3594C9.92826 13.5156 10.0845 13.6393 10.3059 13.7305C10.6574 13.7305 10.996 13.6719 11.3215 13.5547C11.647 13.4375 11.966 13.3073 12.2785 13.1641C12.604 13.0208 12.9296 12.8906 13.2551 12.7734C13.5806 12.6562 13.9257 12.5977 14.2902 12.5977C14.2902 12.7409 14.2512 12.8776 14.173 13.0078C14.1079 13.125 14.0038 13.2161 13.8605 13.2812C13.7564 13.3464 13.5676 13.4505 13.2941 13.5938C13.0337 13.724 12.7473 13.8672 12.4348 14.0234C12.1223 14.1667 11.8228 14.3099 11.5363 14.4531C11.2629 14.5964 11.0676 14.694 10.9504 14.7461C10.69 14.8633 10.4882 14.9414 10.3449 14.9805C10.2147 15.0065 10.0324 15.0195 9.79805 15.0195ZM13.6605 13.7305C13.7777 12.9883 13.9991 12.3047 14.3246 11.6797C14.6501 11.0547 15.0212 10.5143 15.4379 10.0586C15.8676 9.58984 16.3298 9.20573 16.8246 8.90625C17.3194 8.60677 17.8012 8.41797 18.2699 8.33984C18.7387 8.2487 19.1684 8.26823 19.559 8.39844C19.9626 8.52865 20.2882 8.78906 20.5355 9.17969C20.5355 9.47917 20.4639 9.76562 20.3207 10.0391C20.1905 10.3125 20.0408 10.5859 19.8715 10.8594C19.7152 11.1328 19.5655 11.4128 19.4223 11.6992C19.2921 11.9857 19.227 12.2917 19.227 12.6172C19.227 12.9557 19.2986 13.2292 19.4418 13.4375C19.598 13.6328 19.865 13.7305 20.2426 13.7305C20.5551 13.7305 20.8546 13.6849 21.141 13.5938C21.4405 13.5026 21.74 13.457 22.0395 13.457C22.0915 13.457 22.1762 13.4635 22.2934 13.4766C22.4236 13.4766 22.5082 13.4766 22.5473 13.4766C22.391 13.6979 22.1892 13.8867 21.9418 14.043C21.6944 14.1992 21.434 14.3359 21.1605 14.4531C20.8871 14.5573 20.6007 14.6354 20.3012 14.6875C20.0147 14.7396 19.7478 14.7656 19.5004 14.7656C19.266 14.7656 19.0577 14.7135 18.8754 14.6094C18.6931 14.5052 18.5369 14.3685 18.4066 14.1992C18.2764 14.0299 18.1723 13.8411 18.0941 13.6328C18.029 13.4115 17.9965 13.1966 17.9965 12.9883C17.8012 13.2096 17.5863 13.444 17.352 13.6914C17.1306 13.9258 16.8897 14.1406 16.6293 14.3359C16.3819 14.5312 16.1085 14.694 15.809 14.8242C15.5225 14.9544 15.223 15.0195 14.9105 15.0195C14.572 15.0195 14.279 14.8958 14.0316 14.6484C13.7842 14.388 13.6605 14.082 13.6605 13.7305ZM14.9496 13.125C14.9496 13.2292 14.9496 13.3464 14.9496 13.4766C14.9626 13.6068 15.0473 13.6914 15.2035 13.7305C15.529 13.6523 15.9001 13.4831 16.3168 13.2227C16.7335 12.9492 17.1241 12.6367 17.4887 12.2852C17.8533 11.9206 18.1592 11.5365 18.4066 11.1328C18.654 10.7161 18.7777 10.319 18.7777 9.94141C18.7777 9.91536 18.7712 9.8763 18.7582 9.82422C18.7582 9.75911 18.7582 9.71354 18.7582 9.6875C18.3155 9.6875 17.8663 9.77865 17.4105 9.96094C16.9548 10.1432 16.5447 10.3971 16.1801 10.7227C15.8155 11.0352 15.516 11.3997 15.2816 11.8164C15.0603 12.2331 14.9496 12.6693 14.9496 13.125ZM24.4762 12.2266C24.3199 12.4349 24.1897 12.6693 24.0856 12.9297C23.9814 13.1901 23.8642 13.4375 23.734 13.6719C23.6038 13.9062 23.4475 14.1016 23.2652 14.2578C23.0829 14.4141 22.8421 14.4922 22.5426 14.4922C22.2952 14.4922 22.1259 14.4531 22.0348 14.375C21.9436 14.2839 21.8981 14.1081 21.8981 13.8477C21.8981 13.5352 21.9827 13.1901 22.152 12.8125C22.3342 12.4349 22.5491 12.0703 22.7965 11.7188C23.0439 11.3542 23.2978 11.0156 23.5582 10.7031C23.8186 10.3906 24.0335 10.1367 24.2027 9.94141L27.816 2.12891C27.9072 1.90755 28.0699 1.69922 28.3043 1.50391C28.5517 1.30859 28.8056 1.21094 29.066 1.21094V1.85547L26.9957 6.64062V7.10938C27.2171 7.10938 27.4254 7.07682 27.6207 7.01172C27.816 6.93359 28.0113 6.84896 28.2066 6.75781C28.402 6.66667 28.6038 6.58854 28.8121 6.52344C29.0335 6.44531 29.2744 6.40625 29.5348 6.40625C29.7691 6.5625 29.8928 6.75781 29.9059 6.99219C29.9189 7.21354 29.8603 7.46094 29.7301 7.73438C29.5999 7.99479 29.4176 8.26172 29.1832 8.53516C28.9619 8.80859 28.7275 9.07552 28.4801 9.33594C28.2327 9.58333 27.9918 9.80469 27.7574 10C27.5361 10.1953 27.3668 10.3451 27.2496 10.4492C27.0543 10.6055 26.872 10.7161 26.7027 10.7812C26.5465 10.8333 26.4098 10.8854 26.2926 10.9375C26.1754 10.9896 26.0842 11.0677 26.0191 11.1719C25.9671 11.276 25.941 11.4518 25.941 11.6992C25.941 12.0638 26.0387 12.3633 26.234 12.5977C26.4293 12.819 26.6832 12.9948 26.9957 13.125C27.3212 13.2552 27.6793 13.3464 28.0699 13.3984C28.4736 13.4375 28.8772 13.457 29.2809 13.457C29.6845 13.457 30.0686 13.444 30.4332 13.418C30.7978 13.3789 31.1103 13.3398 31.3707 13.3008L31.6051 13.5352C31.4619 13.7305 31.2405 13.9193 30.941 14.1016C30.6546 14.2708 30.3356 14.4271 29.984 14.5703C29.6454 14.7005 29.3069 14.8112 28.9684 14.9023C28.6298 14.9805 28.3499 15.0195 28.1285 15.0195C27.7119 15.0195 27.3082 14.9544 26.9176 14.8242C26.527 14.681 26.1689 14.4857 25.8434 14.2383C25.5178 13.9909 25.2314 13.6979 24.984 13.3594C24.7496 13.0078 24.5803 12.6302 24.4762 12.2266ZM28.3238 7.83203C28.2066 7.83203 28.0309 7.8776 27.7965 7.96875C27.5621 8.0599 27.3277 8.17708 27.0934 8.32031C26.859 8.46354 26.6572 8.61979 26.4879 8.78906C26.3186 8.95833 26.234 9.1276 26.234 9.29688V9.43359C26.3251 9.39453 26.4814 9.32943 26.7027 9.23828C26.9371 9.14714 27.1715 9.03646 27.4059 8.90625C27.6533 8.76302 27.8681 8.60026 28.0504 8.41797C28.2327 8.23568 28.3238 8.04036 28.3238 7.83203ZM31.0145 13.9844C30.7931 13.4896 30.6954 13.0078 30.7215 12.5391C30.7475 12.0573 30.8517 11.6081 31.034 11.1914C31.2293 10.7617 31.4767 10.3776 31.7762 10.0391C32.0887 9.6875 32.4207 9.38802 32.7723 9.14062C33.1238 8.88021 33.4754 8.6849 33.827 8.55469C34.1915 8.42448 34.5106 8.3724 34.784 8.39844C35.0574 8.41146 35.2723 8.50911 35.4285 8.69141C35.5848 8.8737 35.6369 9.15365 35.5848 9.53125C35.5848 10.0391 35.422 10.4818 35.0965 10.8594C34.784 11.237 34.4324 11.5755 34.0418 11.875C33.6642 12.1745 33.3126 12.4479 32.9871 12.6953C32.6746 12.9297 32.5184 13.151 32.5184 13.3594C32.5184 13.4766 32.5835 13.5677 32.7137 13.6328C32.8569 13.6979 33.0197 13.75 33.202 13.7891C33.3842 13.8151 33.5665 13.8346 33.7488 13.8477C33.9311 13.8607 34.0613 13.8737 34.1395 13.8867C35.3634 13.6263 36.2814 13.4701 36.8934 13.418C37.5053 13.3529 37.8895 13.3594 38.0457 13.4375C38.202 13.5026 38.1694 13.6133 37.9481 13.7695C37.7397 13.9128 37.4142 14.069 36.9715 14.2383C36.5288 14.3945 36.0145 14.5378 35.4285 14.668C34.8426 14.7982 34.2632 14.8763 33.6902 14.9023C33.1173 14.9154 32.5835 14.8568 32.0887 14.7266C31.6069 14.5964 31.2488 14.349 31.0145 13.9844ZM34.4324 9.53125C34.172 9.53125 33.9246 9.60286 33.6902 9.74609C33.4559 9.88932 33.241 10.0716 33.0457 10.293C32.8634 10.5013 32.7072 10.7357 32.577 10.9961C32.4467 11.2435 32.3491 11.4779 32.284 11.6992C32.31 11.7122 32.3296 11.7188 32.3426 11.7188H32.4012C32.5835 11.7188 32.7918 11.6406 33.0262 11.4844C33.2606 11.3281 33.4819 11.1393 33.6902 10.918C33.8986 10.6836 34.0744 10.4427 34.2176 10.1953C34.3608 9.94792 34.4324 9.72656 34.4324 9.53125ZM47.3527 13.7305C47.4699 12.9883 47.6913 12.3047 48.0168 11.6797C48.3423 11.0547 48.7134 10.5143 49.1301 10.0586C49.5598 9.58984 50.022 9.20573 50.5168 8.90625C51.0116 8.60677 51.4934 8.41797 51.9621 8.33984C52.4309 8.2487 52.8605 8.26823 53.2512 8.39844C53.6548 8.52865 53.9803 8.78906 54.2277 9.17969C54.2277 9.47917 54.1561 9.76562 54.0129 10.0391C53.8827 10.3125 53.7329 10.5859 53.5637 10.8594C53.4074 11.1328 53.2577 11.4128 53.1145 11.6992C52.9842 11.9857 52.9191 12.2917 52.9191 12.6172C52.9191 12.9557 52.9908 13.2292 53.134 13.4375C53.2902 13.6328 53.5572 13.7305 53.9348 13.7305C54.2473 13.7305 54.5467 13.6849 54.8332 13.5938C55.1327 13.5026 55.4322 13.457 55.7316 13.457C55.7837 13.457 55.8684 13.4635 55.9855 13.4766C56.1158 13.4766 56.2004 13.4766 56.2395 13.4766C56.0832 13.6979 55.8814 13.8867 55.634 14.043C55.3866 14.1992 55.1262 14.3359 54.8527 14.4531C54.5793 14.5573 54.2928 14.6354 53.9934 14.6875C53.7069 14.7396 53.44 14.7656 53.1926 14.7656C52.9582 14.7656 52.7499 14.7135 52.5676 14.6094C52.3853 14.5052 52.229 14.3685 52.0988 14.1992C51.9686 14.0299 51.8645 13.8411 51.7863 13.6328C51.7212 13.4115 51.6887 13.1966 51.6887 12.9883C51.4934 13.2096 51.2785 13.444 51.0441 13.6914C50.8228 13.9258 50.5819 14.1406 50.3215 14.3359C50.0741 14.5312 49.8007 14.694 49.5012 14.8242C49.2147 14.9544 48.9152 15.0195 48.6027 15.0195C48.2642 15.0195 47.9712 14.8958 47.7238 14.6484C47.4764 14.388 47.3527 14.082 47.3527 13.7305ZM48.6418 13.125C48.6418 13.2292 48.6418 13.3464 48.6418 13.4766C48.6548 13.6068 48.7395 13.6914 48.8957 13.7305C49.2212 13.6523 49.5923 13.4831 50.009 13.2227C50.4257 12.9492 50.8163 12.6367 51.1809 12.2852C51.5454 11.9206 51.8514 11.5365 52.0988 11.1328C52.3462 10.7161 52.4699 10.319 52.4699 9.94141C52.4699 9.91536 52.4634 9.8763 52.4504 9.82422C52.4504 9.75911 52.4504 9.71354 52.4504 9.6875C52.0077 9.6875 51.5585 9.77865 51.1027 9.96094C50.647 10.1432 50.2369 10.3971 49.8723 10.7227C49.5077 11.0352 49.2082 11.3997 48.9738 11.8164C48.7525 12.2331 48.6418 12.6693 48.6418 13.125ZM69.5699 13.4961C69.5699 13.1055 69.648 12.7474 69.8043 12.4219C69.9736 12.0833 70.1559 11.7643 70.3512 11.4648C70.5465 11.1654 70.7223 10.8659 70.8785 10.5664C71.0478 10.2669 71.1324 9.94792 71.1324 9.60938C71.1324 9.53125 71.1259 9.4401 71.1129 9.33594C71.1129 9.21875 71.0999 9.10807 71.0738 9.00391C71.0608 8.89974 71.0217 8.8151 70.9566 8.75C70.9046 8.67188 70.8329 8.63281 70.7418 8.63281C70.7288 8.63281 70.7027 8.63932 70.6637 8.65234C70.6376 8.65234 70.6246 8.65885 70.6246 8.67188C70.4423 8.91927 70.221 9.19922 69.9605 9.51172C69.7132 9.8112 69.4462 10.1107 69.1598 10.4102C68.8733 10.7096 68.5934 10.9961 68.3199 11.2695C68.0465 11.543 67.7991 11.7708 67.5777 11.9531C67.4215 12.0964 67.2066 12.2917 66.9332 12.5391C66.6728 12.7865 66.4059 13.0339 66.1324 13.2812C65.872 13.5156 65.6376 13.724 65.4293 13.9062C65.234 14.0885 65.1233 14.1797 65.0973 14.1797L64.1988 13.418C64.316 13.418 64.4332 13.3919 64.5504 13.3398C64.6546 13.2878 64.7587 13.2292 64.8629 13.1641C65.6441 12.6432 66.3473 12.0443 66.9723 11.3672C67.6103 10.6901 68.2353 9.96094 68.8473 9.17969C68.8733 9.14062 68.9384 9.02995 69.0426 8.84766C69.1598 8.65234 69.2835 8.4375 69.4137 8.20312C69.5439 7.95573 69.6741 7.71484 69.8043 7.48047C69.9345 7.23307 70.0322 7.03776 70.0973 6.89453C70.1754 6.72526 70.221 6.58854 70.234 6.48438C70.26 6.38021 70.2796 6.30208 70.2926 6.25C70.3186 6.1849 70.3577 6.13932 70.4098 6.11328C70.4619 6.08724 70.5725 6.07422 70.7418 6.07422C70.7678 6.07422 70.8264 6.08073 70.9176 6.09375C71.0217 6.10677 71.0869 6.11979 71.1129 6.13281C71.2822 6.48438 71.4319 6.79688 71.5621 7.07031C71.6923 7.34375 71.803 7.60417 71.8941 7.85156C71.9853 8.08594 72.0504 8.32682 72.0895 8.57422C72.1415 8.82161 72.1676 9.09505 72.1676 9.39453C71.9983 9.82422 71.8095 10.2669 71.6012 10.7227C71.3928 11.1654 71.2171 11.5885 71.0738 11.9922C70.9306 12.3958 70.8395 12.7604 70.8004 13.0859C70.7744 13.4115 70.846 13.6719 71.0152 13.8672C71.1975 14.0495 71.497 14.1471 71.9137 14.1602C72.3434 14.1732 72.9488 14.0625 73.7301 13.8281C73.9384 13.9323 73.9579 14.0625 73.7887 14.2188C73.6194 14.362 73.359 14.4987 73.0074 14.6289C72.6689 14.7591 72.2913 14.8698 71.8746 14.9609C71.471 15.0391 71.1324 15.0586 70.859 15.0195C70.6116 15.0195 70.4033 14.9805 70.234 14.9023C70.0777 14.8112 69.9475 14.694 69.8434 14.5508C69.7522 14.4076 69.6806 14.2448 69.6285 14.0625C69.5895 13.8802 69.5699 13.6914 69.5699 13.4961ZM72.7488 13.9844C72.5275 13.4896 72.4298 13.0078 72.4559 12.5391C72.4819 12.0573 72.5861 11.6081 72.7684 11.1914C72.9637 10.7617 73.2111 10.3776 73.5106 10.0391C73.8231 9.6875 74.1551 9.38802 74.5066 9.14062C74.8582 8.88021 75.2098 8.6849 75.5613 8.55469C75.9259 8.42448 76.2449 8.3724 76.5184 8.39844C76.7918 8.41146 77.0066 8.50911 77.1629 8.69141C77.3191 8.8737 77.3712 9.15365 77.3191 9.53125C77.3191 10.0391 77.1564 10.4818 76.8309 10.8594C76.5184 11.237 76.1668 11.5755 75.7762 11.875C75.3986 12.1745 75.047 12.4479 74.7215 12.6953C74.409 12.9297 74.2527 13.151 74.2527 13.3594C74.2527 13.4766 74.3178 13.5677 74.4481 13.6328C74.5913 13.6979 74.754 13.75 74.9363 13.7891C75.1186 13.8151 75.3009 13.8346 75.4832 13.8477C75.6655 13.8607 75.7957 13.8737 75.8738 13.8867C77.0978 13.6263 78.0158 13.4701 78.6277 13.418C79.2397 13.3529 79.6238 13.3594 79.7801 13.4375C79.9363 13.5026 79.9038 13.6133 79.6824 13.7695C79.4741 13.9128 79.1486 14.069 78.7059 14.2383C78.2632 14.3945 77.7488 14.5378 77.1629 14.668C76.577 14.7982 75.9975 14.8763 75.4246 14.9023C74.8517 14.9154 74.3178 14.8568 73.8231 14.7266C73.3413 14.5964 72.9832 14.349 72.7488 13.9844ZM76.1668 9.53125C75.9064 9.53125 75.659 9.60286 75.4246 9.74609C75.1902 9.88932 74.9754 10.0716 74.7801 10.293C74.5978 10.5013 74.4415 10.7357 74.3113 10.9961C74.1811 11.2435 74.0835 11.4779 74.0184 11.6992C74.0444 11.7122 74.0639 11.7188 74.077 11.7188H74.1356C74.3178 11.7188 74.5262 11.6406 74.7606 11.4844C74.9949 11.3281 75.2163 11.1393 75.4246 10.918C75.6329 10.6836 75.8087 10.4427 75.952 10.1953C76.0952 9.94792 76.1668 9.72656 76.1668 9.53125ZM79.1699 12.832C79.1699 12.5846 79.2025 12.3698 79.2676 12.1875C79.3457 12.0052 79.5345 11.9141 79.834 11.9141C79.86 11.9141 79.9186 11.9206 80.0098 11.9336C80.1139 11.9336 80.1855 11.9401 80.2246 11.9531C80.2116 12.5651 80.3092 13.0273 80.5176 13.3398C80.7259 13.6393 81.1165 13.7891 81.6895 13.7891C82.1582 13.7891 82.6204 13.7174 83.0762 13.5742C83.5319 13.431 83.9421 13.2227 84.3066 12.9492C84.6842 12.6628 84.9837 12.3177 85.2051 11.9141C85.4395 11.5104 85.5566 11.0547 85.5566 10.5469C85.5566 10.2344 85.446 10.013 85.2246 9.88281C85.0163 9.7526 84.7819 9.64844 84.5215 9.57031C84.2611 9.49219 84.0202 9.40755 83.7988 9.31641C83.5905 9.21224 83.4863 9.03646 83.4863 8.78906C83.4863 8.48958 83.6686 8.20312 84.0332 7.92969C84.3978 7.65625 84.8275 7.41536 85.3223 7.20703C85.8171 6.98568 86.3053 6.81641 86.7871 6.69922C87.2819 6.56901 87.6595 6.50391 87.9199 6.50391C87.9199 6.88151 87.8353 7.14844 87.666 7.30469C87.5098 7.46094 87.3145 7.58464 87.0801 7.67578C86.8457 7.76693 86.6048 7.85807 86.3574 7.94922C86.123 8.02734 85.9277 8.18359 85.7715 8.41797C85.9798 8.58724 86.1491 8.74349 86.2793 8.88672C86.4225 9.01693 86.5332 9.16016 86.6113 9.31641C86.6895 9.47266 86.7415 9.64844 86.7676 9.84375C86.7936 10.026 86.8066 10.2474 86.8066 10.5078C86.8066 11.1849 86.6569 11.8034 86.3574 12.3633C86.071 12.9102 85.6934 13.3854 85.2246 13.7891C84.7559 14.1797 84.222 14.4857 83.623 14.707C83.0241 14.9154 82.4121 15.0195 81.7871 15.0195C81.4486 15.0195 81.1165 14.9805 80.791 14.9023C80.4785 14.8112 80.1986 14.6745 79.9512 14.4922C79.7168 14.3099 79.528 14.082 79.3848 13.8086C79.2415 13.5352 79.1699 13.2096 79.1699 12.832ZM88.4035 13.9844C88.1822 13.4896 88.0845 13.0078 88.1105 12.5391C88.1366 12.0573 88.2408 11.6081 88.423 11.1914C88.6184 10.7617 88.8658 10.3776 89.1652 10.0391C89.4777 9.6875 89.8098 9.38802 90.1613 9.14062C90.5129 8.88021 90.8645 8.6849 91.216 8.55469C91.5806 8.42448 91.8996 8.3724 92.173 8.39844C92.4465 8.41146 92.6613 8.50911 92.8176 8.69141C92.9738 8.8737 93.0259 9.15365 92.9738 9.53125C92.9738 10.0391 92.8111 10.4818 92.4855 10.8594C92.173 11.237 91.8215 11.5755 91.4309 11.875C91.0533 12.1745 90.7017 12.4479 90.3762 12.6953C90.0637 12.9297 89.9074 13.151 89.9074 13.3594C89.9074 13.4766 89.9725 13.5677 90.1027 13.6328C90.246 13.6979 90.4087 13.75 90.591 13.7891C90.7733 13.8151 90.9556 13.8346 91.1379 13.8477C91.3202 13.8607 91.4504 13.8737 91.5285 13.8867C92.7525 13.6263 93.6704 13.4701 94.2824 13.418C94.8944 13.3529 95.2785 13.3594 95.4348 13.4375C95.591 13.5026 95.5585 13.6133 95.3371 13.7695C95.1288 13.9128 94.8033 14.069 94.3605 14.2383C93.9178 14.3945 93.4035 14.5378 92.8176 14.668C92.2316 14.7982 91.6522 14.8763 91.0793 14.9023C90.5064 14.9154 89.9725 14.8568 89.4777 14.7266C88.996 14.5964 88.6379 14.349 88.4035 13.9844ZM91.8215 9.53125C91.5611 9.53125 91.3137 9.60286 91.0793 9.74609C90.8449 9.88932 90.6301 10.0716 90.4348 10.293C90.2525 10.5013 90.0962 10.7357 89.966 10.9961C89.8358 11.2435 89.7382 11.4779 89.673 11.6992C89.6991 11.7122 89.7186 11.7188 89.7316 11.7188H89.7902C89.9725 11.7188 90.1809 11.6406 90.4152 11.4844C90.6496 11.3281 90.871 11.1393 91.0793 10.918C91.2876 10.6836 91.4634 10.4427 91.6066 10.1953C91.7499 9.94792 91.8215 9.72656 91.8215 9.53125ZM99.1215 13.4961C99.1215 13.1055 99.1996 12.7474 99.3559 12.4219C99.5251 12.0833 99.7074 11.7643 99.9027 11.4648C100.098 11.1654 100.274 10.8659 100.43 10.5664C100.599 10.2669 100.684 9.94792 100.684 9.60938C100.684 9.53125 100.677 9.4401 100.664 9.33594C100.664 9.21875 100.651 9.10807 100.625 9.00391C100.612 8.89974 100.573 8.8151 100.508 8.75C100.456 8.67188 100.385 8.63281 100.293 8.63281C100.28 8.63281 100.254 8.63932 100.215 8.65234C100.189 8.65234 100.176 8.65885 100.176 8.67188C99.9939 8.91927 99.7725 9.19922 99.5121 9.51172C99.2647 9.8112 98.9978 10.1107 98.7113 10.4102C98.4249 10.7096 98.1449 10.9961 97.8715 11.2695C97.5981 11.543 97.3507 11.7708 97.1293 11.9531C96.9731 12.0964 96.7582 12.2917 96.4848 12.5391C96.2244 12.7865 95.9574 13.0339 95.684 13.2812C95.4236 13.5156 95.1892 13.724 94.9809 13.9062C94.7856 14.0885 94.6749 14.1797 94.6488 14.1797L93.7504 13.418C93.8676 13.418 93.9848 13.3919 94.102 13.3398C94.2061 13.2878 94.3103 13.2292 94.4145 13.1641C95.1957 12.6432 95.8988 12.0443 96.5238 11.3672C97.1619 10.6901 97.7869 9.96094 98.3988 9.17969C98.4249 9.14062 98.49 9.02995 98.5941 8.84766C98.7113 8.65234 98.835 8.4375 98.9652 8.20312C99.0954 7.95573 99.2257 7.71484 99.3559 7.48047C99.4861 7.23307 99.5837 7.03776 99.6488 6.89453C99.727 6.72526 99.7725 6.58854 99.7856 6.48438C99.8116 6.38021 99.8311 6.30208 99.8441 6.25C99.8702 6.1849 99.9093 6.13932 99.9613 6.11328C100.013 6.08724 100.124 6.07422 100.293 6.07422C100.319 6.07422 100.378 6.08073 100.469 6.09375C100.573 6.10677 100.638 6.11979 100.664 6.13281C100.834 6.48438 100.983 6.79688 101.114 7.07031C101.244 7.34375 101.355 7.60417 101.446 7.85156C101.537 8.08594 101.602 8.32682 101.641 8.57422C101.693 8.82161 101.719 9.09505 101.719 9.39453C101.55 9.82422 101.361 10.2669 101.153 10.7227C100.944 11.1654 100.769 11.5885 100.625 11.9922C100.482 12.3958 100.391 12.7604 100.352 13.0859C100.326 13.4115 100.398 13.6719 100.567 13.8672C100.749 14.0495 101.049 14.1471 101.465 14.1602C101.895 14.1732 102.5 14.0625 103.282 13.8281C103.49 13.9323 103.51 14.0625 103.34 14.2188C103.171 14.362 102.911 14.4987 102.559 14.6289C102.22 14.7591 101.843 14.8698 101.426 14.9609C101.023 15.0391 100.684 15.0586 100.411 15.0195C100.163 15.0195 99.9548 14.9805 99.7856 14.9023C99.6293 14.8112 99.4991 14.694 99.3949 14.5508C99.3038 14.4076 99.2322 14.2448 99.1801 14.0625C99.141 13.8802 99.1215 13.6914 99.1215 13.4961ZM102.222 13.7695C102.222 13.7305 102.222 13.6784 102.222 13.6133C102.235 13.5352 102.242 13.4896 102.242 13.4766C102.281 13.0859 102.326 12.5911 102.379 11.9922C102.431 11.3802 102.483 10.7943 102.535 10.2344C102.6 9.67448 102.652 9.19271 102.691 8.78906C102.73 8.3724 102.75 8.16406 102.75 8.16406L103.277 7.65625C103.498 7.72135 103.661 7.8125 103.765 7.92969C103.869 8.03385 103.941 8.15104 103.98 8.28125C104.019 8.41146 104.039 8.55469 104.039 8.71094C104.039 8.86719 104.039 9.02344 104.039 9.17969C104.039 9.72656 103.987 10.2604 103.882 10.7812C103.791 11.2891 103.746 11.8099 103.746 12.3438C103.746 12.3698 103.746 12.4349 103.746 12.5391C103.759 12.6302 103.765 12.6888 103.765 12.7148L108.57 7.65625C108.583 7.64323 108.615 7.63672 108.668 7.63672C108.733 7.63672 108.778 7.63672 108.804 7.63672C108.935 7.63672 109.058 7.66276 109.175 7.71484C109.293 7.76693 109.351 7.8776 109.351 8.04688C109.351 8.0599 109.345 8.07292 109.332 8.08594C109.332 8.08594 109.332 8.09245 109.332 8.10547V8.16406C109.267 8.26823 109.149 8.4375 108.98 8.67188C108.824 8.90625 108.648 9.16016 108.453 9.43359C108.27 9.70703 108.095 9.96745 107.925 10.2148C107.756 10.4492 107.639 10.612 107.574 10.7031C107.352 10.9766 107.092 11.3021 106.793 11.6797C106.506 12.0573 106.194 12.4414 105.855 12.832C105.53 13.2096 105.185 13.5742 104.82 13.9258C104.468 14.2643 104.117 14.5378 103.765 14.7461C103.7 14.7852 103.602 14.8372 103.472 14.9023C103.355 14.9674 103.29 15 103.277 15C103.134 15 102.997 14.9609 102.867 14.8828C102.75 14.7917 102.639 14.681 102.535 14.5508C102.444 14.4206 102.365 14.2904 102.3 14.1602C102.248 14.0169 102.222 13.8867 102.222 13.7695ZM109.971 13.7305C110.089 12.9883 110.31 12.3047 110.636 11.6797C110.961 11.0547 111.332 10.5143 111.749 10.0586C112.179 9.58984 112.641 9.20573 113.136 8.90625C113.63 8.60677 114.112 8.41797 114.581 8.33984C115.05 8.2487 115.479 8.26823 115.87 8.39844C116.274 8.52865 116.599 8.78906 116.846 9.17969C116.846 9.47917 116.775 9.76562 116.632 10.0391C116.501 10.3125 116.352 10.5859 116.182 10.8594C116.026 11.1328 115.876 11.4128 115.733 11.6992C115.603 11.9857 115.538 12.2917 115.538 12.6172C115.538 12.9557 115.61 13.2292 115.753 13.4375C115.909 13.6328 116.176 13.7305 116.554 13.7305C116.866 13.7305 117.165 13.6849 117.452 13.5938C117.751 13.5026 118.051 13.457 118.35 13.457C118.402 13.457 118.487 13.4635 118.604 13.4766C118.735 13.4766 118.819 13.4766 118.858 13.4766C118.702 13.6979 118.5 13.8867 118.253 14.043C118.005 14.1992 117.745 14.3359 117.471 14.4531C117.198 14.5573 116.912 14.6354 116.612 14.6875C116.326 14.7396 116.059 14.7656 115.811 14.7656C115.577 14.7656 115.369 14.7135 115.186 14.6094C115.004 14.5052 114.848 14.3685 114.718 14.1992C114.587 14.0299 114.483 13.8411 114.405 13.6328C114.34 13.4115 114.307 13.1966 114.307 12.9883C114.112 13.2096 113.897 13.444 113.663 13.6914C113.442 13.9258 113.201 14.1406 112.94 14.3359C112.693 14.5312 112.419 14.694 112.12 14.8242C111.833 14.9544 111.534 15.0195 111.221 15.0195C110.883 15.0195 110.59 14.8958 110.343 14.6484C110.095 14.388 109.971 14.082 109.971 13.7305ZM111.261 13.125C111.261 13.2292 111.261 13.3464 111.261 13.4766C111.274 13.6068 111.358 13.6914 111.514 13.7305C111.84 13.6523 112.211 13.4831 112.628 13.2227C113.044 12.9492 113.435 12.6367 113.8 12.2852C114.164 11.9206 114.47 11.5365 114.718 11.1328C114.965 10.7161 115.089 10.319 115.089 9.94141C115.089 9.91536 115.082 9.8763 115.069 9.82422C115.069 9.75911 115.069 9.71354 115.069 9.6875C114.626 9.6875 114.177 9.77865 113.721 9.96094C113.266 10.1432 112.856 10.3971 112.491 10.7227C112.126 11.0352 111.827 11.3997 111.593 11.8164C111.371 12.2331 111.261 12.6693 111.261 13.125ZM117.975 13.1055C117.975 12.7279 118.046 12.3503 118.189 11.9727C118.333 11.5951 118.502 11.224 118.697 10.8594C118.893 10.4818 119.088 10.1107 119.283 9.74609C119.492 9.38151 119.648 9.02344 119.752 8.67188C119.505 8.8151 119.29 8.89974 119.107 8.92578C118.938 8.9388 118.73 8.94531 118.482 8.94531C118.456 8.94531 118.372 8.94531 118.229 8.94531C118.098 8.93229 118.014 8.92578 117.975 8.92578C118.053 8.63932 118.196 8.38542 118.404 8.16406C118.613 7.92969 118.847 7.73438 119.107 7.57812C119.381 7.40885 119.661 7.27214 119.947 7.16797C120.247 7.05078 120.514 6.95964 120.748 6.89453C121.139 6.28255 121.458 5.67057 121.705 5.05859C121.952 4.43359 122.2 3.82812 122.447 3.24219C122.708 2.64323 123.007 2.07682 123.346 1.54297C123.697 0.996094 124.166 0.494792 124.752 0.0390625L124.85 0.78125L122.408 6.50391C122.551 6.46484 122.727 6.42578 122.936 6.38672C123.144 6.34766 123.352 6.30859 123.561 6.26953C123.782 6.23047 123.99 6.19792 124.186 6.17188C124.394 6.13281 124.57 6.09375 124.713 6.05469C124.726 6.05469 124.765 6.05469 124.83 6.05469C124.895 6.04167 124.947 6.03516 124.986 6.03516C125.169 6.03516 125.318 6.06771 125.436 6.13281C125.553 6.19792 125.65 6.34115 125.729 6.5625C124.843 6.82292 124.042 7.09635 123.326 7.38281C122.61 7.66927 121.985 8.04688 121.451 8.51562C120.93 8.97135 120.501 9.55729 120.162 10.2734C119.837 10.9766 119.609 11.8815 119.479 12.9883C119.479 13.2227 119.492 13.4375 119.518 13.6328C119.544 13.8281 119.706 13.9453 120.006 13.9844C120.305 13.9844 120.585 13.9258 120.846 13.8086C121.106 13.6914 121.36 13.5677 121.607 13.4375C121.855 13.2943 122.102 13.1641 122.35 13.0469C122.61 12.9297 122.89 12.8711 123.189 12.8711C123.189 13.1836 123.053 13.4701 122.779 13.7305C122.506 13.9909 122.174 14.2188 121.783 14.4141C121.406 14.6094 121.015 14.7591 120.611 14.8633C120.208 14.9674 119.876 15.0195 119.615 15.0195C119.355 15.0195 119.12 14.9674 118.912 14.8633C118.704 14.7591 118.528 14.6224 118.385 14.4531C118.255 14.2708 118.15 14.0625 118.072 13.8281C118.007 13.5938 117.975 13.3529 117.975 13.1055ZM127.345 13.4961C127.345 13.1055 127.423 12.7474 127.579 12.4219C127.749 12.0833 127.931 11.7643 128.126 11.4648C128.321 11.1654 128.497 10.8659 128.654 10.5664C128.823 10.2669 128.907 9.94792 128.907 9.60938C128.907 9.53125 128.901 9.4401 128.888 9.33594C128.888 9.21875 128.875 9.10807 128.849 9.00391C128.836 8.89974 128.797 8.8151 128.732 8.75C128.68 8.67188 128.608 8.63281 128.517 8.63281C128.504 8.63281 128.478 8.63932 128.439 8.65234C128.413 8.65234 128.4 8.65885 128.4 8.67188C128.217 8.91927 127.996 9.19922 127.736 9.51172C127.488 9.8112 127.221 10.1107 126.935 10.4102C126.648 10.7096 126.368 10.9961 126.095 11.2695C125.821 11.543 125.574 11.7708 125.353 11.9531C125.196 12.0964 124.982 12.2917 124.708 12.5391C124.448 12.7865 124.181 13.0339 123.907 13.2812C123.647 13.5156 123.413 13.724 123.204 13.9062C123.009 14.0885 122.898 14.1797 122.872 14.1797L121.974 13.418C122.091 13.418 122.208 13.3919 122.325 13.3398C122.43 13.2878 122.534 13.2292 122.638 13.1641C123.419 12.6432 124.122 12.0443 124.747 11.3672C125.385 10.6901 126.01 9.96094 126.622 9.17969C126.648 9.14062 126.713 9.02995 126.818 8.84766C126.935 8.65234 127.058 8.4375 127.189 8.20312C127.319 7.95573 127.449 7.71484 127.579 7.48047C127.71 7.23307 127.807 7.03776 127.872 6.89453C127.95 6.72526 127.996 6.58854 128.009 6.48438C128.035 6.38021 128.055 6.30208 128.068 6.25C128.094 6.1849 128.133 6.13932 128.185 6.11328C128.237 6.08724 128.348 6.07422 128.517 6.07422C128.543 6.07422 128.601 6.08073 128.693 6.09375C128.797 6.10677 128.862 6.11979 128.888 6.13281C129.057 6.48438 129.207 6.79688 129.337 7.07031C129.467 7.34375 129.578 7.60417 129.669 7.85156C129.76 8.08594 129.825 8.32682 129.864 8.57422C129.917 8.82161 129.943 9.09505 129.943 9.39453C129.773 9.82422 129.585 10.2669 129.376 10.7227C129.168 11.1654 128.992 11.5885 128.849 11.9922C128.706 12.3958 128.614 12.7604 128.575 13.0859C128.549 13.4115 128.621 13.6719 128.79 13.8672C128.973 14.0495 129.272 14.1471 129.689 14.1602C130.118 14.1732 130.724 14.0625 131.505 13.8281C131.713 13.9323 131.733 14.0625 131.564 14.2188C131.394 14.362 131.134 14.4987 130.782 14.6289C130.444 14.7591 130.066 14.8698 129.65 14.9609C129.246 15.0391 128.907 15.0586 128.634 15.0195C128.387 15.0195 128.178 14.9805 128.009 14.9023C127.853 14.8112 127.723 14.694 127.618 14.5508C127.527 14.4076 127.456 14.2448 127.404 14.0625C127.364 13.8802 127.345 13.6914 127.345 13.4961ZM130.309 13.7305C130.309 13.5482 130.329 13.3919 130.368 13.2617C130.407 13.1185 130.478 12.9362 130.582 12.7148C130.674 12.5846 130.836 12.3372 131.071 11.9727C131.318 11.6081 131.572 11.224 131.832 10.8203C132.106 10.4167 132.36 10.0391 132.594 9.6875C132.842 9.32292 133.011 9.06901 133.102 8.92578C133.219 8.75651 133.31 8.66536 133.375 8.65234C133.441 8.63932 133.564 8.63281 133.746 8.63281C133.864 8.63281 133.987 8.63932 134.118 8.65234C134.261 8.66536 134.352 8.75651 134.391 8.92578C134.209 9.36849 133.961 9.79167 133.649 10.1953C133.349 10.5859 133.05 10.9766 132.75 11.3672C132.464 11.7578 132.21 12.1615 131.989 12.5781C131.767 12.9818 131.657 13.418 131.657 13.8867C131.709 13.8867 131.787 13.8932 131.891 13.9062C132.008 13.9193 132.132 13.9323 132.262 13.9453C132.392 13.9583 132.51 13.9714 132.614 13.9844C132.731 13.9974 132.816 13.9974 132.868 13.9844C132.946 13.9714 133.076 13.9453 133.258 13.9062C133.454 13.8542 133.655 13.8021 133.864 13.75C134.085 13.6979 134.293 13.6458 134.489 13.5938C134.684 13.5417 134.821 13.5026 134.899 13.4766C134.899 13.5026 134.899 13.5482 134.899 13.6133C134.912 13.6654 134.918 13.7044 134.918 13.7305C134.918 13.9909 134.795 14.2057 134.547 14.375C134.313 14.5443 134.033 14.681 133.707 14.7852C133.395 14.8763 133.069 14.9414 132.731 14.9805C132.405 15.0065 132.151 15.0195 131.969 15.0195C131.774 15.0195 131.572 15 131.364 14.9609C131.168 14.9089 130.993 14.8307 130.836 14.7266C130.68 14.6224 130.55 14.4922 130.446 14.3359C130.355 14.1667 130.309 13.9648 130.309 13.7305ZM135.993 2.28516C136.162 2.28516 136.318 2.29167 136.461 2.30469C136.605 2.31771 136.728 2.35026 136.832 2.40234C136.937 2.45443 137.021 2.53255 137.086 2.63672C137.151 2.74089 137.184 2.88411 137.184 3.06641C137.184 3.14453 137.184 3.22917 137.184 3.32031C137.184 3.41146 137.171 3.5026 137.145 3.59375C137.132 3.67188 137.099 3.74349 137.047 3.80859C136.995 3.86068 136.911 3.88672 136.793 3.88672C136.611 3.88672 136.461 3.82161 136.344 3.69141C136.24 3.5612 136.162 3.41146 136.11 3.24219C136.058 3.0599 136.025 2.8776 136.012 2.69531C135.999 2.51302 135.993 2.3763 135.993 2.28516ZM134.992 13.3594C134.992 13.3073 134.992 13.2031 134.992 13.0469C135.005 12.8776 135.011 12.7669 135.011 12.7148C135.428 11.7643 135.962 10.8854 136.613 10.0781C137.264 9.27083 138 8.55469 138.82 7.92969C138.846 7.92969 138.885 7.92318 138.937 7.91016C139.002 7.88411 139.048 7.87109 139.074 7.87109C139.425 7.87109 139.712 7.94922 139.933 8.10547C140.168 8.2487 140.35 8.44401 140.48 8.69141C140.623 8.92578 140.721 9.19271 140.773 9.49219C140.825 9.77865 140.851 10.0586 140.851 10.332C140.851 10.8398 140.734 11.3737 140.5 11.9336C140.265 12.4805 139.946 12.9883 139.543 13.457C139.152 13.9128 138.703 14.2904 138.195 14.5898C137.687 14.8763 137.16 15.0195 136.613 15.0195C136.066 15.0195 135.656 14.8763 135.382 14.5898C135.122 14.2904 134.992 13.8802 134.992 13.3594ZM136.515 13.125C136.515 13.2682 136.574 13.3659 136.691 13.418C136.808 13.4701 136.925 13.4961 137.043 13.4961C137.368 13.4961 137.681 13.4115 137.98 13.2422C138.293 13.0599 138.566 12.8385 138.8 12.5781C139.048 12.3047 139.243 12.0052 139.386 11.6797C139.53 11.3542 139.601 11.0417 139.601 10.7422C139.601 10.599 139.588 10.4427 139.562 10.2734C139.549 10.0911 139.51 9.9349 139.445 9.80469C139.38 9.66146 139.276 9.55078 139.132 9.47266C139.002 9.39453 138.813 9.38151 138.566 9.43359C138.384 9.47266 138.175 9.64193 137.941 9.94141C137.707 10.2409 137.479 10.5924 137.257 10.9961C137.049 11.3867 136.873 11.7839 136.73 12.1875C136.587 12.5781 136.515 12.8906 136.515 13.125ZM141.628 14.1211C141.628 14.0039 141.628 13.9128 141.628 13.8477C141.628 13.7826 141.634 13.724 141.647 13.6719C141.673 13.6068 141.706 13.5417 141.745 13.4766C141.784 13.4115 141.836 13.3268 141.901 13.2227C142.005 13.0404 142.201 12.7214 142.487 12.2656C142.774 11.8099 143.08 11.3281 143.405 10.8203C143.731 10.3125 144.037 9.83073 144.323 9.375C144.623 8.91927 144.831 8.60026 144.948 8.41797C144.961 8.40495 144.994 8.39844 145.046 8.39844C145.111 8.39844 145.156 8.39844 145.182 8.39844C145.208 8.39844 145.254 8.39844 145.319 8.39844C145.384 8.39844 145.423 8.40495 145.436 8.41797C145.449 8.43099 145.475 8.46354 145.514 8.51562C145.567 8.56771 145.619 8.6263 145.671 8.69141C145.736 8.74349 145.788 8.79557 145.827 8.84766C145.879 8.89974 145.918 8.92578 145.944 8.92578C146.061 8.92578 146.185 8.88672 146.315 8.80859C146.445 8.73047 146.576 8.64583 146.706 8.55469C146.849 8.45052 146.992 8.35938 147.136 8.28125C147.279 8.20312 147.429 8.16406 147.585 8.16406C147.754 8.16406 147.91 8.20312 148.054 8.28125C148.197 8.35938 148.32 8.45703 148.425 8.57422C148.529 8.69141 148.607 8.82161 148.659 8.96484C148.724 9.10807 148.757 9.2513 148.757 9.39453C148.757 9.69401 148.711 9.98047 148.62 10.2539C148.542 10.5273 148.451 10.8008 148.346 11.0742C148.242 11.3346 148.145 11.6016 148.054 11.875C147.975 12.1354 147.936 12.4089 147.936 12.6953C147.936 12.9818 147.969 13.1901 148.034 13.3203C148.099 13.4375 148.281 13.4961 148.581 13.4961C148.932 13.4961 149.264 13.444 149.577 13.3398C149.902 13.2357 150.235 13.1836 150.573 13.1836C150.573 13.4961 150.475 13.7565 150.28 13.9648C150.098 14.1732 149.863 14.3424 149.577 14.4727C149.304 14.5898 149.004 14.6745 148.679 14.7266C148.366 14.7656 148.08 14.7852 147.819 14.7852C147.324 14.7852 146.96 14.6484 146.725 14.375C146.504 14.0885 146.393 13.7109 146.393 13.2422C146.393 12.9297 146.445 12.6367 146.55 12.3633C146.667 12.0898 146.79 11.8229 146.921 11.5625C147.064 11.3021 147.194 11.0417 147.311 10.7812C147.429 10.5208 147.487 10.2409 147.487 9.94141C147.487 9.86328 147.474 9.75911 147.448 9.62891C147.422 9.4987 147.337 9.43359 147.194 9.43359C146.764 9.43359 146.374 9.57031 146.022 9.84375C145.684 10.1172 145.371 10.4622 145.085 10.8789C144.811 11.2956 144.557 11.7448 144.323 12.2266C144.102 12.7083 143.887 13.1576 143.679 13.5742C143.483 13.9909 143.294 14.3359 143.112 14.6094C142.93 14.8828 142.741 15.0195 142.546 15.0195C142.272 15.0195 142.051 14.9349 141.882 14.7656C141.712 14.5964 141.628 14.3815 141.628 14.1211Z" fill="#9F4837"/>
</svg>
