<svg width="129" height="15" viewBox="0 0 129 15" fill="none" xmlns="http://www.w3.org/2000/svg">
<path d="M13.005 12.2231C13.005 11.5701 13.0894 10.9114 13.2583 10.2471C13.4385 9.57158 13.658 8.90728 13.917 8.25425C14.1872 7.60122 14.4743 6.9707 14.7783 6.36271C15.0823 5.74345 15.3694 5.1636 15.6396 4.62316V4.40361C15.5158 4.53872 15.3187 4.75264 15.0485 5.04538C14.7896 5.32686 14.4912 5.64775 14.1534 6.00804C13.8269 6.36834 13.4779 6.75115 13.1063 7.15648C12.746 7.55055 12.397 7.92773 12.0592 8.28803C11.7327 8.64832 11.44 8.97484 11.181 9.26758C10.922 9.54906 10.7306 9.75735 10.6068 9.89246C10.4829 10.0276 10.3647 10.2302 10.2521 10.5005C10.1395 10.7594 10.0157 11.024 9.88055 11.2942C9.74544 11.5645 9.59344 11.8009 9.42456 12.0036C9.26693 12.2062 9.08678 12.3076 8.88411 12.3076C8.71523 12.3076 8.58012 12.2907 8.47878 12.2569C8.38871 12.2231 8.32116 12.1724 8.27612 12.1049C8.23108 12.0261 8.20293 11.9304 8.19167 11.8178C8.18042 11.7052 8.17479 11.5701 8.17479 11.4125C8.17479 10.5793 8.29301 9.77424 8.52945 8.99736C8.77715 8.20921 9.03611 7.40981 9.30633 6.59915V6.3796C9.28382 6.40211 9.24441 6.44152 9.18811 6.49782C9.13182 6.54285 9.09804 6.57663 9.08678 6.59915C8.81656 7.00448 8.54071 7.44359 8.25923 7.91647C7.97775 8.3781 7.68501 8.83973 7.38101 9.30136C7.07701 9.75172 6.7505 10.1852 6.40146 10.6018C6.05243 11.0184 5.67524 11.3899 5.26991 11.7165C4.86458 12.0317 4.41984 12.285 3.9357 12.4764C3.46281 12.6679 2.93926 12.7636 2.36504 12.7636C2.24119 12.7636 2.0723 12.7579 1.85838 12.7467C1.65571 12.7354 1.45305 12.7016 1.25038 12.6453C1.05898 12.589 0.890088 12.499 0.743719 12.3751C0.608608 12.2513 0.541053 12.0767 0.541053 11.8516C0.541053 11.7615 0.59172 11.6489 0.693052 11.5138C0.805644 11.3674 0.901347 11.2661 0.980162 11.2098C1.13779 11.4687 1.26727 11.6433 1.3686 11.7333C1.4812 11.8122 1.63882 11.8516 1.84149 11.8516C2.17927 11.8516 2.53393 11.8009 2.90548 11.6996C3.2883 11.587 3.65422 11.4406 4.00325 11.2605C4.36355 11.0803 4.70132 10.872 5.01658 10.6356C5.33184 10.3991 5.59643 10.1514 5.81036 9.89246C5.97924 9.66728 6.18191 9.38017 6.41835 9.03113C6.66605 8.67084 6.92502 8.2824 7.19524 7.86581C7.47672 7.43796 7.76383 7.00448 8.05656 6.56537C8.3493 6.12626 8.63078 5.70967 8.901 5.3156C9.18248 4.91027 9.44144 4.54998 9.67789 4.23472C9.91433 3.91946 10.117 3.68302 10.2859 3.52539C10.4435 3.52539 10.5617 3.55354 10.6405 3.60983C10.7194 3.65487 10.7757 3.72243 10.8094 3.8125C10.8432 3.90257 10.8601 4.00954 10.8601 4.13339C10.8601 4.25724 10.8601 4.38672 10.8601 4.52183C10.8601 4.99471 10.7869 5.45634 10.6405 5.90671C10.5054 6.35708 10.3534 6.79619 10.1846 7.22403C10.0157 7.64062 9.85803 8.05159 9.71167 8.45692C9.57655 8.86225 9.509 9.26195 9.509 9.65602C9.509 9.67854 9.509 9.71795 9.509 9.77424C9.52026 9.83054 9.52589 9.86994 9.52589 9.89246C10.5843 8.72151 11.4962 7.70818 12.2619 6.85248C13.0275 5.99678 13.6749 5.27056 14.2041 4.67383C14.7445 4.06583 15.1836 3.57606 15.5214 3.2045C15.8592 2.82169 16.1294 2.52895 16.3321 2.32629C16.5347 2.11236 16.6867 1.96599 16.7881 1.88718C16.9007 1.80836 16.9907 1.76896 17.0583 1.76896C17.1709 1.76896 17.2553 1.80273 17.3116 1.87029C17.3679 1.93784 17.4017 2.01666 17.413 2.10673C17.4355 2.19681 17.4411 2.29251 17.4298 2.39384C17.4298 2.49517 17.4298 2.57962 17.4298 2.64717C17.4298 3.12006 17.3398 3.6042 17.1596 4.09961C16.9907 4.58375 16.7712 5.08479 16.501 5.60271C16.242 6.10937 15.9549 6.6273 15.6396 7.15648C15.3356 7.6744 15.0485 8.20921 14.7783 8.76091C14.5193 9.31261 14.2998 9.87557 14.1196 10.4498C13.9508 11.0128 13.8663 11.5926 13.8663 12.1893C13.8663 12.4933 13.8719 12.7185 13.8832 12.8649C13.8945 13 13.9282 13.1126 13.9845 13.2027C14.0408 13.304 14.1309 13.4053 14.2547 13.5067C14.3786 13.6193 14.5531 13.7938 14.7783 14.0302C14.5193 14.1766 14.266 14.2329 14.0183 14.1991C13.7819 14.1766 13.5736 14.0809 13.3934 13.912C13.2245 13.7431 13.1007 13.5123 13.0219 13.2196C12.9431 12.9268 12.9374 12.5947 13.005 12.2231ZM16.4462 11.9022C16.5476 11.2605 16.739 10.6693 17.0205 10.1289C17.3019 9.58846 17.6228 9.12121 17.9831 8.72714C18.3547 8.32181 18.7544 7.98966 19.1822 7.7307C19.6101 7.47174 20.0267 7.30848 20.432 7.24092C20.8373 7.16211 21.2089 7.179 21.5467 7.29159C21.8957 7.40418 22.1772 7.62937 22.3911 7.96714C22.3911 8.2261 22.3292 8.4738 22.2053 8.71025C22.0927 8.94669 21.9632 9.18313 21.8169 9.41958C21.6818 9.65602 21.5523 9.89809 21.4284 10.1458C21.3158 10.3935 21.2595 10.6581 21.2595 10.9396C21.2595 11.2323 21.3215 11.4687 21.4453 11.6489C21.5804 11.8178 21.8112 11.9022 22.1378 11.9022C22.408 11.9022 22.6669 11.8628 22.9146 11.784C23.1736 11.7052 23.4326 11.6658 23.6915 11.6658C23.7366 11.6658 23.8098 11.6714 23.9111 11.6827C24.0237 11.6827 24.0969 11.6827 24.1306 11.6827C23.9955 11.8741 23.821 12.0373 23.6071 12.1724C23.3932 12.3076 23.168 12.4258 22.9315 12.5271C22.6951 12.6172 22.4474 12.6847 22.1884 12.7298C21.9407 12.7748 21.7099 12.7973 21.496 12.7973C21.2933 12.7973 21.1132 12.7523 20.9555 12.6622C20.7979 12.5722 20.6628 12.4539 20.5502 12.3076C20.4376 12.1612 20.3475 11.9979 20.28 11.8178C20.2237 11.6264 20.1955 11.4406 20.1955 11.2605C20.0267 11.4519 19.8409 11.6545 19.6382 11.8685C19.4468 12.0711 19.2385 12.2569 19.0133 12.4258C18.7994 12.5947 18.563 12.7354 18.304 12.848C18.0563 12.9606 17.7973 13.0169 17.5271 13.0169C17.2344 13.0169 16.9811 12.9099 16.7671 12.696C16.5532 12.4708 16.4462 12.2062 16.4462 11.9022ZM17.5609 11.3787C17.5609 11.4687 17.5609 11.5701 17.5609 11.6827C17.5722 11.7953 17.6453 11.8685 17.7805 11.9022C18.0619 11.8347 18.3828 11.6883 18.7431 11.4631C19.1034 11.2267 19.4412 10.9565 19.7564 10.6525C20.0717 10.3372 20.3363 10.0051 20.5502 9.65602C20.7641 9.29573 20.8711 8.95232 20.8711 8.6258C20.8711 8.60329 20.8655 8.56951 20.8542 8.52447C20.8542 8.46818 20.8542 8.42877 20.8542 8.40625C20.4714 8.40625 20.083 8.48506 19.6889 8.64269C19.2948 8.80032 18.9401 9.01988 18.6249 9.30136C18.3096 9.57158 18.0507 9.88683 17.848 10.2471C17.6566 10.6074 17.5609 10.9846 17.5609 11.3787ZM25.7986 10.6018C25.6635 10.7819 25.5509 10.9846 25.4608 11.2098C25.3707 11.435 25.2694 11.6489 25.1568 11.8516C25.0442 12.0542 24.9091 12.2231 24.7515 12.3582C24.5938 12.4933 24.3855 12.5609 24.1266 12.5609C23.9127 12.5609 23.7663 12.5271 23.6875 12.4596C23.6087 12.3807 23.5693 12.2287 23.5693 12.0036C23.5693 11.7333 23.6424 11.435 23.7888 11.1085C23.9464 10.7819 24.1322 10.4667 24.3461 10.1627C24.5601 9.84743 24.7796 9.55469 25.0048 9.28447C25.23 9.01425 25.4158 8.79469 25.5621 8.6258L28.6866 1.87029C28.7654 1.67888 28.9061 1.49874 29.1088 1.32985C29.3227 1.16096 29.5423 1.07652 29.7674 1.07652V1.63385L27.9772 5.7716V6.17693C28.1686 6.17693 28.3488 6.14878 28.5177 6.09249C28.6866 6.02493 28.8554 5.95175 29.0243 5.87293C29.1932 5.79412 29.3677 5.72656 29.5479 5.67027C29.7393 5.60271 29.9476 5.56893 30.1728 5.56893C30.3754 5.70404 30.4824 5.87293 30.4937 6.0756C30.5049 6.267 30.4543 6.48093 30.3417 6.71737C30.2291 6.94255 30.0714 7.17337 29.8688 7.40981C29.6774 7.64625 29.4747 7.87707 29.2608 8.10225C29.0469 8.31618 28.8386 8.50758 28.6359 8.67647C28.4445 8.84536 28.2981 8.97484 28.1968 9.06491C28.0279 9.20002 27.8703 9.29573 27.7239 9.35202C27.5888 9.39706 27.4706 9.4421 27.3692 9.48713C27.2679 9.53217 27.1891 9.59972 27.1328 9.6898C27.0878 9.77987 27.0652 9.93187 27.0652 10.1458C27.0652 10.4611 27.1497 10.72 27.3186 10.9227C27.4875 11.1141 27.707 11.2661 27.9772 11.3787C28.2587 11.4913 28.5683 11.5701 28.9061 11.6151C29.2551 11.6489 29.6042 11.6658 29.9532 11.6658C30.3023 11.6658 30.6344 11.6545 30.9497 11.632C31.2649 11.5982 31.5351 11.5645 31.7603 11.5307L31.963 11.7333C31.8391 11.9022 31.6477 12.0655 31.3888 12.2231C31.1411 12.3695 30.8652 12.5046 30.5612 12.6284C30.2685 12.741 29.9757 12.8367 29.683 12.9156C29.3903 12.9831 29.1482 13.0169 28.9568 13.0169C28.5965 13.0169 28.2475 12.9606 27.9097 12.848C27.5719 12.7241 27.2623 12.5553 26.9808 12.3413C26.6993 12.1274 26.4516 11.8741 26.2377 11.5813C26.035 11.2773 25.8887 10.9508 25.7986 10.6018ZM29.1257 6.80181C29.0243 6.80181 28.8723 6.84122 28.6697 6.92004C28.467 6.99885 28.2643 7.10018 28.0617 7.22403C27.859 7.34789 27.6845 7.483 27.5381 7.62937C27.3918 7.77573 27.3186 7.9221 27.3186 8.06847V8.1867C27.3974 8.15292 27.5325 8.09662 27.7239 8.01781C27.9266 7.93899 28.1292 7.84329 28.3319 7.7307C28.5458 7.60685 28.7316 7.46611 28.8892 7.30848C29.0469 7.15085 29.1257 6.98196 29.1257 6.80181ZM31.4523 12.1218C31.2609 11.6939 31.1764 11.2773 31.1989 10.872C31.2215 10.4554 31.3115 10.067 31.4692 9.70669C31.638 9.33513 31.852 9.00299 32.1109 8.71025C32.3811 8.40625 32.6683 8.14729 32.9723 7.93336C33.2763 7.70818 33.5803 7.53929 33.8843 7.4267C34.1995 7.31411 34.4754 7.26907 34.7118 7.29159C34.9482 7.30285 35.134 7.38729 35.2691 7.54492C35.4042 7.70255 35.4493 7.94462 35.4042 8.27114C35.4042 8.71025 35.2635 9.09306 34.982 9.41958C34.7118 9.74609 34.4078 10.0388 34.07 10.2978C33.7435 10.5568 33.4395 10.7932 33.158 11.0071C32.8878 11.2098 32.7527 11.4012 32.7527 11.5813C32.7527 11.6827 32.809 11.7615 32.9216 11.8178C33.0454 11.8741 33.1862 11.9191 33.3438 11.9529C33.5014 11.9754 33.6591 11.9923 33.8167 12.0036C33.9743 12.0148 34.0869 12.0261 34.1545 12.0373C35.2128 11.8122 36.0066 11.677 36.5358 11.632C37.065 11.5757 37.3971 11.5813 37.5322 11.6489C37.6673 11.7052 37.6392 11.8009 37.4478 11.936C37.2676 12.0599 36.9862 12.195 36.6033 12.3413C36.2205 12.4764 35.7758 12.6003 35.2691 12.7129C34.7625 12.8255 34.2614 12.893 33.766 12.9156C33.2706 12.9268 32.809 12.8761 32.3811 12.7636C31.9646 12.651 31.6549 12.437 31.4523 12.1218ZM34.4078 8.27114C34.1826 8.27114 33.9687 8.33306 33.766 8.45692C33.5634 8.58077 33.3776 8.7384 33.2087 8.9298C33.0511 9.10995 32.916 9.31261 32.8034 9.5378C32.6908 9.75172 32.6063 9.95439 32.55 10.1458C32.5726 10.1571 32.5894 10.1627 32.6007 10.1627H32.6514C32.809 10.1627 32.9891 10.0951 33.1918 9.96002C33.3945 9.82491 33.5859 9.66165 33.766 9.47024C33.9462 9.26758 34.0982 9.05928 34.222 8.84536C34.3459 8.63143 34.4078 8.44003 34.4078 8.27114ZM45.5801 11.9022C45.6814 11.2605 45.8728 10.6693 46.1543 10.1289C46.4358 9.58846 46.7567 9.12121 47.117 8.72714C47.4885 8.32181 47.8882 7.98966 48.3161 7.7307C48.7439 7.47174 49.1605 7.30848 49.5658 7.24092C49.9712 7.16211 50.3427 7.179 50.6805 7.29159C51.0295 7.40418 51.311 7.62937 51.5249 7.96714C51.5249 8.2261 51.463 8.4738 51.3392 8.71025C51.2266 8.94669 51.0971 9.18313 50.9507 9.41958C50.8156 9.65602 50.6861 9.89809 50.5623 10.1458C50.4497 10.3935 50.3934 10.6581 50.3934 10.9396C50.3934 11.2323 50.4553 11.4687 50.5792 11.6489C50.7143 11.8178 50.9451 11.9022 51.2716 11.9022C51.5418 11.9022 51.8008 11.8628 52.0485 11.784C52.3074 11.7052 52.5664 11.6658 52.8254 11.6658C52.8704 11.6658 52.9436 11.6714 53.0449 11.6827C53.1575 11.6827 53.2307 11.6827 53.2645 11.6827C53.1294 11.8741 52.9548 12.0373 52.7409 12.1724C52.527 12.3076 52.3018 12.4258 52.0654 12.5271C51.8289 12.6172 51.5812 12.6847 51.3223 12.7298C51.0746 12.7748 50.8437 12.7973 50.6298 12.7973C50.4272 12.7973 50.247 12.7523 50.0894 12.6622C49.9318 12.5722 49.7966 12.4539 49.6841 12.3076C49.5715 12.1612 49.4814 11.9979 49.4138 11.8178C49.3575 11.6264 49.3294 11.4406 49.3294 11.2605C49.1605 11.4519 48.9747 11.6545 48.7721 11.8685C48.5807 12.0711 48.3724 12.2569 48.1472 12.4258C47.9332 12.5947 47.6968 12.7354 47.4378 12.848C47.1901 12.9606 46.9312 13.0169 46.661 13.0169C46.3682 13.0169 46.1149 12.9099 45.901 12.696C45.687 12.4708 45.5801 12.2062 45.5801 11.9022ZM46.6947 11.3787C46.6947 11.4687 46.6947 11.5701 46.6947 11.6827C46.706 11.7953 46.7792 11.8685 46.9143 11.9022C47.1958 11.8347 47.5167 11.6883 47.877 11.4631C48.2372 11.2267 48.575 10.9565 48.8903 10.6525C49.2055 10.3372 49.4701 10.0051 49.6841 9.65602C49.898 9.29573 50.0049 8.95232 50.0049 8.6258C50.0049 8.60329 49.9993 8.56951 49.988 8.52447C49.988 8.46818 49.988 8.42877 49.988 8.40625C49.6052 8.40625 49.2168 8.48506 48.8227 8.64269C48.4287 8.80032 48.074 9.01988 47.7587 9.30136C47.4435 9.57158 47.1845 9.88683 46.9818 10.2471C46.7904 10.6074 46.6947 10.9846 46.6947 11.3787ZM64.7914 11.6996C64.7914 11.3618 64.859 11.0522 64.9941 10.7707C65.1404 10.4779 65.2981 10.2021 65.467 9.94313C65.6359 9.68417 65.7879 9.42521 65.923 9.16625C66.0693 8.90728 66.1425 8.63143 66.1425 8.33869C66.1425 8.27114 66.1369 8.19233 66.1256 8.10225C66.1256 8.00092 66.1144 7.90522 66.0919 7.81514C66.0806 7.72507 66.0468 7.65188 65.9905 7.59559C65.9455 7.52803 65.8836 7.49426 65.8047 7.49426C65.7935 7.49426 65.771 7.49988 65.7372 7.51114C65.7147 7.51114 65.7034 7.51677 65.7034 7.52803C65.5458 7.74196 65.3544 7.98403 65.1292 8.25425C64.9153 8.51321 64.6845 8.77217 64.4367 9.03113C64.189 9.2901 63.947 9.5378 63.7105 9.77424C63.4741 10.0107 63.2602 10.2077 63.0688 10.3653C62.9336 10.4892 62.7479 10.6581 62.5114 10.872C62.2862 11.0859 62.0554 11.2999 61.819 11.5138C61.5938 11.7165 61.3911 11.8966 61.211 12.0542C61.0421 12.2119 60.9464 12.2907 60.9239 12.2907L60.147 11.632C60.2483 11.632 60.3497 11.6095 60.451 11.5645C60.5411 11.5194 60.6311 11.4687 60.7212 11.4125C61.3968 10.9621 62.0048 10.4442 62.5452 9.85869C63.0969 9.27321 63.6373 8.64269 64.1665 7.96714C64.189 7.93336 64.2453 7.83766 64.3354 7.68003C64.4367 7.51114 64.5437 7.32537 64.6563 7.1227C64.7689 6.90878 64.8815 6.70048 64.9941 6.49782C65.1067 6.28389 65.1911 6.115 65.2474 5.99115C65.315 5.84478 65.3544 5.72656 65.3656 5.63649C65.3882 5.54641 65.405 5.47886 65.4163 5.43382C65.4388 5.37753 65.4726 5.33812 65.5176 5.3156C65.5627 5.29308 65.6584 5.28182 65.8047 5.28182C65.8273 5.28182 65.8779 5.28745 65.9567 5.29871C66.0468 5.30997 66.1031 5.32123 66.1256 5.33249C66.272 5.63649 66.4015 5.90671 66.5141 6.14315C66.6267 6.3796 66.7224 6.60478 66.8012 6.8187C66.88 7.02137 66.9363 7.22966 66.9701 7.44359C67.0151 7.65751 67.0376 7.89396 67.0376 8.15292C66.8913 8.52447 66.728 8.90728 66.5478 9.30136C66.3677 9.68417 66.2157 10.0501 66.0919 10.3991C65.968 10.7482 65.8892 11.0634 65.8554 11.3449C65.8329 11.6264 65.8948 11.8516 66.0412 12.0205C66.1988 12.1781 66.4578 12.2625 66.8181 12.2738C67.1896 12.285 67.7132 12.1893 68.3887 11.9867C68.5689 12.0767 68.5858 12.1893 68.4394 12.3244C68.293 12.4483 68.0678 12.5665 67.7638 12.6791C67.4711 12.7917 67.1446 12.8874 66.7843 12.9662C66.4353 13.0338 66.1425 13.0507 65.9061 13.0169C65.6921 13.0169 65.512 12.9831 65.3656 12.9156C65.2305 12.8367 65.1179 12.7354 65.0279 12.6116C64.949 12.4877 64.8871 12.347 64.8421 12.1893C64.8083 12.0317 64.7914 11.8685 64.7914 11.6996ZM67.5402 12.1218C67.3488 11.6939 67.2644 11.2773 67.2869 10.872C67.3094 10.4554 67.3995 10.067 67.5571 9.70669C67.726 9.33513 67.9399 9.00299 68.1989 8.71025C68.4691 8.40625 68.7562 8.14729 69.0602 7.93336C69.3642 7.70818 69.6682 7.53929 69.9722 7.4267C70.2875 7.31411 70.5633 7.26907 70.7998 7.29159C71.0362 7.30285 71.222 7.38729 71.3571 7.54492C71.4922 7.70255 71.5372 7.94462 71.4922 8.27114C71.4922 8.71025 71.3515 9.09306 71.07 9.41958C70.7998 9.74609 70.4958 10.0388 70.158 10.2978C69.8315 10.5568 69.5275 10.7932 69.246 11.0071C68.9758 11.2098 68.8407 11.4012 68.8407 11.5813C68.8407 11.6827 68.897 11.7615 69.0095 11.8178C69.1334 11.8741 69.2741 11.9191 69.4318 11.9529C69.5894 11.9754 69.747 11.9923 69.9047 12.0036C70.0623 12.0148 70.1749 12.0261 70.2424 12.0373C71.3008 11.8122 72.0946 11.677 72.6238 11.632C73.1529 11.5757 73.4851 11.5813 73.6202 11.6489C73.7553 11.7052 73.7272 11.8009 73.5357 11.936C73.3556 12.0599 73.0741 12.195 72.6913 12.3413C72.3085 12.4764 71.8638 12.6003 71.3571 12.7129C70.8504 12.8255 70.3494 12.893 69.854 12.9156C69.3586 12.9268 68.897 12.8761 68.4691 12.7636C68.0525 12.651 67.7429 12.437 67.5402 12.1218ZM70.4958 8.27114C70.2706 8.27114 70.0567 8.33306 69.854 8.45692C69.6513 8.58077 69.4655 8.7384 69.2967 8.9298C69.139 9.10995 69.0039 9.31261 68.8913 9.5378C68.7787 9.75172 68.6943 9.95439 68.638 10.1458C68.6605 10.1571 68.6774 10.1627 68.6887 10.1627H68.7393C68.897 10.1627 69.0771 10.0951 69.2798 9.96002C69.4824 9.82491 69.6738 9.66165 69.854 9.47024C70.0341 9.26758 70.1861 9.05928 70.31 8.84536C70.4338 8.63143 70.4958 8.44003 70.4958 8.27114ZM73.0926 11.1253C73.0926 10.9114 73.1207 10.7256 73.177 10.568C73.2446 10.4104 73.4078 10.3316 73.6668 10.3316C73.6893 10.3316 73.74 10.3372 73.8188 10.3485C73.9089 10.3485 73.9708 10.3541 74.0046 10.3653C73.9933 10.8945 74.0778 11.2942 74.2579 11.5645C74.4381 11.8234 74.7758 11.9529 75.2712 11.9529C75.6766 11.9529 76.0763 11.891 76.4703 11.7671C76.8644 11.6433 77.2191 11.4631 77.5343 11.2267C77.8609 10.979 78.1198 10.6806 78.3112 10.3316C78.5139 9.98254 78.6152 9.58846 78.6152 9.14936C78.6152 8.87914 78.5195 8.68773 78.3281 8.57514C78.148 8.46255 77.9453 8.37247 77.7201 8.30492C77.4949 8.23736 77.2866 8.16418 77.0952 8.08536C76.9151 7.99529 76.825 7.84329 76.825 7.62937C76.825 7.3704 76.9826 7.1227 77.2979 6.88626C77.6132 6.64982 77.9847 6.44152 78.4126 6.26137C78.8404 6.06997 79.2626 5.9236 79.6792 5.82227C80.1071 5.70967 80.4336 5.65338 80.6588 5.65338C80.6588 5.97989 80.5856 6.21071 80.4392 6.34582C80.3041 6.48093 80.1352 6.58789 79.9325 6.6667C79.7299 6.74552 79.5216 6.82433 79.3077 6.90315C79.105 6.9707 78.9361 7.10581 78.801 7.30848C78.9811 7.45485 79.1275 7.58996 79.2401 7.71381C79.364 7.8264 79.4597 7.95025 79.5272 8.08536C79.5948 8.22047 79.6398 8.37247 79.6623 8.54136C79.6848 8.69899 79.6961 8.89039 79.6961 9.11558C79.6961 9.70106 79.5666 10.2359 79.3077 10.72C79.06 11.1929 78.7334 11.6039 78.3281 11.9529C77.9228 12.2907 77.4612 12.5553 76.9432 12.7467C76.4253 12.9268 75.8961 13.0169 75.3557 13.0169C75.0629 13.0169 74.7758 12.9831 74.4944 12.9156C74.2241 12.8367 73.9821 12.7185 73.7681 12.5609C73.5655 12.4033 73.4022 12.2062 73.2784 11.9698C73.1545 11.7333 73.0926 11.4519 73.0926 11.1253ZM81.0769 12.1218C80.8855 11.6939 80.8011 11.2773 80.8236 10.872C80.8461 10.4554 80.9362 10.067 81.0938 9.70669C81.2627 9.33513 81.4766 9.00299 81.7356 8.71025C82.0058 8.40625 82.2929 8.14729 82.5969 7.93336C82.9009 7.70818 83.2049 7.53929 83.5089 7.4267C83.8242 7.31411 84.1 7.26907 84.3365 7.29159C84.5729 7.30285 84.7587 7.38729 84.8938 7.54492C85.0289 7.70255 85.0739 7.94462 85.0289 8.27114C85.0289 8.71025 84.8882 9.09306 84.6067 9.41958C84.3365 9.74609 84.0325 10.0388 83.6947 10.2978C83.3682 10.5568 83.0642 10.7932 82.7827 11.0071C82.5125 11.2098 82.3774 11.4012 82.3774 11.5813C82.3774 11.6827 82.4337 11.7615 82.5463 11.8178C82.6701 11.8741 82.8108 11.9191 82.9685 11.9529C83.1261 11.9754 83.2837 11.9923 83.4414 12.0036C83.599 12.0148 83.7116 12.0261 83.7791 12.0373C84.8375 11.8122 85.6313 11.677 86.1605 11.632C86.6896 11.5757 87.0218 11.5813 87.1569 11.6489C87.292 11.7052 87.2639 11.8009 87.0724 11.936C86.8923 12.0599 86.6108 12.195 86.228 12.3413C85.8452 12.4764 85.4005 12.6003 84.8938 12.7129C84.3871 12.8255 83.8861 12.893 83.3907 12.9156C82.8953 12.9268 82.4337 12.8761 82.0058 12.7636C81.5892 12.651 81.2796 12.437 81.0769 12.1218ZM84.0325 8.27114C83.8073 8.27114 83.5934 8.33306 83.3907 8.45692C83.188 8.58077 83.0023 8.7384 82.8334 8.9298C82.6757 9.10995 82.5406 9.31261 82.428 9.5378C82.3154 9.75172 82.231 9.95439 82.1747 10.1458C82.1972 10.1571 82.2141 10.1627 82.2254 10.1627H82.276C82.4337 10.1627 82.6138 10.0951 82.8165 9.96002C83.0191 9.82491 83.2105 9.66165 83.3907 9.47024C83.5708 9.26758 83.7228 9.05928 83.8467 8.84536C83.9705 8.63143 84.0325 8.44003 84.0325 8.27114ZM90.3448 11.6996C90.3448 11.3618 90.4124 11.0522 90.5475 10.7707C90.6939 10.4779 90.8515 10.2021 91.0204 9.94313C91.1893 9.68417 91.3413 9.42521 91.4764 9.16625C91.6227 8.90728 91.6959 8.63143 91.6959 8.33869C91.6959 8.27114 91.6903 8.19233 91.679 8.10225C91.679 8.00092 91.6678 7.90522 91.6453 7.81514C91.634 7.72507 91.6002 7.65188 91.5439 7.59559C91.4989 7.52803 91.437 7.49426 91.3581 7.49426C91.3469 7.49426 91.3244 7.49988 91.2906 7.51114C91.2681 7.51114 91.2568 7.51677 91.2568 7.52803C91.0992 7.74196 90.9078 7.98403 90.6826 8.25425C90.4687 8.51321 90.2379 8.77217 89.9902 9.03113C89.7425 9.2901 89.5004 9.5378 89.2639 9.77424C89.0275 10.0107 88.8136 10.2077 88.6222 10.3653C88.4871 10.4892 88.3013 10.6581 88.0648 10.872C87.8396 11.0859 87.6088 11.2999 87.3724 11.5138C87.1472 11.7165 86.9445 11.8966 86.7644 12.0542C86.5955 12.2119 86.4998 12.2907 86.4773 12.2907L85.7004 11.632C85.8017 11.632 85.9031 11.6095 86.0044 11.5645C86.0945 11.5194 86.1845 11.4687 86.2746 11.4125C86.9502 10.9621 87.5582 10.4442 88.0986 9.85869C88.6503 9.27321 89.1908 8.64269 89.7199 7.96714C89.7425 7.93336 89.7987 7.83766 89.8888 7.68003C89.9902 7.51114 90.0971 7.32537 90.2097 7.1227C90.3223 6.90878 90.4349 6.70048 90.5475 6.49782C90.6601 6.28389 90.7445 6.115 90.8008 5.99115C90.8684 5.84478 90.9078 5.72656 90.919 5.63649C90.9416 5.54641 90.9584 5.47886 90.9697 5.43382C90.9922 5.37753 91.026 5.33812 91.071 5.3156C91.1161 5.29308 91.2118 5.28182 91.3581 5.28182C91.3807 5.28182 91.4313 5.28745 91.5101 5.29871C91.6002 5.30997 91.6565 5.32123 91.679 5.33249C91.8254 5.63649 91.9549 5.90671 92.0675 6.14315C92.1801 6.3796 92.2758 6.60478 92.3546 6.8187C92.4334 7.02137 92.4897 7.22966 92.5235 7.44359C92.5685 7.65751 92.591 7.89396 92.591 8.15292C92.4447 8.52447 92.2814 8.90728 92.1013 9.30136C91.9211 9.68417 91.7691 10.0501 91.6453 10.3991C91.5214 10.7482 91.4426 11.0634 91.4088 11.3449C91.3863 11.6264 91.4482 11.8516 91.5946 12.0205C91.7522 12.1781 92.0112 12.2625 92.3715 12.2738C92.743 12.285 93.2666 12.1893 93.9421 11.9867C94.1223 12.0767 94.1392 12.1893 93.9928 12.3244C93.8464 12.4483 93.6212 12.5665 93.3172 12.6791C93.0245 12.7917 92.698 12.8874 92.3377 12.9662C91.9887 13.0338 91.6959 13.0507 91.4595 13.0169C91.2456 13.0169 91.0654 12.9831 90.919 12.9156C90.7839 12.8367 90.6713 12.7354 90.5813 12.6116C90.5024 12.4877 90.4405 12.347 90.3955 12.1893C90.3617 12.0317 90.3448 11.8685 90.3448 11.6996ZM93.0261 11.936C93.0261 11.9022 93.0261 11.8572 93.0261 11.8009C93.0373 11.7333 93.043 11.6939 93.043 11.6827C93.0767 11.3449 93.1162 10.917 93.1612 10.3991C93.2062 9.86994 93.2513 9.36328 93.2963 8.87914C93.3526 8.39499 93.3976 7.9784 93.4314 7.62937C93.4652 7.26907 93.4821 7.08892 93.4821 7.08892L93.9381 6.64982C94.1295 6.70611 94.2702 6.78493 94.3603 6.88626C94.4504 6.97633 94.5123 7.07767 94.5461 7.19026C94.5799 7.30285 94.5967 7.4267 94.5967 7.56181C94.5967 7.69692 94.5967 7.83203 94.5967 7.96714C94.5967 8.44003 94.5517 8.90165 94.4616 9.35202C94.3828 9.79113 94.3434 10.2415 94.3434 10.7031C94.3434 10.7256 94.3434 10.7819 94.3434 10.872C94.3547 10.9508 94.3603 11.0015 94.3603 11.024L98.5149 6.64982C98.5262 6.63856 98.5543 6.63293 98.5994 6.63293C98.6557 6.63293 98.6951 6.63293 98.7176 6.63293C98.8302 6.63293 98.9372 6.65545 99.0385 6.70048C99.1398 6.74552 99.1905 6.84122 99.1905 6.98759C99.1905 6.99885 99.1849 7.01011 99.1736 7.02137C99.1736 7.02137 99.1736 7.027 99.1736 7.03826V7.08892C99.1173 7.179 99.016 7.32537 98.8696 7.52803C98.7345 7.7307 98.5825 7.95025 98.4136 8.1867C98.256 8.42314 98.104 8.64832 97.9576 8.86225C97.8112 9.06491 97.7099 9.20565 97.6536 9.28447C97.4622 9.52091 97.237 9.80239 96.9781 10.1289C96.7304 10.4554 96.4601 10.7876 96.1674 11.1253C95.8859 11.4519 95.5875 11.7671 95.2723 12.0711C94.9683 12.3639 94.6643 12.6003 94.3603 12.7804C94.304 12.8142 94.2196 12.8593 94.107 12.9156C94.0056 12.9719 93.9493 13 93.9381 13C93.8142 13 93.696 12.9662 93.5834 12.8987C93.4821 12.8199 93.3864 12.7241 93.2963 12.6116C93.2175 12.499 93.1499 12.3864 93.0936 12.2738C93.0486 12.1499 93.0261 12.0373 93.0261 11.936ZM99.7269 11.9022C99.8282 11.2605 100.02 10.6693 100.301 10.1289C100.583 9.58846 100.903 9.12121 101.264 8.72714C101.635 8.32181 102.035 7.98966 102.463 7.7307C102.891 7.47174 103.307 7.30848 103.713 7.24092C104.118 7.16211 104.49 7.179 104.827 7.29159C105.176 7.40418 105.458 7.62937 105.672 7.96714C105.672 8.2261 105.61 8.4738 105.486 8.71025C105.373 8.94669 105.244 9.18313 105.098 9.41958C104.962 9.65602 104.833 9.89809 104.709 10.1458C104.596 10.3935 104.54 10.6581 104.54 10.9396C104.54 11.2323 104.602 11.4687 104.726 11.6489C104.861 11.8178 105.092 11.9022 105.418 11.9022C105.689 11.9022 105.948 11.8628 106.195 11.784C106.454 11.7052 106.713 11.6658 106.972 11.6658C107.017 11.6658 107.09 11.6714 107.192 11.6827C107.304 11.6827 107.378 11.6827 107.411 11.6827C107.276 11.8741 107.102 12.0373 106.888 12.1724C106.674 12.3076 106.449 12.4258 106.212 12.5271C105.976 12.6172 105.728 12.6847 105.469 12.7298C105.221 12.7748 104.991 12.7973 104.777 12.7973C104.574 12.7973 104.394 12.7523 104.236 12.6622C104.079 12.5722 103.943 12.4539 103.831 12.3076C103.718 12.1612 103.628 11.9979 103.561 11.8178C103.504 11.6264 103.476 11.4406 103.476 11.2605C103.307 11.4519 103.122 11.6545 102.919 11.8685C102.727 12.0711 102.519 12.2569 102.294 12.4258C102.08 12.5947 101.844 12.7354 101.585 12.848C101.337 12.9606 101.078 13.0169 100.808 13.0169C100.515 13.0169 100.262 12.9099 100.048 12.696C99.8338 12.4708 99.7269 12.2062 99.7269 11.9022ZM100.842 11.3787C100.842 11.4687 100.842 11.5701 100.842 11.6827C100.853 11.7953 100.926 11.8685 101.061 11.9022C101.343 11.8347 101.663 11.6883 102.024 11.4631C102.384 11.2267 102.722 10.9565 103.037 10.6525C103.352 10.3372 103.617 10.0051 103.831 9.65602C104.045 9.29573 104.152 8.95232 104.152 8.6258C104.152 8.60329 104.146 8.56951 104.135 8.52447C104.135 8.46818 104.135 8.42877 104.135 8.40625C103.752 8.40625 103.364 8.48506 102.97 8.64269C102.575 8.80032 102.221 9.01988 101.906 9.30136C101.59 9.57158 101.331 9.88683 101.129 10.2471C100.937 10.6074 100.842 10.9846 100.842 11.3787ZM106.647 11.3618C106.647 11.0353 106.709 10.7088 106.833 10.3822C106.957 10.0557 107.103 9.73483 107.272 9.41958C107.441 9.09306 107.61 8.77217 107.779 8.45692C107.959 8.14166 108.094 7.83203 108.184 7.52803C107.97 7.65188 107.784 7.72507 107.627 7.74759C107.48 7.75885 107.3 7.76448 107.086 7.76448C107.064 7.76448 106.991 7.76448 106.867 7.76448C106.754 7.75322 106.681 7.74759 106.647 7.74759C106.715 7.49988 106.839 7.28033 107.019 7.08892C107.199 6.88626 107.402 6.71737 107.627 6.58226C107.863 6.43589 108.105 6.31767 108.353 6.2276C108.612 6.12626 108.843 6.04745 109.045 5.99115C109.383 5.46197 109.659 4.93279 109.873 4.40361C110.087 3.86317 110.301 3.33961 110.515 2.83295C110.74 2.31503 110.999 1.82525 111.292 1.36363C111.596 0.890739 112.001 0.45726 112.508 0.0631884L112.592 0.704962L110.481 5.65338C110.605 5.6196 110.757 5.58582 110.937 5.55204C111.117 5.51827 111.297 5.48449 111.477 5.45071C111.669 5.41693 111.849 5.38879 112.018 5.36627C112.198 5.33249 112.35 5.29871 112.474 5.26494C112.485 5.26494 112.519 5.26494 112.575 5.26494C112.631 5.25368 112.677 5.24805 112.71 5.24805C112.868 5.24805 112.997 5.27619 113.099 5.33249C113.2 5.38879 113.285 5.51264 113.352 5.70404C112.586 5.92923 111.894 6.16567 111.275 6.41337C110.656 6.66107 110.115 6.98759 109.653 7.39292C109.203 7.78699 108.832 8.29366 108.539 8.91291C108.257 9.52091 108.06 10.3034 107.948 11.2605C107.948 11.4631 107.959 11.6489 107.981 11.8178C108.004 11.9867 108.145 12.088 108.404 12.1218C108.663 12.1218 108.905 12.0711 109.13 11.9698C109.355 11.8685 109.575 11.7615 109.789 11.6489C110.002 11.525 110.216 11.4125 110.43 11.3111C110.656 11.2098 110.898 11.1591 111.157 11.1591C111.157 11.4293 111.038 11.677 110.802 11.9022C110.565 12.1274 110.278 12.3244 109.941 12.4933C109.614 12.6622 109.276 12.7917 108.927 12.8818C108.578 12.9719 108.291 13.0169 108.066 13.0169C107.841 13.0169 107.638 12.9719 107.458 12.8818C107.278 12.7917 107.126 12.6735 107.002 12.5271C106.889 12.3695 106.799 12.1893 106.732 11.9867C106.675 11.784 106.647 11.5757 106.647 11.3618ZM110.916 11.9022C110.916 11.7446 110.933 11.6095 110.967 11.4969C111 11.373 111.062 11.2154 111.152 11.024C111.231 10.9114 111.372 10.6975 111.575 10.3822C111.789 10.067 112.008 9.73483 112.233 9.3858C112.47 9.03676 112.689 8.71025 112.892 8.40625C113.106 8.09099 113.252 7.87144 113.331 7.74759C113.432 7.60122 113.511 7.5224 113.568 7.51114C113.624 7.49988 113.731 7.49426 113.888 7.49426C113.99 7.49426 114.097 7.49988 114.209 7.51114C114.333 7.5224 114.412 7.60122 114.446 7.74759C114.288 8.1304 114.074 8.49632 113.804 8.84536C113.545 9.18313 113.286 9.52091 113.027 9.85869C112.779 10.1965 112.56 10.5455 112.368 10.9058C112.177 11.2548 112.081 11.632 112.081 12.0373C112.126 12.0373 112.194 12.043 112.284 12.0542C112.385 12.0655 112.492 12.0767 112.605 12.088C112.718 12.0993 112.819 12.1105 112.909 12.1218C113.01 12.133 113.083 12.133 113.128 12.1218C113.196 12.1105 113.309 12.088 113.466 12.0542C113.635 12.0092 113.81 11.9642 113.99 11.9191C114.181 11.8741 114.361 11.829 114.53 11.784C114.699 11.739 114.817 11.7052 114.885 11.6827C114.885 11.7052 114.885 11.7446 114.885 11.8009C114.896 11.8459 114.902 11.8797 114.902 11.9022C114.902 12.1274 114.795 12.3132 114.581 12.4596C114.378 12.6059 114.136 12.7241 113.855 12.8142C113.584 12.893 113.303 12.9493 113.01 12.9831C112.729 13.0056 112.509 13.0169 112.352 13.0169C112.183 13.0169 112.008 13 111.828 12.9662C111.659 12.9212 111.507 12.8536 111.372 12.7636C111.237 12.6735 111.124 12.5609 111.034 12.4258C110.955 12.2794 110.916 12.1049 110.916 11.9022ZM115.831 2.0054C115.977 2.0054 116.112 2.01103 116.236 2.02229C116.36 2.03355 116.467 2.06169 116.557 2.10673C116.647 2.15177 116.72 2.21932 116.776 2.3094C116.833 2.39947 116.861 2.52332 116.861 2.68095C116.861 2.74851 116.861 2.82169 116.861 2.9005C116.861 2.97932 116.85 3.05813 116.827 3.13695C116.816 3.2045 116.788 3.26643 116.743 3.32272C116.698 3.36776 116.624 3.39028 116.523 3.39028C116.365 3.39028 116.236 3.33398 116.135 3.22139C116.045 3.1088 115.977 2.97932 115.932 2.83295C115.887 2.67532 115.859 2.51769 115.848 2.36006C115.836 2.20243 115.831 2.08421 115.831 2.0054ZM114.965 11.5813C114.965 11.5363 114.965 11.4462 114.965 11.3111C114.977 11.1648 114.982 11.069 114.982 11.024C115.342 10.2021 115.804 9.4421 116.367 8.74403C116.93 8.04596 117.566 7.4267 118.275 6.88626C118.298 6.88626 118.332 6.88063 118.377 6.86937C118.433 6.84685 118.473 6.83559 118.495 6.83559C118.799 6.83559 119.047 6.90315 119.238 7.03826C119.441 7.16211 119.598 7.331 119.711 7.54492C119.835 7.74759 119.919 7.9784 119.964 8.23736C120.009 8.48506 120.032 8.72714 120.032 8.96358C120.032 9.40269 119.931 9.86432 119.728 10.3485C119.525 10.8213 119.249 11.2605 118.9 11.6658C118.563 12.0599 118.174 12.3864 117.735 12.6453C117.296 12.893 116.84 13.0169 116.367 13.0169C115.894 13.0169 115.54 12.893 115.303 12.6453C115.078 12.3864 114.965 12.0317 114.965 11.5813ZM116.283 11.3787C116.283 11.5025 116.333 11.587 116.435 11.632C116.536 11.677 116.637 11.6996 116.739 11.6996C117.02 11.6996 117.29 11.6264 117.549 11.48C117.819 11.3224 118.056 11.131 118.259 10.9058C118.473 10.6693 118.641 10.4104 118.765 10.1289C118.889 9.84743 118.951 9.57721 118.951 9.31824C118.951 9.19439 118.94 9.05928 118.917 8.91291C118.906 8.75528 118.872 8.62017 118.816 8.50758C118.76 8.38373 118.67 8.28803 118.546 8.22047C118.433 8.15292 118.27 8.14166 118.056 8.1867C117.898 8.22047 117.718 8.36684 117.515 8.6258C117.313 8.88477 117.116 9.18876 116.924 9.5378C116.744 9.87557 116.592 10.219 116.468 10.568C116.345 10.9058 116.283 11.176 116.283 11.3787ZM120.703 12.24C120.703 12.1387 120.703 12.0599 120.703 12.0036C120.703 11.9473 120.709 11.8966 120.72 11.8516C120.743 11.7953 120.771 11.739 120.805 11.6827C120.839 11.6264 120.884 11.5532 120.94 11.4631C121.03 11.3055 121.199 11.0296 121.447 10.6356C121.694 10.2415 121.959 9.82491 122.24 9.3858C122.522 8.94669 122.786 8.5301 123.034 8.13603C123.293 7.74196 123.473 7.46611 123.575 7.30848C123.586 7.29722 123.614 7.29159 123.659 7.29159C123.715 7.29159 123.755 7.29159 123.777 7.29159C123.8 7.29159 123.839 7.29159 123.895 7.29159C123.952 7.29159 123.985 7.29722 123.997 7.30848C124.008 7.31974 124.031 7.34789 124.064 7.39292C124.109 7.43796 124.154 7.48863 124.199 7.54492C124.256 7.58996 124.301 7.635 124.335 7.68003C124.38 7.72507 124.413 7.74759 124.436 7.74759C124.537 7.74759 124.644 7.71381 124.757 7.64625C124.869 7.5787 124.982 7.50551 125.095 7.4267C125.218 7.33663 125.342 7.25781 125.466 7.19026C125.59 7.1227 125.719 7.08892 125.855 7.08892C126.001 7.08892 126.136 7.1227 126.26 7.19026C126.384 7.25781 126.491 7.34226 126.581 7.44359C126.671 7.54492 126.738 7.65751 126.783 7.78136C126.84 7.90522 126.868 8.02907 126.868 8.15292C126.868 8.41188 126.828 8.65958 126.75 8.89602C126.682 9.13247 126.603 9.36891 126.513 9.60535C126.423 9.83054 126.339 10.0614 126.26 10.2978C126.192 10.523 126.159 10.7594 126.159 11.0071C126.159 11.2548 126.187 11.435 126.243 11.5476C126.299 11.6489 126.457 11.6996 126.716 11.6996C127.02 11.6996 127.307 11.6545 127.577 11.5645C127.859 11.4744 128.146 11.4293 128.439 11.4293C128.439 11.6996 128.354 11.9247 128.185 12.1049C128.028 12.285 127.825 12.4314 127.577 12.544C127.341 12.6453 127.082 12.7185 126.8 12.7636C126.53 12.7973 126.282 12.8142 126.057 12.8142C125.629 12.8142 125.314 12.696 125.111 12.4596C124.92 12.2119 124.824 11.8853 124.824 11.48C124.824 11.2098 124.869 10.9565 124.959 10.72C125.061 10.4836 125.168 10.2528 125.28 10.0276C125.404 9.80239 125.517 9.57721 125.618 9.35202C125.719 9.12684 125.77 8.88477 125.77 8.6258C125.77 8.55825 125.759 8.46818 125.736 8.35558C125.714 8.24299 125.641 8.1867 125.517 8.1867C125.145 8.1867 124.807 8.30492 124.503 8.54136C124.211 8.7778 123.94 9.07617 123.693 9.43647C123.456 9.79676 123.237 10.1852 123.034 10.6018C122.843 11.0184 122.657 11.4068 122.477 11.7671C122.308 12.1274 122.145 12.4258 121.987 12.6622C121.829 12.8987 121.666 13.0169 121.497 13.0169C121.261 13.0169 121.069 12.9437 120.923 12.7973C120.777 12.651 120.703 12.4652 120.703 12.24Z" fill="#E8D8B1"/>
</svg>
