<svg width="87" height="24" viewBox="0 0 87 24" fill="none" xmlns="http://www.w3.org/2000/svg">
<path d="M0.88496 19.748C0.88496 19.377 0.933788 19.0547 1.03144 18.7812C1.14863 18.5078 1.43184 18.3711 1.88105 18.3711C1.92012 18.3711 2.00801 18.3809 2.14473 18.4004C2.30098 18.4004 2.4084 18.4102 2.46699 18.4297C2.44746 19.3477 2.59394 20.041 2.90644 20.5098C3.21894 20.959 3.80488 21.1836 4.66426 21.1836C5.36738 21.1836 6.06074 21.0762 6.74434 20.8613C7.42793 20.6465 8.04316 20.334 8.59004 19.9238C9.15644 19.4941 9.60566 18.9766 9.93769 18.3711C10.2893 17.7656 10.465 17.082 10.465 16.3203C10.465 15.8516 10.299 15.5195 9.96699 15.3242C9.65449 15.1289 9.30293 14.9727 8.9123 14.8555C8.52168 14.7383 8.16035 14.6113 7.82832 14.4746C7.51582 14.3184 7.35957 14.0547 7.35957 13.6836C7.35957 13.2344 7.63301 12.8047 8.17988 12.3945C8.72676 11.9844 9.37129 11.623 10.1135 11.3105C10.8557 10.9785 11.5881 10.7246 12.3107 10.5488C13.0529 10.3535 13.6193 10.2559 14.01 10.2559C14.01 10.8223 13.883 11.2227 13.6291 11.457C13.3947 11.6914 13.1018 11.877 12.7502 12.0137C12.3986 12.1504 12.0373 12.2871 11.6662 12.4238C11.3146 12.541 11.0217 12.7754 10.7873 13.127C11.0998 13.3809 11.3537 13.6152 11.549 13.8301C11.7639 14.0254 11.9299 14.2402 12.0471 14.4746C12.1643 14.709 12.2424 14.9727 12.2814 15.2656C12.3205 15.5391 12.34 15.8711 12.34 16.2617C12.34 17.2773 12.1154 18.2051 11.6662 19.0449C11.2365 19.8652 10.6701 20.5781 9.96699 21.1836C9.26387 21.7695 8.46309 22.2285 7.56465 22.5605C6.66621 22.873 5.74824 23.0293 4.81074 23.0293C4.30293 23.0293 3.80488 22.9707 3.3166 22.8535C2.84785 22.7168 2.42793 22.5117 2.05684 22.2383C1.70527 21.9648 1.42207 21.623 1.20723 21.2129C0.992382 20.8027 0.88496 20.3145 0.88496 19.748ZM14.4424 20.1582C14.4424 19.5918 14.5498 19.0254 14.7646 18.459C14.9795 17.8926 15.2334 17.3359 15.5264 16.7891C15.8193 16.2227 16.1123 15.666 16.4053 15.1191C16.7178 14.5723 16.9521 14.0352 17.1084 13.5078C16.7373 13.7227 16.415 13.8496 16.1416 13.8887C15.8877 13.9082 15.5752 13.918 15.2041 13.918C15.165 13.918 15.0381 13.918 14.8232 13.918C14.6279 13.8984 14.501 13.8887 14.4424 13.8887C14.5596 13.459 14.7744 13.0781 15.0869 12.7461C15.3994 12.3945 15.751 12.1016 16.1416 11.8672C16.5518 11.6133 16.9717 11.4082 17.4014 11.252C17.8506 11.0762 18.251 10.9395 18.6025 10.8418C19.1885 9.92383 19.667 9.00586 20.0381 8.08789C20.4092 7.15039 20.7803 6.24219 21.1514 5.36328C21.542 4.46484 21.9912 3.61523 22.499 2.81445C23.0264 1.99414 23.7295 1.24219 24.6084 0.558594L24.7549 1.67188L21.0928 10.2559C21.3076 10.1973 21.5713 10.1387 21.8838 10.0801C22.1963 10.0215 22.5088 9.96289 22.8213 9.9043C23.1533 9.8457 23.4658 9.79688 23.7588 9.75781C24.0713 9.69922 24.335 9.64062 24.5498 9.58203C24.5693 9.58203 24.6279 9.58203 24.7256 9.58203C24.8232 9.5625 24.9014 9.55273 24.96 9.55273C25.2334 9.55273 25.458 9.60156 25.6338 9.69922C25.8096 9.79688 25.9561 10.0117 26.0732 10.3438C24.7451 10.7344 23.5439 11.1445 22.4697 11.5742C21.3955 12.0039 20.458 12.5703 19.6572 13.2734C18.876 13.957 18.2314 14.8359 17.7236 15.9102C17.2354 16.9648 16.8936 18.3223 16.6982 19.9824C16.6982 20.334 16.7178 20.6562 16.7568 20.9492C16.7959 21.2422 17.04 21.418 17.4893 21.4766C17.9385 21.4766 18.3584 21.3887 18.749 21.2129C19.1396 21.0371 19.5205 20.8516 19.8916 20.6562C20.2627 20.4414 20.6338 20.2461 21.0049 20.0703C21.3955 19.8945 21.8154 19.8066 22.2646 19.8066C22.2646 20.2754 22.0596 20.7051 21.6494 21.0957C21.2393 21.4863 20.7412 21.8281 20.1553 22.1211C19.5889 22.4141 19.0029 22.6387 18.3975 22.7949C17.792 22.9512 17.2939 23.0293 16.9033 23.0293C16.5127 23.0293 16.1611 22.9512 15.8486 22.7949C15.5361 22.6387 15.2725 22.4336 15.0576 22.1797C14.8623 21.9062 14.7061 21.5938 14.5889 21.2422C14.4912 20.8906 14.4424 20.5293 14.4424 20.1582ZM22.2283 21.0957C22.4041 19.9824 22.7361 18.957 23.2244 18.0195C23.7127 17.082 24.2693 16.2715 24.8943 15.5879C25.5389 14.8848 26.2322 14.3086 26.9744 13.8594C27.7166 13.4102 28.4393 13.127 29.1424 13.0098C29.8455 12.873 30.49 12.9023 31.076 13.0977C31.6814 13.293 32.1697 13.6836 32.5408 14.2695C32.5408 14.7188 32.4334 15.1484 32.2186 15.5586C32.0232 15.9688 31.7986 16.3789 31.5447 16.7891C31.3103 17.1992 31.0857 17.6191 30.8709 18.0488C30.6756 18.4785 30.5779 18.9375 30.5779 19.4258C30.5779 19.9336 30.6853 20.3438 30.9002 20.6562C31.1346 20.9492 31.535 21.0957 32.1014 21.0957C32.5701 21.0957 33.0193 21.0273 33.449 20.8906C33.8982 20.7539 34.3475 20.6855 34.7967 20.6855C34.8748 20.6855 35.0018 20.6953 35.1775 20.7148C35.3728 20.7148 35.4998 20.7148 35.5584 20.7148C35.324 21.0469 35.0213 21.3301 34.6502 21.5645C34.2791 21.7988 33.8885 22.0039 33.4783 22.1797C33.0682 22.3359 32.6385 22.4531 32.1893 22.5312C31.7596 22.6094 31.3592 22.6484 30.9881 22.6484C30.6365 22.6484 30.324 22.5703 30.0506 22.4141C29.7771 22.2578 29.5428 22.0527 29.3475 21.7988C29.1521 21.5449 28.9959 21.2617 28.8787 20.9492C28.7811 20.6172 28.7322 20.2949 28.7322 19.9824C28.4393 20.3145 28.117 20.666 27.7654 21.0371C27.4334 21.3887 27.0721 21.7109 26.6814 22.0039C26.3103 22.2969 25.9002 22.541 25.451 22.7363C25.0213 22.9316 24.5721 23.0293 24.1033 23.0293C23.5955 23.0293 23.1561 22.8438 22.785 22.4727C22.4139 22.082 22.2283 21.623 22.2283 21.0957ZM24.1619 20.1875C24.1619 20.3438 24.1619 20.5195 24.1619 20.7148C24.1814 20.9102 24.3084 21.0371 24.5428 21.0957C25.0311 20.9785 25.5877 20.7246 26.2127 20.334C26.8377 19.9238 27.4236 19.4551 27.9705 18.9277C28.5174 18.3809 28.9764 17.8047 29.3475 17.1992C29.7186 16.5742 29.9041 15.9785 29.9041 15.4121C29.9041 15.373 29.8943 15.3145 29.8748 15.2363C29.8748 15.1387 29.8748 15.0703 29.8748 15.0312C29.2107 15.0312 28.5369 15.168 27.8533 15.4414C27.1697 15.7148 26.5545 16.0957 26.0076 16.584C25.4607 17.0527 25.0115 17.5996 24.66 18.2246C24.3279 18.8496 24.1619 19.5039 24.1619 20.1875ZM40.8541 20.7441C40.8541 20.1582 40.9713 19.6211 41.2057 19.1328C41.4596 18.625 41.733 18.1465 42.026 17.6973C42.3189 17.248 42.5826 16.7988 42.817 16.3496C43.0709 15.9004 43.1978 15.4219 43.1978 14.9141C43.1978 14.7969 43.1881 14.6602 43.1685 14.5039C43.1685 14.3281 43.149 14.1621 43.11 14.0059C43.0904 13.8496 43.0318 13.7227 42.9342 13.625C42.856 13.5078 42.7486 13.4492 42.6119 13.4492C42.5924 13.4492 42.5533 13.459 42.4947 13.4785C42.4557 13.4785 42.4361 13.4883 42.4361 13.5078C42.1627 13.8789 41.8307 14.2988 41.44 14.7676C41.0689 15.2168 40.6685 15.666 40.2389 16.1152C39.8092 16.5645 39.3893 16.9941 38.9791 17.4043C38.5689 17.8145 38.1978 18.1562 37.8658 18.4297C37.6314 18.6445 37.3092 18.9375 36.899 19.3086C36.5084 19.6797 36.108 20.0508 35.6978 20.4219C35.3072 20.7734 34.9557 21.0859 34.6432 21.3594C34.3502 21.6328 34.1842 21.7695 34.1451 21.7695L32.7975 20.627C32.9732 20.627 33.149 20.5879 33.3248 20.5098C33.481 20.4316 33.6373 20.3438 33.7935 20.2461C34.9654 19.4648 36.0201 18.5664 36.9576 17.5508C37.9146 16.5352 38.8521 15.4414 39.7701 14.2695C39.8092 14.2109 39.9068 14.0449 40.0631 13.7715C40.2389 13.4785 40.4244 13.1562 40.6197 12.8047C40.815 12.4336 41.0103 12.0723 41.2057 11.7207C41.401 11.3496 41.5475 11.0566 41.6451 10.8418C41.7623 10.5879 41.8307 10.3828 41.8502 10.2266C41.8893 10.0703 41.9185 9.95312 41.9381 9.875C41.9771 9.77734 42.0357 9.70898 42.1139 9.66992C42.192 9.63086 42.358 9.61133 42.6119 9.61133C42.651 9.61133 42.7389 9.62109 42.8756 9.64062C43.0318 9.66016 43.1295 9.67969 43.1685 9.69922C43.4225 10.2266 43.6471 10.6953 43.8424 11.1055C44.0377 11.5156 44.2037 11.9062 44.3404 12.2773C44.4771 12.6289 44.5748 12.9902 44.6334 13.3613C44.7115 13.7324 44.7506 14.1426 44.7506 14.5918C44.4967 15.2363 44.2135 15.9004 43.901 16.584C43.5885 17.248 43.3248 17.8828 43.11 18.4883C42.8951 19.0938 42.7584 19.6406 42.6998 20.1289C42.6607 20.6172 42.7682 21.0078 43.0221 21.3008C43.2955 21.5742 43.7447 21.7207 44.3697 21.7402C45.0143 21.7598 45.9225 21.5938 47.0943 21.2422C47.4068 21.3984 47.4361 21.5938 47.1822 21.8281C46.9283 22.043 46.5377 22.248 46.0103 22.4434C45.5025 22.6387 44.9361 22.8047 44.3111 22.9414C43.7057 23.0586 43.1978 23.0879 42.7877 23.0293C42.4166 23.0293 42.1041 22.9707 41.8502 22.8535C41.6158 22.7168 41.4205 22.541 41.2643 22.3262C41.1275 22.1113 41.0201 21.8672 40.942 21.5938C40.8834 21.3203 40.8541 21.0371 40.8541 20.7441ZM45.3295 20.1582C45.3295 19.5918 45.4369 19.0254 45.6518 18.459C45.8666 17.8926 46.1205 17.3359 46.4135 16.7891C46.7064 16.2227 46.9994 15.666 47.2924 15.1191C47.6049 14.5723 47.8393 14.0352 47.9955 13.5078C47.6244 13.7227 47.3021 13.8496 47.0287 13.8887C46.7748 13.9082 46.4623 13.918 46.0912 13.918C46.0521 13.918 45.9252 13.918 45.7104 13.918C45.515 13.8984 45.3881 13.8887 45.3295 13.8887C45.4467 13.459 45.6615 13.0781 45.974 12.7461C46.2865 12.3945 46.6381 12.1016 47.0287 11.8672C47.4389 11.6133 47.8588 11.4082 48.2885 11.252C48.7377 11.0762 49.1381 10.9395 49.4896 10.8418C50.0756 9.92383 50.5541 9.00586 50.9252 8.08789C51.2963 7.15039 51.6674 6.24219 52.0385 5.36328C52.4291 4.46484 52.8783 3.61523 53.3861 2.81445C53.9135 1.99414 54.6166 1.24219 55.4955 0.558594L55.642 1.67188L51.9799 10.2559C52.1947 10.1973 52.4584 10.1387 52.7709 10.0801C53.0834 10.0215 53.3959 9.96289 53.7084 9.9043C54.0404 9.8457 54.3529 9.79688 54.6459 9.75781C54.9584 9.69922 55.2221 9.64062 55.4369 9.58203C55.4564 9.58203 55.515 9.58203 55.6127 9.58203C55.7104 9.5625 55.7885 9.55273 55.8471 9.55273C56.1205 9.55273 56.3451 9.60156 56.5209 9.69922C56.6967 9.79688 56.8432 10.0117 56.9604 10.3438C55.6322 10.7344 54.4311 11.1445 53.3568 11.5742C52.2826 12.0039 51.3451 12.5703 50.5443 13.2734C49.7631 13.957 49.1186 14.8359 48.6107 15.9102C48.1225 16.9648 47.7807 18.3223 47.5854 19.9824C47.5854 20.334 47.6049 20.6562 47.6439 20.9492C47.683 21.2422 47.9271 21.418 48.3764 21.4766C48.8256 21.4766 49.2455 21.3887 49.6361 21.2129C50.0268 21.0371 50.4076 20.8516 50.7787 20.6562C51.1498 20.4414 51.5209 20.2461 51.892 20.0703C52.2826 19.8945 52.7025 19.8066 53.1518 19.8066C53.1518 20.2754 52.9467 20.7051 52.5365 21.0957C52.1264 21.4863 51.6283 21.8281 51.0424 22.1211C50.476 22.4141 49.89 22.6387 49.2846 22.7949C48.6791 22.9512 48.1811 23.0293 47.7904 23.0293C47.3998 23.0293 47.0482 22.9512 46.7357 22.7949C46.4232 22.6387 46.1596 22.4336 45.9447 22.1797C45.7494 21.9062 45.5932 21.5938 45.476 21.2422C45.3783 20.8906 45.3295 20.5293 45.3295 20.1582ZM53.0568 21.4766C52.7248 20.7344 52.5783 20.0117 52.6174 19.3086C52.6564 18.5859 52.8127 17.9121 53.0861 17.2871C53.3791 16.6426 53.7502 16.0664 54.1994 15.5586C54.6682 15.0312 55.1662 14.582 55.6936 14.2109C56.2209 13.8203 56.7482 13.5273 57.2756 13.332C57.8225 13.1367 58.301 13.0586 58.7111 13.0977C59.1213 13.1172 59.4436 13.2637 59.6779 13.5371C59.9123 13.8105 59.9904 14.2305 59.9123 14.7969C59.9123 15.5586 59.6682 16.2227 59.1799 16.7891C58.7111 17.3555 58.1838 17.8633 57.5979 18.3125C57.0314 18.7617 56.5041 19.1719 56.0158 19.543C55.5471 19.8945 55.3127 20.2266 55.3127 20.5391C55.3127 20.7148 55.4104 20.8516 55.6057 20.9492C55.8205 21.0469 56.0647 21.125 56.3381 21.1836C56.6115 21.2227 56.885 21.252 57.1584 21.2715C57.4318 21.291 57.6272 21.3105 57.7443 21.3301C59.5803 20.9395 60.9572 20.7051 61.8752 20.627C62.7932 20.5293 63.3693 20.5391 63.6037 20.6562C63.8381 20.7539 63.7893 20.9199 63.4572 21.1543C63.1447 21.3691 62.6564 21.6035 61.9924 21.8574C61.3283 22.0918 60.5568 22.3066 59.6779 22.502C58.799 22.6973 57.9299 22.8145 57.0705 22.8535C56.2111 22.873 55.4104 22.7852 54.6682 22.5898C53.9455 22.3945 53.4084 22.0234 53.0568 21.4766ZM58.1838 14.7969C57.7932 14.7969 57.4221 14.9043 57.0705 15.1191C56.7189 15.334 56.3967 15.6074 56.1037 15.9395C55.8303 16.252 55.5959 16.6035 55.4006 16.9941C55.2053 17.3652 55.0588 17.7168 54.9611 18.0488C55.0002 18.0684 55.0295 18.0781 55.049 18.0781H55.1369C55.4104 18.0781 55.7229 17.9609 56.0744 17.7266C56.426 17.4922 56.758 17.209 57.0705 16.877C57.383 16.5254 57.6467 16.1641 57.8615 15.793C58.0764 15.4219 58.1838 15.0898 58.1838 14.7969ZM69.1338 20.7441C69.1338 20.1582 69.251 19.6211 69.4854 19.1328C69.7393 18.625 70.0127 18.1465 70.3057 17.6973C70.5986 17.248 70.8623 16.7988 71.0967 16.3496C71.3506 15.9004 71.4775 15.4219 71.4775 14.9141C71.4775 14.7969 71.4678 14.6602 71.4482 14.5039C71.4482 14.3281 71.4287 14.1621 71.3896 14.0059C71.3701 13.8496 71.3115 13.7227 71.2139 13.625C71.1357 13.5078 71.0283 13.4492 70.8916 13.4492C70.8721 13.4492 70.833 13.459 70.7744 13.4785C70.7354 13.4785 70.7158 13.4883 70.7158 13.5078C70.4424 13.8789 70.1104 14.2988 69.7197 14.7676C69.3486 15.2168 68.9482 15.666 68.5186 16.1152C68.0889 16.5645 67.6689 16.9941 67.2588 17.4043C66.8486 17.8145 66.4775 18.1562 66.1455 18.4297C65.9111 18.6445 65.5889 18.9375 65.1787 19.3086C64.7881 19.6797 64.3877 20.0508 63.9775 20.4219C63.5869 20.7734 63.2354 21.0859 62.9229 21.3594C62.6299 21.6328 62.4639 21.7695 62.4248 21.7695L61.0771 20.627C61.2529 20.627 61.4287 20.5879 61.6045 20.5098C61.7607 20.4316 61.917 20.3438 62.0732 20.2461C63.2451 19.4648 64.2998 18.5664 65.2373 17.5508C66.1943 16.5352 67.1318 15.4414 68.0498 14.2695C68.0889 14.2109 68.1865 14.0449 68.3428 13.7715C68.5186 13.4785 68.7041 13.1562 68.8994 12.8047C69.0947 12.4336 69.29 12.0723 69.4854 11.7207C69.6807 11.3496 69.8271 11.0566 69.9248 10.8418C70.042 10.5879 70.1104 10.3828 70.1299 10.2266C70.1689 10.0703 70.1982 9.95312 70.2178 9.875C70.2568 9.77734 70.3154 9.70898 70.3936 9.66992C70.4717 9.63086 70.6377 9.61133 70.8916 9.61133C70.9307 9.61133 71.0186 9.62109 71.1553 9.64062C71.3115 9.66016 71.4092 9.67969 71.4482 9.69922C71.7021 10.2266 71.9268 10.6953 72.1221 11.1055C72.3174 11.5156 72.4834 11.9062 72.6201 12.2773C72.7568 12.6289 72.8545 12.9902 72.9131 13.3613C72.9912 13.7324 73.0303 14.1426 73.0303 14.5918C72.7764 15.2363 72.4932 15.9004 72.1807 16.584C71.8682 17.248 71.6045 17.8828 71.3896 18.4883C71.1748 19.0938 71.0381 19.6406 70.9795 20.1289C70.9404 20.6172 71.0479 21.0078 71.3018 21.3008C71.5752 21.5742 72.0244 21.7207 72.6494 21.7402C73.2939 21.7598 74.2021 21.5938 75.374 21.2422C75.6865 21.3984 75.7158 21.5938 75.4619 21.8281C75.208 22.043 74.8174 22.248 74.29 22.4434C73.7822 22.6387 73.2158 22.8047 72.5908 22.9414C71.9854 23.0586 71.4775 23.0879 71.0674 23.0293C70.6963 23.0293 70.3838 22.9707 70.1299 22.8535C69.8955 22.7168 69.7002 22.541 69.5439 22.3262C69.4072 22.1113 69.2998 21.8672 69.2217 21.5938C69.1631 21.3203 69.1338 21.0371 69.1338 20.7441ZM73.785 19.748C73.785 19.377 73.8338 19.0547 73.9314 18.7812C74.0486 18.5078 74.3318 18.3711 74.7811 18.3711C74.8201 18.3711 74.908 18.3809 75.0447 18.4004C75.201 18.4004 75.3084 18.4102 75.367 18.4297C75.3475 19.3477 75.4939 20.041 75.8064 20.5098C76.1189 20.959 76.7049 21.1836 77.5643 21.1836C78.2674 21.1836 78.9607 21.0762 79.6443 20.8613C80.3279 20.6465 80.9432 20.334 81.49 19.9238C82.0564 19.4941 82.5057 18.9766 82.8377 18.3711C83.1893 17.7656 83.365 17.082 83.365 16.3203C83.365 15.8516 83.199 15.5195 82.867 15.3242C82.5545 15.1289 82.2029 14.9727 81.8123 14.8555C81.4217 14.7383 81.0603 14.6113 80.7283 14.4746C80.4158 14.3184 80.2596 14.0547 80.2596 13.6836C80.2596 13.2344 80.533 12.8047 81.0799 12.3945C81.6268 11.9844 82.2713 11.623 83.0135 11.3105C83.7557 10.9785 84.4881 10.7246 85.2107 10.5488C85.9529 10.3535 86.5193 10.2559 86.91 10.2559C86.91 10.8223 86.783 11.2227 86.5291 11.457C86.2947 11.6914 86.0018 11.877 85.6502 12.0137C85.2986 12.1504 84.9373 12.2871 84.5662 12.4238C84.2146 12.541 83.9217 12.7754 83.6873 13.127C83.9998 13.3809 84.2537 13.6152 84.449 13.8301C84.6639 14.0254 84.8299 14.2402 84.9471 14.4746C85.0643 14.709 85.1424 14.9727 85.1814 15.2656C85.2205 15.5391 85.24 15.8711 85.24 16.2617C85.24 17.2773 85.0154 18.2051 84.5662 19.0449C84.1365 19.8652 83.5701 20.5781 82.867 21.1836C82.1639 21.7695 81.3631 22.2285 80.4646 22.5605C79.5662 22.873 78.6482 23.0293 77.7107 23.0293C77.2029 23.0293 76.7049 22.9707 76.2166 22.8535C75.7478 22.7168 75.3279 22.5117 74.9568 22.2383C74.6053 21.9648 74.3221 21.623 74.1072 21.2129C73.8924 20.8027 73.785 20.3145 73.785 19.748Z" fill="#E8D8B1"/>
</svg>
